<svg width="67" height="68" viewBox="0 0 67 68" fill="none" xmlns="http://www.w3.org/2000/svg">
<rect x="0.0800781" y="0.989014" width="66.7978" height="66.7978" rx="22.9021" fill="white" fill-opacity="0.2"/>
<g clip-path="url(#clip0_851_894)">
<path d="M21.6063 36.5636L40.031 36.5636L32.836 43.7014C32.4314 44.1166 32.2051 44.6733 32.2051 45.253C32.2051 45.8327 32.4314 46.3895 32.836 46.8047C33.2457 47.2094 33.7984 47.4363 34.3742 47.4363C34.9501 47.4363 35.5028 47.2094 35.9125 46.8047L46.8521 35.9262C47.2434 35.5099 47.4612 34.9602 47.4612 34.3889C47.4612 33.8176 47.2434 33.2678 46.8521 32.8515L35.9125 21.973C35.5028 21.5684 34.9501 21.3415 34.3742 21.3415C33.7984 21.3415 33.2457 21.5684 32.836 21.973C32.4407 22.3847 32.2133 22.9293 32.1985 23.4999C32.2041 24.0758 32.4326 24.6271 32.836 25.0381L40.031 32.2046L21.6063 32.2046C21.0402 32.2213 20.5029 32.458 20.1083 32.8643C19.7138 33.2707 19.4932 33.8148 19.4932 34.3812C19.4932 34.9476 19.7138 35.4917 20.1083 35.8981C20.5029 36.3045 21.0402 36.5411 21.6063 36.5579L21.6063 36.5636Z" fill="white"/>
</g>
<defs>
<clipPath id="clip0_851_894">
<rect width="28.0283" height="26.0969" fill="white" transform="matrix(1 1.74846e-07 1.74846e-07 -1 19.4297 47.4363)"/>
</clipPath>
</defs>
</svg>
