<svg width="30" height="30" viewBox="0 0 30 30" fill="none" xmlns="http://www.w3.org/2000/svg">
    <rect width="30" height="30" fill="#F5F5F5" />
    <g clip-path="url(#clip0_759_8259)">
        <rect width="1520" height="963" transform="translate(-13 -22)" fill="#0B1320" />
        <rect x="-13" y="-22" width="161" height="963" fill="#111B2A" />
        <path
            d="M0 5.9375C0 2.65831 2.65831 0 5.9375 0H24.0625C27.3417 0 30 2.65831 30 5.9375V24.0625C30 27.3417 27.3417 30 24.0625 30H5.9375C2.65831 30 0 27.3417 0 24.0625V5.9375Z"
            fill="url(#paint0_radial_759_8259)" />
        <path
            d="M22.8644 15.4937C22.8644 17.1459 22.2133 18.7304 21.0539 19.8999C21.0539 19.8999 18.0145 23.0339 17.6419 23.3334C18.971 21.6868 19.0372 20.5929 18.971 19.3788C18.8892 17.8789 17.9164 16.5594 16.8607 15.4965L13.6891 12.3049C13.1203 11.7326 12.8009 10.9567 12.8009 10.1475C12.8009 9.33836 13.1203 8.56246 13.6891 7.99012C14.2578 7.41778 15.0289 7.09637 15.833 7.09637C16.6371 7.09637 17.4082 7.41778 17.977 7.99012L21.0545 11.087C22.2139 12.2565 22.865 13.841 22.865 15.4931L22.8644 15.4937ZM13.0037 14.5035C11.948 13.4412 10.9752 12.1217 10.8934 10.6212C10.8273 9.40715 10.8934 8.31266 12.2226 6.66669C11.8494 6.96667 8.81053 10.1002 8.81053 10.1002C7.65114 11.2697 7 12.8542 7 14.5063C7 16.1585 7.65114 17.743 8.81053 18.9125L11.888 22.0094C12.4568 22.5817 13.2279 22.9031 14.032 22.9031C14.8361 22.9031 15.6072 22.5817 16.1759 22.0094C16.7447 21.437 17.0641 20.6611 17.0641 19.8519C17.0641 19.0428 16.7447 18.2669 16.1759 17.6945L13.0043 14.503L13.0037 14.5035Z"
            fill="url(#paint1_linear_759_8259)" />
    </g>
    <defs>
        <radialGradient id="paint0_radial_759_8259" cx="0" cy="0" r="1"
            gradientUnits="userSpaceOnUse"
            gradientTransform="translate(6 5.7) rotate(43.7811) scale(39.8898 197.77)">
            <stop stop-color="white" />
            <stop offset="1" stop-color="#D2D3D5" />
        </radialGradient>
        <linearGradient id="paint1_linear_759_8259" x1="7" y1="14.9997" x2="22.8644" y2="14.9997"
            gradientUnits="userSpaceOnUse">
            <stop stop-color="#1745FF" />
            <stop offset="0.1" stop-color="#154EFF" />
            <stop offset="0.26" stop-color="#1068FF" />
            <stop offset="0.47" stop-color="#0991FF" />
            <stop offset="0.72" stop-color="#00CBFF" />
        </linearGradient>
        <clipPath id="clip0_759_8259">
            <rect width="1520" height="963" fill="white" transform="translate(-13 -22)" />
        </clipPath>
    </defs>
</svg>