<svg width="57" height="57" viewBox="0 0 57 57" fill="none" xmlns="http://www.w3.org/2000/svg">
<mask id="path-1-inside-1_128_3100" fill="white">
<path d="M0 28.5C0 12.7599 12.7599 0 28.5 0C44.2401 0 57 12.7599 57 28.5C57 44.2401 44.2401 57 28.5 57C12.7599 57 0 44.2401 0 28.5Z"/>
</mask>
<path d="M0 27.5C0 11.7599 12.7599 -1 28.5 -1C44.2401 -1 57 11.7599 57 27.5V28.5C57 13.3122 44.2401 1 28.5 1C12.7599 1 0 13.3122 0 28.5V27.5ZM57 57H0H57ZM0 57V0V57ZM57 0V57V0Z" fill="#233265" mask="url(#path-1-inside-1_128_3100)"/>
<circle cx="28.4999" cy="28.4999" r="28.4999" fill="#110F21" fill-opacity="0.01"/>
<g opacity="0.06" filter="url(#filter0_b_128_3100)">
<circle cx="28.4999" cy="28.4999" r="28.4999" fill="white"/>
<circle cx="28.4999" cy="28.4999" r="27.8803" stroke="white" stroke-opacity="0.7" stroke-width="1.23928"/>
</g>
<path d="M14 25L20.4307 30.5L26.8615 25L14 25Z" fill="#FF3E46" stroke="#FF3E46" stroke-width="2.35714" stroke-linecap="round" stroke-linejoin="round"/>
<path d="M42.863 31L36.4322 25.5L30.0015 31L42.863 31Z" fill="#0CAF60" stroke="#0CAF60" stroke-width="2.35714" stroke-linecap="round" stroke-linejoin="round"/>
<defs>
<filter id="filter0_b_128_3100" x="-15.4352" y="-15.4352" width="87.8701" height="87.8703" filterUnits="userSpaceOnUse" color-interpolation-filters="sRGB">
<feFlood flood-opacity="0" result="BackgroundImageFix"/>
<feGaussianBlur in="BackgroundImageFix" stdDeviation="7.71758"/>
<feComposite in2="SourceAlpha" operator="in" result="effect1_backgroundBlur_128_3100"/>
<feBlend mode="normal" in="SourceGraphic" in2="effect1_backgroundBlur_128_3100" result="shape"/>
</filter>
</defs>
</svg>
