<svg width="25" height="26" viewBox="0 0 25 26" fill="none" xmlns="http://www.w3.org/2000/svg">
<path d="M11.4369 17.4833C11.377 17.4249 11.1207 17.2044 10.91 16.9991C9.58438 15.7953 7.41465 12.6549 6.75237 11.0113C6.64595 10.7617 6.42071 10.1306 6.40625 9.79338C6.40625 9.47029 6.48064 9.16229 6.63149 8.86838C6.84226 8.50201 7.17392 8.2081 7.5655 8.04706C7.83723 7.94339 8.65036 7.78234 8.66483 7.78234C9.55441 7.6213 10.9999 7.53272 12.5972 7.53272C14.1191 7.53272 15.5056 7.6213 16.4087 7.75315C16.4231 7.76825 17.4336 7.92929 17.7797 8.10544C18.412 8.42853 18.8047 9.05962 18.8047 9.735V9.79338C18.7892 10.2332 18.3965 11.1582 18.3821 11.1582C17.7188 12.7133 15.6555 15.7812 14.2844 17.0142C14.2844 17.0142 13.9321 17.3615 13.712 17.5124C13.3959 17.748 13.0043 17.8647 12.6127 17.8647C12.1756 17.8647 11.7686 17.7329 11.4369 17.4833Z" fill="white"/>
</svg>
