<svg width="32" height="33" viewBox="0 0 32 33" fill="none" xmlns="http://www.w3.org/2000/svg">
<path d="M16 32.773C24.8366 32.773 32 25.6096 32 16.773C32 7.93648 24.8366 0.773041 16 0.773041C7.16344 0.773041 0 7.93648 0 16.773C0 25.6096 7.16344 32.773 16 32.773Z" fill="#F7931A"/>
<path d="M23.1892 14.793C23.5032 12.697 21.9062 11.57 19.7242 10.818L20.4322 7.97804L18.7042 7.54804L18.0142 10.313C17.5602 10.199 17.0942 10.093 16.6292 9.98704L17.3242 7.20404L15.5962 6.77304L14.8882 9.61204C14.5122 9.52604 14.1422 9.44204 13.7842 9.35204L13.7862 9.34304L11.4022 8.74804L10.9422 10.594C10.9422 10.594 12.2252 10.888 12.1982 10.906C12.8982 11.081 13.0242 11.544 13.0032 11.912L12.1972 15.147C12.2452 15.159 12.3072 15.177 12.3772 15.204L12.1942 15.159L11.0642 19.691C10.9782 19.903 10.7612 20.222 10.2712 20.101C10.2892 20.126 9.01523 19.788 9.01523 19.788L8.15723 21.766L10.4072 22.327C10.8252 22.432 11.2352 22.542 11.6382 22.645L10.9232 25.517L12.6502 25.947L13.3582 23.107C13.8302 23.234 14.2882 23.352 14.7362 23.464L14.0302 26.292L15.7582 26.722L16.4732 23.856C19.4212 24.414 21.6372 24.189 22.5702 21.523C23.3222 19.377 22.5332 18.138 20.9822 17.331C22.1122 17.071 22.9622 16.328 23.1892 14.793ZM19.2392 20.331C18.7062 22.478 15.0912 21.317 13.9192 21.026L14.8692 17.221C16.0412 17.514 19.7982 18.093 19.2392 20.331ZM19.7742 14.762C19.2872 16.715 16.2792 15.722 15.3042 15.479L16.1642 12.029C17.1392 12.272 20.2822 12.725 19.7742 14.762Z" fill="white"/>
</svg>
