<svg width="32" height="33" viewBox="0 0 32 33" fill="none" xmlns="http://www.w3.org/2000/svg">
<g clip-path="url(#clip0_639_752)">
<path d="M16 32.773C24.8366 32.773 32 25.6096 32 16.773C32 7.93648 24.8366 0.773041 16 0.773041C7.16344 0.773041 0 7.93648 0 16.773C0 25.6096 7.16344 32.773 16 32.773Z" fill="#F3BA2F"/>
<path d="M12.116 15.177L16 11.293L19.886 15.179L22.146 12.919L16 6.77304L9.856 12.917L12.116 15.177ZM6 16.773L8.26 14.513L10.52 16.773L8.26 19.033L6 16.773ZM12.116 18.369L16 22.253L19.886 18.367L22.146 20.626L16 26.773L9.856 20.629L9.853 20.626L12.116 18.369ZM21.48 16.773L23.74 14.513L26 16.773L23.74 19.033L21.48 16.773ZM18.292 16.771H18.294V16.773L16 19.067L13.709 16.777L13.705 16.773L13.709 16.77L14.11 16.368L14.305 16.173L16 14.479L18.293 16.772L18.292 16.771Z" fill="white"/>
</g>
<defs>
<clipPath id="clip0_639_752">
<rect width="32" height="32" fill="white" transform="translate(0 0.773041)"/>
</clipPath>
</defs>
</svg>
