<svg width="254" height="85" viewBox="0 0 254 85" fill="none" xmlns="http://www.w3.org/2000/svg">
<path d="M1.81516 71.9926H0.525391V84.7304H252.46V50.149C247.183 53.1689 242.875 41.3746 233.013 43.8073C223.151 46.24 227.127 61.3392 220.53 63.2686C213.933 65.1979 210.857 68.6372 209.684 67.4628C208.512 66.2884 207.925 64.6107 204.26 65.4495C200.596 66.2884 199.863 63.4363 198.69 61.6747C197.517 59.9132 196.508 54.1251 193.576 55.4673C190.644 56.8094 189.034 46.9949 186.395 45.5689C183.756 44.1429 181.958 59.0821 178.743 56.2403C175.966 53.7861 173.916 56.8933 172.596 53.7896C171.277 50.6858 167.905 51.8602 165.413 50.4342C162.921 49.0082 164.094 44.9817 162.628 43.8073C161.162 42.6329 158.67 44.2267 157.057 45.5689C155.445 46.911 155.885 46.5755 152.513 45.5689C149.141 44.5623 144.304 51.0214 141.812 51.8602C139.32 52.6991 140.346 49.4276 138.44 48.421C136.534 47.4144 135.948 50.0987 133.163 49.4276C130.377 48.7565 128.765 42.2974 127.592 40.7875C126.419 39.2775 125.98 39.2775 122.608 40.1164C119.236 40.9552 117.624 39.5292 116.891 38.0193C116.158 36.5093 116.304 36.3416 111.467 36.6771C106.629 37.0127 105.75 34.7478 104.43 32.0635C103.111 29.3792 98.1269 30.4697 95.4883 30.1341C92.8496 29.7986 95.195 27.5337 94.0223 26.6109C92.8496 25.6882 92.703 26.6109 90.0643 26.6109C87.9534 26.6109 87.9143 25.9399 88.1586 25.6043C87.9631 14.3638 87.0173 6.7864 85.9618 1.61911C84.6424 -4.84001 85.3733 26.6109 81.8551 26.6109C79.0405 26.6109 78.0436 28.5123 77.897 29.463C77.9459 35.2511 78.0143 47.1459 77.897 48.421C77.7505 50.0148 76.8709 50.602 72.3265 51.0214C67.7821 51.4408 67.4889 55.3834 63.9707 56.8933C60.4525 58.4032 60.5991 53.1185 59.7195 51.6086C58.8399 50.0987 57.9604 52.3635 56.4944 53.1185C55.0285 53.8735 55.1751 52.9507 52.8296 51.6086C50.4841 50.2664 43.4477 61.9264 42.4215 63.2686C41.3953 64.6107 40.2226 64.2752 38.0237 63.2686C35.8248 62.2619 27.6156 69.5599 27.0292 70.3149C26.4428 71.0698 24.8303 70.3149 22.6314 69.5599C20.8723 68.9559 20.0416 69.8116 19.8461 70.3149C20.0416 70.8741 19.377 71.9926 15.1552 71.9926C9.87781 71.9926 11.3437 72.5798 8.55847 73.5025C6.33026 74.2407 3.13451 72.8035 1.81516 71.9926Z" fill="url(#paint0_linear_639_615)"/>
<path d="M1.11768 72.8167H1.71332C3.03266 73.6276 5.91663 75.1054 8.14484 74.3672C10.9301 73.4445 9.46418 72.8573 14.7415 72.8573C18.9634 72.8573 19.628 71.7388 19.4325 71.1796C19.628 70.6763 20.4587 69.8207 22.2178 70.4246C24.4167 71.1796 26.0292 71.9346 26.6156 71.1796C27.202 70.4246 35.4112 63.1267 37.6101 64.1333C39.809 65.1399 40.9817 65.4755 42.0079 64.1333C43.034 62.7911 50.0705 51.1312 52.416 52.4733C54.7615 53.8155 54.6149 54.7382 56.0808 53.9832C57.5467 53.2283 58.4263 50.9634 59.3059 52.4733C60.1854 53.9832 60.0388 59.268 63.5571 57.7581C67.0753 56.2481 67.3685 52.3056 71.9129 51.8861C76.4573 51.4667 77.3368 50.8795 77.4834 49.2857C77.6007 48.0107 77.5323 36.1158 77.4834 30.3278C77.63 29.3771 78.6269 27.4757 81.4415 27.4757C84.9597 27.4757 84.2288 -3.97526 85.5482 2.48385C86.6036 7.65115 87.5495 15.2285 87.7449 26.4691C87.5006 26.8046 87.5397 27.4757 89.6507 27.4757C92.2893 27.4757 92.4359 26.553 93.6087 27.4757C94.7814 28.3984 92.436 30.6633 95.0746 30.9989C97.7133 31.3344 102.697 30.2439 104.017 32.9282C105.336 35.6125 106.216 37.8774 111.053 37.5419C115.891 37.2063 115.744 37.3741 116.477 38.884C117.21 40.3939 118.823 41.82 122.194 40.9811C125.566 40.1423 126.006 40.1423 127.179 41.6522C128.351 43.1621 129.964 49.6212 132.749 50.2923C135.534 50.9634 136.121 48.2791 138.026 49.2857C139.932 50.2923 138.906 53.5638 141.398 52.725C143.89 51.8861 148.728 45.427 152.099 46.4336C155.471 47.4402 155.031 47.7758 156.644 46.4336C158.256 45.0915 160.748 43.4977 162.214 44.672C163.68 45.8464 162.507 49.8729 165 51.2989C167.492 52.725 170.863 51.5506 172.183 54.6543C173.502 57.7581 175.552 54.6509 178.329 57.105C181.545 59.9469 183.343 45.0076 185.981 46.4336C188.62 47.8597 190.23 57.6742 193.162 56.332C196.094 54.9899 197.103 60.7779 198.276 62.5395C199.449 64.3011 200.182 67.1531 203.847 66.3143C207.512 65.4754 208.098 67.1531 209.271 68.3275C210.443 69.5019 213.52 66.0626 220.117 64.1333C226.713 62.204 223.656 47.1047 233.518 44.672C243.38 42.2394 246.941 53.3825 252.218 50.3627" stroke="#0CAF60" stroke-width="2.02163" stroke-linecap="round"/>
<defs>
<linearGradient id="paint0_linear_639_615" x1="126.801" y1="-2.23334" x2="128.961" y2="81.3286" gradientUnits="userSpaceOnUse">
<stop stop-color="#12BE73"/>
<stop offset="1" stop-color="#161D26" stop-opacity="0"/>
</linearGradient>
</defs>
</svg>
