<svg width="19" height="19" viewBox="0 0 19 19" fill="none" xmlns="http://www.w3.org/2000/svg">
<path d="M9.22215 0.700378C14.2152 0.700378 18.2626 4.74781 18.2626 9.74088C18.2626 14.734 14.2152 18.7814 9.22215 18.7814C4.22907 18.7814 0.181641 14.734 0.181641 9.74088H1.98974C1.98974 13.735 5.22805 16.9733 9.22215 16.9733C13.2162 16.9733 16.4545 13.735 16.4545 9.74088C16.4545 5.74679 13.2162 2.50848 9.22215 2.50848C6.73601 2.50848 4.54278 3.7624 3.24185 5.67266H5.60594V7.48076H0.181641V2.05645H1.98974V4.31658C3.63873 2.11974 6.265 0.700378 9.22215 0.700378ZM10.1262 5.22063V9.3657L13.058 12.2975L11.7788 13.5768L8.3181 10.1143V5.22063H10.1262Z" fill="white"/>
</svg>
