<svg width="23" height="23" viewBox="0 0 23 23" fill="none" xmlns="http://www.w3.org/2000/svg">
<g clip-path="url(#clip0_1_3654)">
<path d="M11.2221 2.70038C16.2152 2.70038 20.2626 6.74781 20.2626 11.7409C20.2626 16.734 16.2152 20.7814 11.2221 20.7814C6.22907 20.7814 2.18164 16.734 2.18164 11.7409H3.98974C3.98974 15.735 7.22805 18.9733 11.2221 18.9733C15.2162 18.9733 18.4545 15.735 18.4545 11.7409C18.4545 7.74679 15.2162 4.50848 11.2221 4.50848C8.73601 4.50848 6.54278 5.7624 5.24185 7.67266H7.60594V9.48076H2.18164V4.05645H3.98974V6.31658C5.63873 4.11974 8.265 2.70038 11.2221 2.70038ZM12.1262 7.22063V11.3657L15.058 14.2975L13.7788 15.5768L10.3181 12.1143V7.22063H12.1262Z" fill="white"/>
</g>
<defs>
<clipPath id="clip0_1_3654">
<rect width="21.6972" height="21.6972" fill="white" transform="translate(0.373535 0.892395)"/>
</clipPath>
</defs>
</svg>
