<svg width="23" height="23" viewBox="0 0 23 23" fill="none" xmlns="http://www.w3.org/2000/svg">
<g clip-path="url(#clip0_1_3657)">
<path d="M3.48817 16.261C3.106 15.6002 2.80892 14.8936 2.604 14.1582C3.04998 13.9314 3.42452 13.5856 3.68618 13.1591C3.94784 12.7327 4.08643 12.2421 4.08662 11.7418C4.08681 11.2414 3.94858 10.7508 3.68724 10.3241C3.42589 9.89747 3.05162 9.55141 2.60581 9.32425C3.01448 7.84657 3.79259 6.49724 4.86684 5.40339C5.28641 5.67616 5.77326 5.82753 6.27353 5.84075C6.77379 5.85396 7.26796 5.72851 7.70134 5.47827C8.13472 5.22803 8.49042 4.86276 8.72906 4.42289C8.96771 3.98302 9.08 3.48569 9.0535 2.98596C10.5381 2.6023 12.0958 2.60292 13.5801 2.98776C13.5538 3.48749 13.6663 3.98474 13.9052 4.42449C14.144 4.86424 14.4998 5.22933 14.9333 5.47938C15.3668 5.72943 15.861 5.85468 16.3612 5.84126C16.8614 5.82785 17.3482 5.6763 17.7676 5.40339C18.2911 5.93678 18.7558 6.54339 19.1463 7.22053C19.5378 7.89766 19.8307 8.60373 20.0305 9.32335C19.5845 9.55018 19.21 9.89595 18.9483 10.3224C18.6866 10.7489 18.5481 11.2394 18.5479 11.7398C18.5477 12.2401 18.6859 12.7308 18.9472 13.1574C19.2086 13.5841 19.5829 13.9301 20.0287 14.1573C19.62 15.635 18.8419 16.9843 17.7676 18.0782C17.3481 17.8054 16.8612 17.654 16.361 17.6408C15.8607 17.6276 15.3665 17.753 14.9331 18.0033C14.4998 18.2535 14.1441 18.6188 13.9054 19.0587C13.6668 19.4985 13.5545 19.9959 13.581 20.4956C12.0964 20.8793 10.5386 20.8786 9.0544 20.4938C9.08066 19.9941 8.96816 19.4968 8.72933 19.0571C8.4905 18.6173 8.13466 18.2522 7.7012 18.0022C7.26773 17.7521 6.77353 17.6269 6.2733 17.6403C5.77306 17.6537 5.28629 17.8053 4.86684 18.0782C4.33254 17.533 3.86931 16.9224 3.48817 16.261ZM8.60509 16.4382C9.56847 16.9939 10.2928 17.8856 10.6392 18.9424C11.0903 18.9849 11.5433 18.9858 11.9944 18.9433C12.341 17.8864 13.0657 16.9946 14.0294 16.4391C14.9924 15.882 16.1273 15.7001 17.2162 15.9283C17.4783 15.5595 17.7044 15.1662 17.8924 14.7549C17.1506 13.9263 16.7407 12.853 16.7415 11.7408C16.7415 10.6017 17.1665 9.53761 17.8924 8.72668C17.703 8.31547 17.4761 7.92264 17.2144 7.55322C16.1261 7.78132 14.992 7.59976 14.0294 7.04333C13.066 6.48768 12.3417 5.59593 11.9953 4.53911C11.5442 4.49662 11.0912 4.49572 10.6401 4.53821C10.2935 5.59518 9.56881 6.48694 8.60509 7.04243C7.64208 7.59961 6.50722 7.78151 5.41831 7.55322C5.15665 7.92233 4.93025 8.31521 4.74208 8.72668C5.48392 9.55529 5.89374 10.6286 5.89294 11.7408C5.89294 12.8799 5.46804 13.944 4.74208 14.7549C4.93146 15.1661 5.15843 15.5589 5.42012 15.9283C6.50834 15.7002 7.64247 15.8818 8.60509 16.4382ZM11.3172 14.4529C10.5979 14.4529 9.90809 14.1672 9.39946 13.6586C8.89083 13.1499 8.60509 12.4601 8.60509 11.7408C8.60509 11.0215 8.89083 10.3316 9.39946 9.823C9.90809 9.31437 10.5979 9.02863 11.3172 9.02863C12.0366 9.02863 12.7264 9.31437 13.235 9.823C13.7437 10.3316 14.0294 11.0215 14.0294 11.7408C14.0294 12.4601 13.7437 13.1499 13.235 13.6586C12.7264 14.1672 12.0366 14.4529 11.3172 14.4529ZM11.3172 12.6448C11.557 12.6448 11.787 12.5496 11.9565 12.38C12.126 12.2105 12.2213 11.9805 12.2213 11.7408C12.2213 11.501 12.126 11.2711 11.9565 11.1015C11.787 10.932 11.557 10.8367 11.3172 10.8367C11.0775 10.8367 10.8475 10.932 10.678 11.1015C10.5084 11.2711 10.4132 11.501 10.4132 11.7408C10.4132 11.9805 10.5084 12.2105 10.678 12.38C10.8475 12.5496 11.0775 12.6448 11.3172 12.6448Z" fill="#F0F4F7"/>
</g>
<defs>
<clipPath id="clip0_1_3657">
<rect width="21.6972" height="21.6972" fill="white" transform="translate(0.469238 0.892395)"/>
</clipPath>
</defs>
</svg>
