<svg width="37" height="37" viewBox="0 0 37 37" fill="none" xmlns="http://www.w3.org/2000/svg">
<g clip-path="url(#clip0_725_1106)">
<path fill-rule="evenodd" clip-rule="evenodd" d="M18.1116 0.493713C28.1336 0.493713 36.2561 8.58196 36.2561 18.5617C36.2561 28.5414 28.1336 36.6297 18.1116 36.6297C8.08956 36.6297 -0.032959 28.5414 -0.032959 18.5617C-0.032959 8.58196 8.08956 0.493713 18.1116 0.493713Z" fill="url(#paint0_radial_725_1106)"/>
<path d="M11.4992 14.4465C15.1494 10.8964 21.0747 10.8964 24.7249 14.4465L25.1643 14.877C25.3486 15.0535 25.3486 15.3428 25.1643 15.5193L23.6617 16.9802C23.5696 17.072 23.4207 17.072 23.3286 16.9802L22.7261 16.3944C20.1746 13.9172 16.0495 13.9172 13.4979 16.3944L12.853 17.0226C12.7608 17.1143 12.612 17.1143 12.5198 17.0226L11.0172 15.5616C10.833 15.3852 10.833 15.0958 11.0172 14.9194L11.4992 14.4465ZM27.8364 17.4672L29.1759 18.7659C29.3602 18.9423 29.3602 19.2317 29.1759 19.4081L23.1443 25.2732C22.96 25.4496 22.6623 25.4496 22.4852 25.2732L18.2042 21.1091C18.1616 21.0667 18.0837 21.0667 18.0412 21.1091L13.7602 25.2732C13.5759 25.4496 13.2782 25.4496 13.101 25.2732L7.04812 19.4081C6.86384 19.2317 6.86384 18.9423 7.04812 18.7659L8.3877 17.4672C8.57198 17.2908 8.86966 17.2908 9.04686 17.4672L13.3278 21.6313C13.3704 21.6737 13.4483 21.6737 13.4908 21.6313L17.7718 17.4672C17.9561 17.2908 18.2538 17.2908 18.431 17.4672L22.712 21.6313C22.7545 21.6737 22.8325 21.6737 22.875 21.6313L27.156 17.4672C27.3544 17.2908 27.6521 17.2908 27.8364 17.4672Z" fill="white"/>
</g>
<defs>
<radialGradient id="paint0_radial_725_1106" cx="0" cy="0" r="1" gradientUnits="userSpaceOnUse" gradientTransform="translate(-0.0328465 18.5623) scale(36.2891 36.136)">
<stop stop-color="#5D9DF6"/>
<stop offset="1" stop-color="#006FFF"/>
</radialGradient>
<clipPath id="clip0_725_1106">
<rect width="36.9637" height="36.2245" fill="white" transform="translate(0 0.448975)"/>
</clipPath>
</defs>
</svg>
