<svg width="100" height="101" viewBox="0 0 100 101" fill="none" xmlns="http://www.w3.org/2000/svg">
<path d="M37.4998 79.2741C37.4998 82.3991 36.6248 85.3574 35.0832 87.8574C32.2082 92.6907 26.9165 95.9408 20.8332 95.9408C14.7498 95.9408 9.45818 92.6907 6.58318 87.8574C5.04151 85.3574 4.1665 82.3991 4.1665 79.2741C4.1665 70.0658 11.6248 62.6074 20.8332 62.6074C30.0415 62.6074 37.4998 70.0658 37.4998 79.2741Z" stroke="#1B3254" stroke-width="5.31921" stroke-miterlimit="10" stroke-linecap="round" stroke-linejoin="round"/>
<path d="M14.3389 79.2721L18.4639 83.397L27.3389 75.1888" stroke="#1B3254" stroke-width="5.31921" stroke-linecap="round" stroke-linejoin="round"/>
<path d="M73.964 29.4823C72.964 29.3156 71.9224 29.274 70.839 29.274H29.1724C28.0057 29.274 26.8807 29.3573 25.7974 29.524C26.3807 28.3573 27.214 27.2741 28.214 26.2741L41.7557 12.6908C47.464 7.0241 56.714 7.0241 62.4224 12.6908L69.714 20.0656C72.3807 22.6906 73.7974 26.024 73.964 29.4823Z" stroke="#1B3254" stroke-width="5.31921" stroke-linecap="round" stroke-linejoin="round"/>
<path d="M91.6668 50.1074V70.9407C91.6668 83.4407 83.3335 91.7741 70.8335 91.7741H31.7918C33.0835 90.6907 34.2085 89.3574 35.0835 87.8574C36.6252 85.3574 37.5002 82.3991 37.5002 79.2741C37.5002 70.0657 30.0418 62.6074 20.8335 62.6074C15.8335 62.6074 11.3752 64.8157 8.3335 68.274V50.1074C8.3335 38.7741 15.1668 30.8574 25.7918 29.5241C26.8752 29.3574 28.0002 29.2741 29.1668 29.2741H70.8335C71.9168 29.2741 72.9585 29.3157 73.9585 29.4824C84.7085 30.7324 91.6668 38.6907 91.6668 50.1074Z" stroke="#1B3254" stroke-width="5.31921" stroke-linecap="round" stroke-linejoin="round"/>
<path d="M91.6668 52.1908H79.1668C74.5835 52.1908 70.8335 55.9408 70.8335 60.5241C70.8335 65.1074 74.5835 68.8574 79.1668 68.8574H91.6668" stroke="#1B3254" stroke-width="5.31921" stroke-linecap="round" stroke-linejoin="round"/>
</svg>
