<svg width="46" height="46" viewBox="0 0 46 46" fill="none" xmlns="http://www.w3.org/2000/svg">
<rect x="0.765173" y="0.710913" width="44.1744" height="44.1744" rx="22.0872" stroke="url(#paint0_linear_644_607)" stroke-width="1.01081"/>
<path d="M22.4973 38.6164C31.4294 38.6164 38.6703 31.3755 38.6703 22.4434C38.6703 13.5112 31.4294 6.27032 22.4973 6.27032C13.5651 6.27032 6.32422 13.5112 6.32422 22.4434C6.32422 31.3755 13.5651 38.6164 22.4973 38.6164Z" fill="#F7931A"/>
<path d="M29.7638 20.4419C30.0812 18.3192 28.4669 17.1841 26.2613 16.424L26.977 13.5532L25.2263 13.1186L24.5288 15.9135C24.0699 15.7983 23.5988 15.6911 23.1288 15.584L23.8313 12.7709L22.0927 12.3352L21.3771 15.2049C20.997 15.118 20.623 15.0331 20.2652 14.9421V14.933L17.8554 14.3265L17.3904 16.1925C17.3904 16.1925 18.6873 16.4897 18.66 16.5078C18.9011 16.5392 19.1203 16.6637 19.2707 16.8547C19.4211 17.0458 19.4907 17.2881 19.4646 17.5298L18.656 20.7998C18.7177 20.8152 18.7785 20.8345 18.8379 20.8574L18.6529 20.8119L17.5107 25.3929C17.4854 25.4728 17.4446 25.547 17.3906 25.6111C17.3366 25.6753 17.2705 25.7281 17.196 25.7666C17.1215 25.8051 17.0402 25.8285 16.9566 25.8355C16.8731 25.8425 16.789 25.8329 16.7091 25.8073C16.7273 25.8326 15.4395 25.491 15.4395 25.491L14.5723 27.4903L16.8466 28.0574C17.2691 28.1585 17.6836 28.2747 18.0909 28.3789L17.3682 31.2819L19.1139 31.7166L19.8295 28.8459C20.3066 28.9742 20.7696 29.0935 21.2224 29.2067L20.5088 32.0653L22.2555 32.4999L22.9782 29.603C25.9581 30.167 28.198 29.9396 29.1442 27.2447C29.9043 25.0755 29.1068 23.8231 27.539 23.0074C28.1419 22.8861 28.6878 22.5687 29.0913 22.1046C29.4949 21.6405 29.7335 21.0559 29.7699 20.4419H29.7638ZM25.7711 26.0398C25.2323 28.21 21.5782 27.0365 20.3935 26.7423L21.3538 22.8962C22.5385 23.1924 26.3381 23.7776 25.7711 26.0398ZM26.3119 20.4106C25.8196 22.3847 22.7791 21.381 21.7935 21.1354L22.6628 17.648C23.6484 17.8937 26.8254 18.3556 26.3119 20.4106Z" fill="white"/>
<defs>
<linearGradient id="paint0_linear_644_607" x1="22.8524" y1="0.205505" x2="22.8524" y2="45.3908" gradientUnits="userSpaceOnUse">
<stop stop-color="#F7931A"/>
<stop offset="1" stop-color="#F7931A" stop-opacity="0"/>
</linearGradient>
</defs>
</svg>
