<svg width="37" height="37" viewBox="0 0 37 37" fill="none" xmlns="http://www.w3.org/2000/svg">
<g clip-path="url(#clip0_725_1094)">
<path d="M18.1122 0.224487C28.1131 0.224487 36.2245 8.33587 36.2245 18.3367C36.2245 28.3376 28.1131 36.449 18.1122 36.449C8.11138 36.449 0 28.3376 0 18.3367C0 8.33587 8.11138 0.224487 18.1122 0.224487Z" fill="#0059E7"/>
<path d="M18.1181 24.705C14.6 24.705 11.7513 21.8548 11.7513 18.3367C11.7513 14.8186 14.6015 11.9699 18.1181 11.9699C21.2697 11.9699 23.8865 14.268 24.3908 17.276H30.8054C30.2635 10.7383 24.7936 5.60162 18.1181 5.60162C11.0877 5.60162 5.38306 11.3063 5.38306 18.3367C5.38306 25.3671 11.0877 31.0718 18.1181 31.0718C24.7936 31.0718 30.2649 25.9351 30.8054 19.3974H24.385C23.8807 22.4069 21.2697 24.705 18.1181 24.705Z" fill="white"/>
</g>
<defs>
<clipPath id="clip0_725_1094">
<rect width="36.2245" height="36.2245" fill="white" transform="translate(0 0.224487)"/>
</clipPath>
</defs>
</svg>
