<svg width="17" height="17" viewBox="0 0 17 17" fill="none" xmlns="http://www.w3.org/2000/svg">
<path fill-rule="evenodd" clip-rule="evenodd" d="M5.70408 7.28641C5.96382 7.54615 6.38495 7.54615 6.64469 7.28641L8.50227 5.42883L10.3598 7.28641C10.6196 7.54615 11.0407 7.54615 11.3004 7.28641C11.5602 7.02667 11.5602 6.60555 11.3004 6.3458L8.97257 4.01793C8.71283 3.75818 8.2917 3.75818 8.03196 4.01793L5.70408 6.34581C5.44434 6.60555 5.44434 7.02667 5.70408 7.28641Z" fill="#777E91"/>
<path fill-rule="evenodd" clip-rule="evenodd" d="M5.70408 9.67135C5.96382 9.41161 6.38495 9.41161 6.64469 9.67135L8.50227 11.5289L10.3598 9.67135C10.6196 9.41161 11.0407 9.41161 11.3004 9.67135C11.5602 9.93109 11.5602 10.3522 11.3004 10.612L8.97257 12.9398C8.71283 13.1996 8.2917 13.1996 8.03196 12.9398L5.70408 10.612C5.44434 10.3522 5.44434 9.93109 5.70408 9.67135Z" fill="#777E91"/>
</svg>
