<svg width="37" height="37" viewBox="0 0 37 37" fill="none" xmlns="http://www.w3.org/2000/svg">
<rect width="36.2245" height="36.2245" rx="18.1122" fill="#7E6854"/>
<g clip-path="url(#clip0_725_1058)">
<path d="M27.5692 9.30804L19.6887 15.1028L21.1463 11.6839L27.5692 9.30804Z" fill="#E2761B" stroke="#E2761B" stroke-width="0.331726" stroke-linecap="round" stroke-linejoin="round"/>
<path d="M9.3772 9.30804L17.1943 15.1577L15.808 11.6839L9.3772 9.30804Z" fill="#E4761B" stroke="#E4761B" stroke-width="0.331726" stroke-linecap="round" stroke-linejoin="round"/>
<path d="M24.7337 22.7405L22.635 25.9243L27.1257 27.1473L28.4167 22.8111L24.7337 22.7405Z" fill="#E4761B" stroke="#E4761B" stroke-width="0.331726" stroke-linecap="round" stroke-linejoin="round"/>
<path d="M8.54541 22.8111L9.82847 27.1473L14.3192 25.9243L12.2205 22.7405L8.54541 22.8111Z" fill="#E4761B" stroke="#E4761B" stroke-width="0.331726" stroke-linecap="round" stroke-linejoin="round"/>
<path d="M14.0658 17.3611L12.8142 19.2355L17.273 19.4316L17.1148 14.6874L14.0658 17.3611Z" fill="#E4761B" stroke="#E4761B" stroke-width="0.331726" stroke-linecap="round" stroke-linejoin="round"/>
<path d="M22.8804 17.3612L19.7919 14.6326L19.6887 19.4316L24.14 19.2356L22.8804 17.3612Z" fill="#E4761B" stroke="#E4761B" stroke-width="0.331726" stroke-linecap="round" stroke-linejoin="round"/>
<path d="M14.3193 25.9243L16.9962 24.6303L14.6835 22.8423L14.3193 25.9243Z" fill="#E4761B" stroke="#E4761B" stroke-width="0.331726" stroke-linecap="round" stroke-linejoin="round"/>
<path d="M19.9504 24.6303L22.6353 25.9243L22.2631 22.8423L19.9504 24.6303Z" fill="#E4761B" stroke="#E4761B" stroke-width="0.331726" stroke-linecap="round" stroke-linejoin="round"/>
<path d="M22.6353 25.9244L19.9504 24.6303L20.1644 26.3635L20.1405 27.0925L22.6353 25.9244Z" fill="#D7C1B3" stroke="#D7C1B3" stroke-width="0.331726" stroke-linecap="round" stroke-linejoin="round"/>
<path d="M14.3193 25.9244L16.8141 27.0925L16.7982 26.3635L16.9962 24.6303L14.3193 25.9244Z" fill="#D7C1B3" stroke="#D7C1B3" stroke-width="0.331726" stroke-linecap="round" stroke-linejoin="round"/>
<path d="M16.8535 21.6977L14.6201 21.0468L16.196 20.3331L16.8535 21.6977Z" fill="#233447" stroke="#233447" stroke-width="0.331726" stroke-linecap="round" stroke-linejoin="round"/>
<path d="M20.0928 21.6977L20.7502 20.3331L22.3341 21.0468L20.0928 21.6977Z" fill="#233447" stroke="#233447" stroke-width="0.331726" stroke-linecap="round" stroke-linejoin="round"/>
<path d="M14.3194 25.9243L14.6996 22.7405L12.2207 22.8111L14.3194 25.9243Z" fill="#CD6116" stroke="#CD6116" stroke-width="0.331726" stroke-linecap="round" stroke-linejoin="round"/>
<path d="M22.2546 22.7405L22.6348 25.9243L24.7335 22.8111L22.2546 22.7405Z" fill="#CD6116" stroke="#CD6116" stroke-width="0.331726" stroke-linecap="round" stroke-linejoin="round"/>
<path d="M24.14 19.2355L19.6887 19.4316L20.1007 21.6978L20.7582 20.3331L22.3421 21.0468L24.14 19.2355Z" fill="#CD6116" stroke="#CD6116" stroke-width="0.331726" stroke-linecap="round" stroke-linejoin="round"/>
<path d="M14.6201 21.0468L16.204 20.3331L16.8535 21.6978L17.273 19.4316L12.8142 19.2355L14.6201 21.0468Z" fill="#CD6116" stroke="#CD6116" stroke-width="0.331726" stroke-linecap="round" stroke-linejoin="round"/>
<path d="M12.8142 19.2355L14.6834 22.8423L14.6201 21.0468L12.8142 19.2355Z" fill="#E4751F" stroke="#E4751F" stroke-width="0.331726" stroke-linecap="round" stroke-linejoin="round"/>
<path d="M22.342 21.0468L22.2627 22.8423L24.1399 19.2355L22.342 21.0468Z" fill="#E4751F" stroke="#E4751F" stroke-width="0.331726" stroke-linecap="round" stroke-linejoin="round"/>
<path d="M17.2731 19.4316L16.8535 21.6977L17.3763 24.3714L17.495 20.8507L17.2731 19.4316Z" fill="#E4751F" stroke="#E4751F" stroke-width="0.331726" stroke-linecap="round" stroke-linejoin="round"/>
<path d="M19.6887 19.4316L19.4751 20.8428L19.5699 24.3714L20.1007 21.6977L19.6887 19.4316Z" fill="#E4751F" stroke="#E4751F" stroke-width="0.331726" stroke-linecap="round" stroke-linejoin="round"/>
<path d="M20.1008 21.6978L19.5701 24.3715L19.9502 24.6303L22.2629 22.8423L22.3422 21.0468L20.1008 21.6978Z" fill="#F6851B" stroke="#F6851B" stroke-width="0.331726" stroke-linecap="round" stroke-linejoin="round"/>
<path d="M14.6201 21.0468L14.6835 22.8423L16.9962 24.6303L17.3763 24.3715L16.8535 21.6978L14.6201 21.0468Z" fill="#F6851B" stroke="#F6851B" stroke-width="0.331726" stroke-linecap="round" stroke-linejoin="round"/>
<path d="M20.1401 27.0925L20.164 26.3634L19.966 26.1906H16.9803L16.7982 26.3634L16.8141 27.0925L14.3193 25.9243L15.1904 26.6297L16.9564 27.8453H19.9899L21.7639 26.6297L22.6349 25.9243L20.1401 27.0925Z" fill="#C0AD9E" stroke="#C0AD9E" stroke-width="0.331726" stroke-linecap="round" stroke-linejoin="round"/>
<path d="M19.95 24.6303L19.5698 24.3715H17.3763L16.9961 24.6303L16.7981 26.3634L16.9802 26.1906H19.9659L20.1639 26.3634L19.95 24.6303Z" fill="#161616" stroke="#161616" stroke-width="0.331726" stroke-linecap="round" stroke-linejoin="round"/>
<path d="M27.9022 15.4792L28.5752 12.28L27.5695 9.30804L19.9504 14.9068L22.8808 17.3611L27.0228 18.5609L27.9417 17.5024L27.5456 17.2203L28.1792 16.6478L27.6882 16.2714L28.3218 15.7929L27.9022 15.4792Z" fill="#763D16" stroke="#763D16" stroke-width="0.331726" stroke-linecap="round" stroke-linejoin="round"/>
<path d="M8.37964 12.28L9.05265 15.4792L8.62509 15.7929L9.25865 16.2714L8.77571 16.6478L9.40927 17.2203L9.0132 17.5024L9.92409 18.5609L14.0661 17.3611L16.9965 14.9068L9.3774 9.30804L8.37964 12.28Z" fill="#763D16" stroke="#763D16" stroke-width="0.331726" stroke-linecap="round" stroke-linejoin="round"/>
<path d="M27.0224 18.5609L22.8803 17.3611L24.1399 19.2355L22.2627 22.8423L24.7336 22.8111H28.4166L27.0224 18.5609Z" fill="#F6851B" stroke="#F6851B" stroke-width="0.331726" stroke-linecap="round" stroke-linejoin="round"/>
<path d="M14.0658 17.3611L9.9237 18.5609L8.54541 22.8111H12.2205L14.6834 22.8423L12.8142 19.2355L14.0658 17.3611Z" fill="#F6851B" stroke="#F6851B" stroke-width="0.331726" stroke-linecap="round" stroke-linejoin="round"/>
<path d="M19.6888 19.4316L19.9502 14.9068L21.1543 11.6839H15.8081L16.9963 14.9068L17.2733 19.4316L17.3685 20.8586L17.3765 24.3715H19.57L19.586 20.8586L19.6888 19.4316Z" fill="#F6851B" stroke="#F6851B" stroke-width="0.331726" stroke-linecap="round" stroke-linejoin="round"/>
</g>
<defs>
<clipPath id="clip0_725_1058">
<rect width="20.2353" height="18.5767" fill="white" transform="translate(8.35962 9.28833)"/>
</clipPath>
</defs>
</svg>
