<svg width="32" height="33" viewBox="0 0 32 33" fill="none" xmlns="http://www.w3.org/2000/svg">
<g clip-path="url(#clip0_639_766)">
<path d="M16 32.773C24.8366 32.773 32 25.6096 32 16.773C32 7.93648 24.8366 0.773041 16 0.773041C7.16344 0.773041 0 7.93648 0 16.773C0 25.6096 7.16344 32.773 16 32.773Z" fill="#6F41D8"/>
<path d="M21.0921 13.466C20.7231 13.251 20.2441 13.251 19.8381 13.466L16.9591 15.12L15.0041 16.198L12.1251 17.851C11.7561 18.067 11.2771 18.067 10.8711 17.851L8.58306 16.557C8.21406 16.342 7.95606 15.947 7.95606 15.515V12.963C7.95606 12.532 8.17706 12.137 8.58306 11.921L10.8331 10.663C11.2031 10.447 11.6831 10.447 12.0891 10.663L14.3391 11.921C14.7091 12.137 14.9671 12.532 14.9671 12.963V14.617L16.9221 13.502V11.849C16.9242 11.6343 16.8668 11.4233 16.7561 11.2393C16.6454 11.0553 16.4858 10.9057 16.2951 10.807L12.1251 8.43504C11.7561 8.21904 11.2771 8.21904 10.8711 8.43504L6.62706 10.807C6.43635 10.9057 6.27677 11.0553 6.16607 11.2393C6.05537 11.4233 5.9979 11.6343 6.00006 11.849V16.629C6.00006 17.061 6.22106 17.456 6.62706 17.672L10.8711 20.044C11.2401 20.259 11.7201 20.259 12.1251 20.044L15.0041 18.426L16.9591 17.312L19.8381 15.695C20.2071 15.479 20.6861 15.479 21.0921 15.695L23.3431 16.953C23.7131 17.168 23.9701 17.563 23.9701 17.995V20.547C23.9701 20.978 23.7501 21.373 23.3431 21.589L21.0931 22.883C20.7231 23.099 20.2431 23.099 19.8381 22.883L17.5871 21.625C17.2171 21.409 16.9591 21.014 16.9591 20.583V18.929L15.0041 20.044V21.697C15.0041 22.128 15.2251 22.524 15.6311 22.739L19.8751 25.111C20.2441 25.327 20.7231 25.327 21.1291 25.111L25.3731 22.739C25.7421 22.524 26.0001 22.129 26.0001 21.697V16.917C26.0022 16.7023 25.9448 16.4913 25.8341 16.3073C25.7234 16.1233 25.5638 15.9737 25.3731 15.875L21.0931 13.466H21.0921Z" fill="white"/>
</g>
<defs>
<clipPath id="clip0_639_766">
<rect width="32" height="32" fill="white" transform="translate(0 0.773041)"/>
</clipPath>
</defs>
</svg>
