<svg width="254" height="85" viewBox="0 0 254 85" fill="none" xmlns="http://www.w3.org/2000/svg">
<path d="M2.11399 71.9926H0.824219V84.7304H252.759V50.149C247.482 53.1689 243.174 41.3746 233.312 43.8073C223.449 46.24 227.426 61.3392 220.829 63.2686C214.232 65.1979 211.156 68.6372 209.983 67.4628C208.81 66.2884 208.224 64.6107 204.559 65.4495C200.894 66.2884 200.161 63.4363 198.989 61.6747C197.816 59.9132 196.807 54.1251 193.875 55.4673C190.943 56.8094 189.332 46.9949 186.694 45.5689C184.055 44.1429 182.257 59.0821 179.041 56.2403C176.264 53.7861 174.214 56.8933 172.895 53.7896C171.576 50.6858 168.204 51.8602 165.712 50.4342C163.22 49.0082 164.393 44.9817 162.927 43.8073C161.461 42.6329 158.969 44.2267 157.356 45.5689C155.744 46.911 156.183 46.5755 152.812 45.5689C149.44 44.5623 144.603 51.0214 142.111 51.8602C139.618 52.6991 140.645 49.4276 138.739 48.421C136.833 47.4144 136.247 50.0987 133.462 49.4276C130.676 48.7565 129.064 42.2974 127.891 40.7875C126.718 39.2775 126.278 39.2775 122.907 40.1164C119.535 40.9552 117.923 39.5292 117.19 38.0193C116.457 36.5093 116.603 36.3416 111.766 36.6771C106.928 37.0127 106.049 34.7478 104.729 32.0635C103.41 29.3792 98.4258 30.4697 95.7871 30.1341C93.1484 29.7986 95.4939 27.5337 94.3211 26.6109C93.1484 25.6882 93.0018 26.6109 90.3631 26.6109C88.2522 26.6109 88.2131 25.9399 88.4574 25.6043C88.2619 14.3638 87.3161 6.7864 86.2606 1.61911C84.9413 -4.84001 85.6721 26.6109 82.1539 26.6109C79.3393 26.6109 78.3425 28.5123 78.1959 29.463C78.2447 35.2511 78.3131 47.1459 78.1959 48.421C78.0493 50.0148 77.1697 50.602 72.6253 51.0214C68.081 51.4408 67.7878 55.3834 64.2695 56.8933C60.7513 58.4032 60.8979 53.1185 60.0183 51.6086C59.1388 50.0987 58.2592 52.3635 56.7933 53.1185C55.3273 53.8735 55.4739 52.9507 53.1284 51.6086C50.7829 50.2664 43.7465 61.9264 42.7203 63.2686C41.6942 64.6107 40.5214 64.2752 38.3225 63.2686C36.1236 62.2619 27.9144 69.5599 27.328 70.3149C26.7417 71.0698 25.1291 70.3149 22.9302 69.5599C21.1711 68.9559 20.3404 69.8116 20.145 70.3149C20.3404 70.8741 19.6759 71.9926 15.454 71.9926C10.1766 71.9926 11.6426 72.5798 8.8573 73.5025C6.62908 74.2407 3.43334 72.8035 2.11399 71.9926Z" fill="url(#paint0_linear_639_632)"/>
<path d="M1.4165 72.8167H2.01215C3.33149 73.6276 6.21545 75.1054 8.44367 74.3672C11.2289 73.4445 9.76301 72.8573 15.0404 72.8573C19.2622 72.8573 19.9268 71.7388 19.7313 71.1796C19.9268 70.6763 20.7575 69.8207 22.5166 70.4246C24.7155 71.1796 26.328 71.9346 26.9144 71.1796C27.5008 70.4246 35.71 63.1267 37.9089 64.1333C40.1078 65.1399 41.2805 65.4755 42.3067 64.1333C43.3328 62.7911 50.3693 51.1312 52.7148 52.4733C55.0603 53.8155 54.9137 54.7382 56.3796 53.9832C57.8456 53.2283 58.7251 50.9634 59.6047 52.4733C60.4843 53.9832 60.3377 59.268 63.8559 57.7581C67.3741 56.2481 67.6673 52.3056 72.2117 51.8861C76.7561 51.4667 77.6357 50.8795 77.7822 49.2857C77.8995 48.0107 77.8311 36.1158 77.7822 30.3278C77.9288 29.3771 78.9257 27.4757 81.7403 27.4757C85.2585 27.4757 84.5277 -3.97526 85.847 2.48385C86.9025 7.65115 87.8483 15.2285 88.0438 26.4691C87.7995 26.8046 87.8386 27.4757 89.9495 27.4757C92.5882 27.4757 92.7348 26.553 93.9075 27.4757C95.0802 28.3984 92.7348 30.6633 95.3735 30.9989C98.0121 31.3344 102.996 30.2439 104.316 32.9282C105.635 35.6125 106.515 37.8774 111.352 37.5419C116.19 37.2063 116.043 37.3741 116.776 38.884C117.509 40.3939 119.122 41.82 122.493 40.9811C125.865 40.1423 126.305 40.1423 127.477 41.6522C128.65 43.1621 130.263 49.6212 133.048 50.2923C135.833 50.9634 136.42 48.2791 138.325 49.2857C140.231 50.2923 139.205 53.5638 141.697 52.725C144.189 51.8861 149.027 45.427 152.398 46.4336C155.77 47.4402 155.33 47.7758 156.943 46.4336C158.555 45.0915 161.047 43.4977 162.513 44.672C163.979 45.8464 162.806 49.8729 165.298 51.2989C167.79 52.725 171.162 51.5506 172.481 54.6543C173.801 57.7581 175.851 54.6509 178.628 57.105C181.844 59.9469 183.641 45.0076 186.28 46.4336C188.919 47.8597 190.529 57.6742 193.461 56.332C196.393 54.9899 197.402 60.7779 198.575 62.5395C199.748 64.3011 200.481 67.1531 204.146 66.3143C207.81 65.4754 208.397 67.1531 209.57 68.3275C210.742 69.5019 213.819 66.0626 220.415 64.1333C227.012 62.204 223.955 47.1047 233.817 44.672C243.679 42.2394 247.24 53.3825 252.517 50.3627" stroke="#FF3E46" stroke-width="2.02163" stroke-linecap="round"/>
<defs>
<linearGradient id="paint0_linear_639_632" x1="127.1" y1="-2.23334" x2="129.26" y2="81.3286" gradientUnits="userSpaceOnUse">
<stop stop-color="#BE1212"/>
<stop offset="1" stop-color="#161D26" stop-opacity="0"/>
</linearGradient>
</defs>
</svg>
