<svg width="46" height="46" viewBox="0 0 46 46" fill="none" xmlns="http://www.w3.org/2000/svg">
<rect x="1.06351" y="0.710913" width="44.1744" height="44.1744" rx="22.0872" stroke="url(#paint0_linear_639_623)" stroke-width="1.01081"/>
<g clip-path="url(#clip0_639_623)">
<path d="M22.7956 38.6164C31.7277 38.6164 38.9686 31.3755 38.9686 22.4434C38.9686 13.5112 31.7277 6.27032 22.7956 6.27032C13.8635 6.27032 6.62256 13.5112 6.62256 22.4434C6.62256 31.3755 13.8635 38.6164 22.7956 38.6164Z" fill="#26A17B"/>
<path fill-rule="evenodd" clip-rule="evenodd" d="M24.7384 23.8413V23.8393C24.6272 23.8474 24.0541 23.8818 22.7754 23.8818C21.7545 23.8818 21.0358 23.8514 20.7831 23.8393V23.8423C16.853 23.6695 13.9197 22.9852 13.9197 22.1664C13.9197 21.3487 16.853 20.6643 20.7831 20.4884V23.161C21.0398 23.1792 21.7757 23.2227 22.7926 23.2227C24.0126 23.2227 24.6242 23.1722 24.7384 23.1621V20.4905C28.6604 20.6653 31.5867 21.3497 31.5867 22.1664C31.5867 22.9852 28.6604 23.6675 24.7384 23.8413ZM24.7384 20.2125V17.8209H30.211V14.1739H15.3105V17.8209H20.7831V20.2115C16.3355 20.4157 12.9907 21.2971 12.9907 22.3524C12.9907 23.4077 16.3355 24.2881 20.7831 24.4933V32.1573H24.7384V24.4913C29.1789 24.2871 32.5156 23.4067 32.5156 22.3524C32.5156 21.2981 29.1789 20.4177 24.7384 20.2125Z" fill="white"/>
</g>
<defs>
<linearGradient id="paint0_linear_639_623" x1="23.1507" y1="0.205505" x2="23.1507" y2="45.3908" gradientUnits="userSpaceOnUse">
<stop stop-color="#26A17B"/>
<stop offset="1" stop-color="#26A17B" stop-opacity="0"/>
</linearGradient>
<clipPath id="clip0_639_623">
<rect width="32.3461" height="32.3461" fill="white" transform="translate(6.62256 6.27032)"/>
</clipPath>
</defs>
</svg>
