<svg width="32" height="33" viewBox="0 0 32 33" fill="none" xmlns="http://www.w3.org/2000/svg">
<path d="M16 32.773C24.8366 32.773 32 25.6096 32 16.773C32 7.93648 24.8366 0.773041 16 0.773041C7.16344 0.773041 0 7.93648 0 16.773C0 25.6096 7.16344 32.773 16 32.773Z" fill="#EF0027"/>
<path d="M21.932 10.686L7.5 8.03004L15.095 27.142L25.678 14.248L21.932 10.686ZM21.7 11.856L23.908 13.955L17.87 15.048L21.7 11.856ZM16.558 14.829L10.194 9.55104L20.596 11.465L16.558 14.829ZM16.105 15.763L15.067 24.343L9.472 10.26L16.105 15.762V15.763ZM17.065 16.218L23.752 15.008L16.082 24.351L17.065 16.218Z" fill="white"/>
</svg>
