<svg width="170" height="170" viewBox="0 0 170 170" fill="none" xmlns="http://www.w3.org/2000/svg">
<path d="M68.1005 0.000488281H61.3131V6.78819H68.1005V0.000488281Z" fill="white"/>
<path d="M61.313 6.78955H54.5257V13.5773H61.313V6.78955Z" fill="white"/>
<path d="M108.355 6.78955H101.568V13.5773H108.355V6.78955Z" fill="white"/>
<path d="M114.891 6.78955H108.104V13.5773H114.891V6.78955Z" fill="white"/>
<path d="M68.1005 6.78955H61.3131V13.5773H68.1005V6.78955Z" fill="white"/>
<path d="M81.6753 6.78955H74.888V13.5773H81.6753V6.78955Z" fill="white"/>
<path d="M88.4628 6.78955H81.6755V13.5773H88.4628V6.78955Z" fill="white"/>
<path d="M68.1005 13.5771H61.3131V20.3649H68.1005V13.5771Z" fill="white"/>
<path d="M74.8866 13.5771H68.0993V20.3649H74.8866V13.5771Z" fill="white"/>
<path d="M81.6753 13.5771H74.888V20.3649H81.6753V13.5771Z" fill="white"/>
<path d="M102.036 13.5771H95.2491V20.3649H102.036V13.5771Z" fill="white"/>
<path d="M61.313 20.3643H54.5257V27.152H61.313V20.3643Z" fill="white"/>
<path d="M108.355 20.3643H101.568V27.152H108.355V20.3643Z" fill="white"/>
<path d="M68.1005 20.3643H61.3131V27.152H68.1005V20.3643Z" fill="white"/>
<path d="M81.6753 20.3643H74.888V27.152H81.6753V20.3643Z" fill="white"/>
<path d="M95.249 20.3643H88.4617V27.152H95.249V20.3643Z" fill="white"/>
<path d="M102.036 20.3643H95.2491V27.152H102.036V20.3643Z" fill="white"/>
<path d="M74.8866 27.1523H68.0993V33.94H74.8866V27.1523Z" fill="white"/>
<path d="M88.4628 27.1523H81.6755V33.94H88.4628V27.1523Z" fill="white"/>
<path d="M115.906 27.1523H109.119V33.94H115.906V27.1523Z" fill="white"/>
<path d="M102.036 27.1523H95.2491V33.94H102.036V27.1523Z" fill="white"/>
<path d="M61.313 33.9414H54.5257V40.7291H61.313V33.9414Z" fill="white"/>
<path d="M108.355 33.9414H101.568V40.7291H108.355V33.9414Z" fill="white"/>
<path d="M74.8866 33.9414H68.0993V40.7291H74.8866V33.9414Z" fill="white"/>
<path d="M95.249 33.9414H88.4617V40.7291H95.249V33.9414Z" fill="white"/>
<path d="M61.313 40.729H54.5257V47.5167H61.313V40.729Z" fill="white"/>
<path d="M108.355 40.729H101.568V47.5167H108.355V40.729Z" fill="white"/>
<path d="M74.8866 40.729H68.0993V47.5167H74.8866V40.729Z" fill="white"/>
<path d="M88.4628 40.729H81.6755V47.5167H88.4628V40.729Z" fill="white"/>
<path d="M102.036 40.729H95.2491V47.5167H102.036V40.729Z" fill="white"/>
<path d="M88.4628 47.5166H81.6755V54.3043H88.4628V47.5166Z" fill="white"/>
<path d="M115.906 47.5166H109.119V54.3043H115.906V47.5166Z" fill="white"/>
<path d="M102.036 47.5166H95.2491V54.3043H102.036V47.5166Z" fill="white"/>
<path d="M7.01342 54.3037H0.226105V61.0914H7.01342V54.3037Z" fill="white"/>
<path d="M13.7996 54.3037H7.01227V61.0914H13.7996V54.3037Z" fill="white"/>
<path d="M20.5857 54.3037H13.7984V61.0914H20.5857V54.3037Z" fill="white"/>
<path d="M27.3745 54.3037H20.5872V61.0914H27.3745V54.3037Z" fill="white"/>
<path d="M34.1619 54.3037H27.3746V61.0914H34.1619V54.3037Z" fill="white"/>
<path d="M47.7381 54.3037H40.9508V61.0914H47.7381V54.3037Z" fill="white"/>
<path d="M54.523 54.3037H47.7357V61.0914H54.523V54.3037Z" fill="white"/>
<path d="M61.313 54.3037H54.5257V61.0914H61.313V54.3037Z" fill="white"/>
<path d="M68.1005 54.3037H61.3131V61.0914H68.1005V54.3037Z" fill="white"/>
<path d="M74.8866 54.3037H68.0993V61.0914H74.8866V54.3037Z" fill="white"/>
<path d="M88.4628 54.3037H81.6755V61.0914H88.4628V54.3037Z" fill="white"/>
<path d="M115.906 54.3037H109.119V61.0914H115.906V54.3037Z" fill="white"/>
<path d="M95.249 54.3037H88.4617V61.0914H95.249V54.3037Z" fill="white"/>
<path d="M102.036 54.3037H95.2491V61.0914H102.036V54.3037Z" fill="white"/>
<path d="M13.7996 61.0923H7.01227V67.88H13.7996V61.0923Z" fill="white"/>
<path d="M40.9519 61.0923H34.1646V67.88H40.9519V61.0923Z" fill="white"/>
<path d="M68.1005 61.0923H61.3131V67.88H68.1005V61.0923Z" fill="white"/>
<path d="M20.5857 67.8799H13.7984V74.6676H20.5857V67.8799Z" fill="white"/>
<path d="M27.3745 67.8799H20.5872V74.6676H27.3745V67.8799Z" fill="white"/>
<path d="M40.9519 67.8799H34.1646V74.6676H40.9519V67.8799Z" fill="white"/>
<path d="M47.7381 67.8799H40.9508V74.6676H47.7381V67.8799Z" fill="white"/>
<path d="M54.523 67.8799H47.7357V74.6676H54.523V67.8799Z" fill="white"/>
<path d="M61.313 67.8799H54.5257V74.6676H61.313V67.8799Z" fill="white"/>
<path d="M68.1005 67.8799H61.3131V74.6676H68.1005V67.8799Z" fill="white"/>
<path d="M81.6753 67.8799H74.888V74.6676H81.6753V67.8799Z" fill="white"/>
<path d="M88.4628 67.8799H81.6755V74.6676H88.4628V67.8799Z" fill="white"/>
<path d="M95.249 67.8799H88.4617V74.6676H95.249V67.8799Z" fill="white"/>
<path d="M102.036 67.8799H95.2491V74.6676H102.036V67.8799Z" fill="white"/>
<path d="M108.826 67.8799H102.039V74.6676H108.826V67.8799Z" fill="white"/>
<path d="M115.611 67.8799H108.824V74.6676H115.611V67.8799Z" fill="white"/>
<path d="M122.401 67.8799H115.614V74.6676H122.401V67.8799Z" fill="white"/>
<path d="M129.187 67.8799H122.4V74.6676H129.187V67.8799Z" fill="white"/>
<path d="M142.764 67.8799H135.976V74.6676H142.764V67.8799Z" fill="white"/>
<path d="M149.55 67.8799H142.763V74.6676H149.55V67.8799Z" fill="white"/>
<path d="M163.126 67.8799H156.339V74.6676H163.126V67.8799Z" fill="white"/>
<path d="M169.912 67.8799H163.125V74.6676H169.912V67.8799Z" fill="white"/>
<path d="M20.5857 74.6694H13.7984V81.4571H20.5857V74.6694Z" fill="white"/>
<path d="M27.3745 74.6694H20.5872V81.4571H27.3745V74.6694Z" fill="white"/>
<path d="M61.313 74.6694H54.5257V81.4571H61.313V74.6694Z" fill="white"/>
<path d="M68.1005 74.6694H61.3131V81.4571H68.1005V74.6694Z" fill="white"/>
<path d="M74.8866 74.6694H68.0993V81.4571H74.8866V74.6694Z" fill="white"/>
<path d="M81.6753 74.6694H74.888V81.4571H81.6753V74.6694Z" fill="white"/>
<path d="M108.826 74.6694H102.039V81.4571H108.826V74.6694Z" fill="white"/>
<path d="M115.611 74.6694H108.824V81.4571H115.611V74.6694Z" fill="white"/>
<path d="M122.401 74.6694H115.614V81.4571H122.401V74.6694Z" fill="white"/>
<path d="M129.187 74.6694H122.4V81.4571H129.187V74.6694Z" fill="white"/>
<path d="M135.977 74.6694H129.19V81.4571H135.977V74.6694Z" fill="white"/>
<path d="M142.764 74.6694H135.976V81.4571H142.764V74.6694Z" fill="white"/>
<path d="M169.912 74.6694H163.125V81.4571H169.912V74.6694Z" fill="white"/>
<path d="M40.9519 81.4565H34.1646V88.2442H40.9519V81.4565Z" fill="white"/>
<path d="M47.7381 81.4565H40.9508V88.2442H47.7381V81.4565Z" fill="white"/>
<path d="M68.1005 81.4565H61.3131V88.2442H68.1005V81.4565Z" fill="white"/>
<path d="M81.6753 81.4565H74.888V88.2442H81.6753V81.4565Z" fill="white"/>
<path d="M102.036 81.4565H95.2491V88.2442H102.036V81.4565Z" fill="white"/>
<path d="M108.826 81.4565H102.039V88.2442H108.826V81.4565Z" fill="white"/>
<path d="M122.401 81.4565H115.614V88.2442H122.401V81.4565Z" fill="white"/>
<path d="M129.187 81.4565H122.4V88.2442H129.187V81.4565Z" fill="white"/>
<path d="M142.764 81.4565H135.976V88.2442H142.764V81.4565Z" fill="white"/>
<path d="M156.339 81.4565H149.551V88.2442H156.339V81.4565Z" fill="white"/>
<path d="M163.126 81.4565H156.339V88.2442H163.126V81.4565Z" fill="white"/>
<path d="M169.912 81.4565H163.125V88.2442H169.912V81.4565Z" fill="white"/>
<path d="M7.01342 88.2441H0.226105V95.0318H7.01342V88.2441Z" fill="white"/>
<path d="M13.7996 88.2441H7.01227V95.0318H13.7996V88.2441Z" fill="white"/>
<path d="M20.5857 88.2441H13.7984V95.0318H20.5857V88.2441Z" fill="white"/>
<path d="M34.1619 88.2441H27.3746V95.0318H34.1619V88.2441Z" fill="white"/>
<path d="M61.313 88.2441H54.5257V95.0318H61.313V88.2441Z" fill="white"/>
<path d="M68.1005 88.2441H61.3131V95.0318H68.1005V88.2441Z" fill="white"/>
<path d="M74.8866 88.2441H68.0993V95.0318H74.8866V88.2441Z" fill="white"/>
<path d="M88.4628 88.2441H81.6755V95.0318H88.4628V88.2441Z" fill="white"/>
<path d="M115.611 88.2441H108.824V95.0318H115.611V88.2441Z" fill="white"/>
<path d="M149.55 88.2441H142.763V95.0318H149.55V88.2441Z" fill="white"/>
<path d="M163.126 88.2441H156.339V95.0318H163.126V88.2441Z" fill="white"/>
<path d="M7.01342 95.0322H0.226105V101.82H7.01342V95.0322Z" fill="white"/>
<path d="M20.5857 95.0322H13.7984V101.82H20.5857V95.0322Z" fill="white"/>
<path d="M27.3745 95.0322H20.5872V101.82H27.3745V95.0322Z" fill="white"/>
<path d="M40.9519 95.0322H34.1646V101.82H40.9519V95.0322Z" fill="white"/>
<path d="M47.7381 95.0322H40.9508V101.82H47.7381V95.0322Z" fill="white"/>
<path d="M108.826 95.0322H102.039V101.82H108.826V95.0322Z" fill="white"/>
<path d="M115.611 95.0322H108.824V101.82H115.611V95.0322Z" fill="white"/>
<path d="M129.187 101.566H122.4V108.354H129.187V101.566Z" fill="white"/>
<path d="M149.55 95.0322H142.763V101.82H149.55V95.0322Z" fill="white"/>
<path d="M163.126 95.0322H156.339V101.82H163.126V95.0322Z" fill="white"/>
<path d="M169.912 95.0322H163.125V101.82H169.912V95.0322Z" fill="white"/>
<path d="M7.01342 101.821H0.226105V108.609H7.01342V101.821Z" fill="white"/>
<path d="M61.313 101.821H54.5257V108.609H61.313V101.821Z" fill="white"/>
<path d="M88.4628 101.821H81.6755V108.609H88.4628V101.821Z" fill="white"/>
<path d="M102.036 101.821H95.2491V108.609H102.036V101.821Z" fill="white"/>
<path d="M108.826 101.821H102.039V108.609H108.826V101.821Z" fill="white"/>
<path d="M115.611 101.821H108.824V108.609H115.611V101.821Z" fill="white"/>
<path d="M122.401 101.821H115.614V108.609H122.401V101.821Z" fill="white"/>
<path d="M129.187 108.355H122.4V115.143H129.187V108.355Z" fill="white"/>
<path d="M135.977 101.821H129.19V108.609H135.977V101.821Z" fill="white"/>
<path d="M142.764 101.821H135.976V108.609H142.764V101.821Z" fill="white"/>
<path d="M149.55 101.821H142.763V108.609H149.55V101.821Z" fill="white"/>
<path d="M169.912 101.821H163.125V108.609H169.912V101.821Z" fill="white"/>
<path d="M7.01342 108.608H0.226105V115.396H7.01342V108.608Z" fill="white"/>
<path d="M27.3745 108.608H20.5872V115.396H27.3745V108.608Z" fill="white"/>
<path d="M34.1619 108.608H27.3746V115.396H34.1619V108.608Z" fill="white"/>
<path d="M40.9519 108.608H34.1646V115.396H40.9519V108.608Z" fill="white"/>
<path d="M47.7381 108.608H40.9508V115.396H47.7381V108.608Z" fill="white"/>
<path d="M68.1005 108.608H61.3131V115.396H68.1005V108.608Z" fill="white"/>
<path d="M74.8866 108.608H68.0993V115.396H74.8866V108.608Z" fill="white"/>
<path d="M88.4628 108.608H81.6755V115.396H88.4628V108.608Z" fill="white"/>
<path d="M95.249 108.608H88.4617V115.396H95.249V108.608Z" fill="white"/>
<path d="M102.036 108.608H95.2491V115.396H102.036V108.608Z" fill="white"/>
<path d="M115.611 108.608H108.824V115.396H115.611V108.608Z" fill="white"/>
<path d="M122.401 108.608H115.614V115.396H122.401V108.608Z" fill="white"/>
<path d="M129.187 115.143H122.4V121.93H129.187V115.143Z" fill="white"/>
<path d="M129.187 61.563H122.4V68.3507H129.187V61.563Z" fill="white"/>
<path d="M135.977 108.608H129.19V115.396H135.977V108.608Z" fill="white"/>
<path d="M135.977 55.0278H129.19V61.8155H135.977V55.0278Z" fill="white"/>
<path d="M142.764 108.608H135.976V115.396H142.764V108.608Z" fill="white"/>
<path d="M142.764 55.0278H135.976V61.8155H142.764V55.0278Z" fill="white"/>
<path d="M156.339 108.608H149.551V115.396H156.339V108.608Z" fill="white"/>
<path d="M156.339 55.0278H149.551V61.8155H156.339V55.0278Z" fill="white"/>
<path d="M61.313 115.396H54.5257V122.184H61.313V115.396Z" fill="white"/>
<path d="M74.8866 115.396H68.0993V122.184H74.8866V115.396Z" fill="white"/>
<path d="M102.036 115.396H95.2491V122.184H102.036V115.396Z" fill="white"/>
<path d="M108.826 115.396H102.039V122.184H108.826V115.396Z" fill="white"/>
<path d="M115.611 115.396H108.824V122.184H115.611V115.396Z" fill="white"/>
<path d="M61.313 122.184H54.5257V128.971H61.313V122.184Z" fill="white"/>
<path d="M68.1005 122.184H61.3131V128.971H68.1005V122.184Z" fill="white"/>
<path d="M74.8866 122.184H68.0993V128.971H74.8866V122.184Z" fill="white"/>
<path d="M81.6753 122.184H74.888V128.971H81.6753V122.184Z" fill="white"/>
<path d="M88.4628 122.184H81.6755V128.971H88.4628V122.184Z" fill="white"/>
<path d="M81.6753 128.971H74.888V135.759H81.6753V128.971Z" fill="white"/>
<path d="M115.611 128.971H108.824V135.759H115.611V128.971Z" fill="white"/>
<path d="M61.313 135.761H54.5257V142.548H61.313V135.761Z" fill="white"/>
<path d="M74.8866 135.761H68.0993V142.548H74.8866V135.761Z" fill="white"/>
<path d="M81.6753 135.761H74.888V142.548H81.6753V135.761Z" fill="white"/>
<path d="M108.826 135.761H102.039V142.548H108.826V135.761Z" fill="white"/>
<path d="M61.313 142.548H54.5257V149.336H61.313V142.548Z" fill="white"/>
<path d="M74.8866 142.548H68.0993V149.336H74.8866V142.548Z" fill="white"/>
<path d="M88.4628 142.548H81.6755V149.336H88.4628V142.548Z" fill="white"/>
<path d="M95.249 142.548H88.4617V149.336H95.249V142.548Z" fill="white"/>
<path d="M108.826 142.548H102.039V149.336H108.826V142.548Z" fill="white"/>
<path d="M61.313 149.335H54.5257V156.123H61.313V149.335Z" fill="white"/>
<path d="M68.1005 149.335H61.3131V156.123H68.1005V149.335Z" fill="white"/>
<path d="M95.249 149.335H88.4617V156.123H95.249V149.335Z" fill="white"/>
<path d="M102.036 149.335H95.2491V156.123H102.036V149.335Z" fill="white"/>
<path d="M115.611 149.335H108.824V156.123H115.611V149.335Z" fill="white"/>
<path d="M61.313 156.124H54.5257V162.911H61.313V156.124Z" fill="white"/>
<path d="M88.4628 156.124H81.6755V162.911H88.4628V156.124Z" fill="white"/>
<path d="M95.249 156.124H88.4617V162.911H95.249V156.124Z" fill="white"/>
<path d="M108.826 156.124H102.039V162.911H108.826V156.124Z" fill="white"/>
<path d="M115.611 156.124H108.824V162.911H115.611V156.124Z" fill="white"/>
<path d="M61.313 162.911H54.5257V169.699H61.313V162.911Z" fill="white"/>
<path d="M88.4628 162.911H81.6755V169.699H88.4628V162.911Z" fill="white"/>
<path d="M102.036 162.911H95.2491V169.699H102.036V162.911Z" fill="white"/>
<path d="M108.826 162.911H102.039V169.699H108.826V162.911Z" fill="white"/>
<path d="M31.0605 121.536H16.102C12.6456 121.528 9.2783 122.632 6.49759 124.685C3.71688 126.738 1.67022 129.631 0.659978 132.937C0.454171 133.622 0.29568 134.321 0.185624 135.028C0.0616316 135.831 -0.000405027 136.641 6.36711e-05 137.454V152.77C0.0290885 157.015 1.7406 161.075 4.75917 164.06C7.77775 167.045 11.8569 168.711 16.102 168.692H31.0605C35.3057 168.711 39.3851 167.045 42.4037 164.06C45.4223 161.075 47.1337 157.014 47.1624 152.768V137.454C47.1323 133.209 45.4203 129.15 42.4018 126.166C39.3833 123.182 35.3047 121.517 31.0605 121.536ZM40.0876 152.77C40.061 155.14 39.0954 157.403 37.4025 159.061C35.7096 160.72 33.4279 161.64 31.0578 161.618H16.1033C13.7335 161.64 11.4519 160.72 9.75908 159.062C8.06626 157.403 7.10045 155.141 7.07356 152.771V137.454C7.07209 135.979 7.4477 134.528 8.1647 133.239C8.8388 132.031 9.7829 130.996 10.9233 130.214C12.4464 129.166 14.2522 128.608 16.1007 128.612H31.0605C33.4293 128.59 35.7101 129.509 37.4023 131.167C39.0946 132.824 40.0603 135.086 40.0876 137.455V152.77Z" fill="white"/>
<path d="M31.0605 1.30827H16.102C12.6456 1.30033 9.2783 2.40442 6.49759 4.45742C3.71688 6.51042 1.67022 9.40345 0.659978 12.7091C0.454171 13.3944 0.29568 14.093 0.185624 14.8C0.0616316 15.6026 -0.000405027 16.4135 6.36711e-05 17.2255V32.5416C0.0290885 36.7868 1.7406 40.8472 4.75917 43.8322C7.77775 46.8171 11.8569 48.4829 16.102 48.4641H31.0605C35.3057 48.4829 39.3851 46.8169 42.4037 43.8317C45.4223 40.8465 47.1337 36.7858 47.1624 32.5403V17.2255C47.1323 12.9811 45.4203 8.92185 42.4018 5.93796C39.3833 2.95407 35.3047 1.28913 31.0605 1.30827ZM40.0876 32.5416C40.061 34.9117 39.0954 37.1745 37.4025 38.8334C35.7096 40.4923 33.4279 41.4118 31.0578 41.3902H16.1033C13.7335 41.4118 11.4519 40.4925 9.75908 38.8338C8.06626 37.1752 7.10045 34.9128 7.07356 32.5429V17.2255C7.07209 15.7506 7.4477 14.2998 8.1647 13.011C8.8388 11.8034 9.7829 10.768 10.9233 9.98565C12.4464 8.93837 14.2522 8.37954 16.1007 8.38347H31.0605C33.4293 8.36186 35.7101 9.28076 37.4023 10.9386C39.0946 12.5965 40.0603 14.8579 40.0876 17.2268V32.5416Z" fill="white"/>
<path d="M153.896 122.844H138.938C135.481 122.836 132.114 123.94 129.333 125.993C126.552 128.046 124.506 130.939 123.496 134.245C123.29 134.93 123.131 135.629 123.021 136.336C122.897 137.138 122.835 137.949 122.836 138.761V154.077C122.865 158.322 124.576 162.383 127.595 165.368C130.613 168.353 134.693 170.019 138.938 170H153.896C158.141 170.019 162.221 168.353 165.239 165.367C168.258 162.382 169.969 158.321 169.998 154.076V138.761C169.968 134.517 168.256 130.457 165.237 127.474C162.219 124.49 158.14 122.825 153.896 122.844ZM162.923 154.077C162.897 156.447 161.931 158.71 160.238 160.369C158.545 162.028 156.263 162.947 153.893 162.926H138.939C136.569 162.947 134.287 162.028 132.595 160.369C130.902 158.711 129.936 156.448 129.909 154.079V138.761C129.908 137.286 130.283 135.835 131 134.547C131.674 133.339 132.618 132.304 133.759 131.521C135.282 130.474 137.088 129.915 138.936 129.919H153.896C156.265 129.898 158.546 130.816 160.238 132.474C161.93 134.132 162.896 136.394 162.923 138.762V154.077Z" fill="white"/>
<path d="M153.896 0.000163166H138.938C135.481 -0.00777113 132.114 1.09632 129.333 3.14932C126.552 5.20232 124.506 8.09534 123.496 11.401C123.29 12.0863 123.131 12.7849 123.021 13.4919C122.897 14.2945 122.835 15.1054 122.836 15.9174V31.2335C122.865 35.4787 124.576 39.5391 127.595 42.5241C130.613 45.509 134.693 47.1748 138.938 47.156H153.896C158.141 47.1748 162.221 45.5088 165.239 42.5236C168.258 39.5384 169.969 35.4777 169.998 31.2322V15.9174C169.968 11.673 168.256 7.61374 165.237 4.62985C162.219 1.64596 158.14 -0.0189739 153.896 0.000163166ZM162.923 31.2335C162.897 33.6036 161.931 35.8664 160.238 37.5253C158.545 39.1842 156.263 40.1037 153.893 40.0821H138.939C136.569 40.1037 134.287 39.1844 132.595 37.5257C130.902 35.8671 129.936 33.6047 129.909 31.2348V15.9174C129.908 14.4425 130.283 12.9917 131 11.7029C131.674 10.4953 132.618 9.45991 133.759 8.67755C135.282 7.63026 137.088 7.07144 138.936 7.07537H153.896C156.265 7.05376 158.546 7.97266 160.238 9.6305C161.93 11.2884 162.896 13.5498 162.923 15.9187V31.2335Z" fill="white"/>
<path d="M19.0056 155.223C17.5543 155.235 16.1573 154.671 15.1204 153.656C14.0835 152.64 13.4911 151.255 13.4728 149.804V140.425C13.4729 139.522 13.7027 138.635 14.1406 137.846C14.5525 137.105 15.1309 136.471 15.8302 135.992C16.7643 135.349 17.8719 135.006 19.0056 135.009H28.1673C29.6181 134.996 31.0148 135.558 32.0513 136.574C33.0878 137.589 33.6793 138.974 33.6962 140.425V149.804C33.678 151.254 33.0861 152.639 32.0501 153.654C31.014 154.67 29.618 155.234 28.1673 155.223H19.0056Z" fill="white"/>
<path d="M19.0056 34.9941C17.5543 35.006 16.1573 34.4425 15.1204 33.4268C14.0835 32.4111 13.4911 31.0261 13.4728 29.5747V20.1955C13.4729 19.2933 13.7027 18.406 14.1406 17.6172C14.5525 16.8765 15.1309 16.2416 15.8302 15.7628C16.7643 15.1202 17.8719 14.7774 19.0056 14.78H28.1673C29.6181 14.7668 31.0148 15.3295 32.0513 16.3447C33.0878 17.3599 33.6793 18.7448 33.6962 20.1955V29.5747C33.678 31.0254 33.0861 32.4099 32.0501 33.4254C31.014 34.441 29.618 35.005 28.1673 34.9941H19.0056Z" fill="white"/>
<path d="M141.839 156.529C140.387 156.541 138.99 155.978 137.953 154.962C136.916 153.946 136.324 152.561 136.306 151.11V141.731C136.306 140.828 136.536 139.941 136.974 139.152C137.386 138.412 137.964 137.777 138.663 137.298C139.597 136.655 140.705 136.313 141.839 136.315H151C152.451 136.302 153.848 136.865 154.884 137.88C155.921 138.895 156.512 140.28 156.529 141.731V151.11C156.511 152.561 155.919 153.945 154.883 154.961C153.847 155.976 152.451 156.54 151 156.529H141.839Z" fill="white"/>
<path d="M141.839 33.686C140.387 33.6979 138.99 33.1343 137.953 32.1187C136.916 31.103 136.324 29.718 136.306 28.2666V18.8874C136.306 17.9852 136.536 17.0979 136.974 16.309C137.386 15.5684 137.964 14.9335 138.663 14.4546C139.597 13.8121 140.705 13.4693 141.839 13.4719H151C152.451 13.4587 153.848 14.0214 154.884 15.0366C155.921 16.0518 156.512 17.4366 156.529 18.8874V28.2666C156.511 29.7173 155.919 31.1018 154.883 32.1173C153.847 33.1328 152.451 33.6969 151 33.686H141.839Z" fill="white"/>
<path d="M91.6539 62.356H79.6493C71.546 62.356 64.977 68.9254 64.977 77.0291V89.0345C64.977 97.1382 71.546 103.708 79.6493 103.708H91.6539C99.7572 103.708 106.326 97.1382 106.326 89.0345V77.0291C106.326 68.9254 99.7572 62.356 91.6539 62.356Z" fill="#F7931A"/>
<path d="M90.7208 62.7686H80.5862C72.1905 62.7686 65.3844 69.5747 65.3844 77.9704V88.105C65.3844 96.5007 72.1905 103.307 80.5862 103.307H90.7208C99.1165 103.307 105.923 96.5007 105.923 88.105V77.9704C105.923 69.5747 99.1165 62.7686 90.7208 62.7686Z" stroke="#161D26" stroke-width="6.53843"/>
<circle cx="85.3265" cy="82.9795" r="19.02" fill="#EDF0F4"/>
<path d="M85.2747 71.5679L85.1234 72.0818V86.994L85.2747 87.145L92.1966 83.0534L85.2747 71.5679Z" fill="#343434"/>
<path d="M85.2746 71.5679L78.3524 83.0534L85.2746 87.145V79.907V71.5679Z" fill="#8C8C8C"/>
<path d="M85.2747 88.4547L85.1895 88.5587V93.8707L85.2747 94.1196L92.2009 84.3652L85.2747 88.4547Z" fill="#3C3C3B"/>
<path d="M85.2747 94.1196V88.4547L78.3525 84.3652L85.2747 94.1196Z" fill="#8C8C8C"/>
<path d="M85.2745 87.1447L92.1965 83.0531L85.2745 79.9067V87.1447Z" fill="#141414"/>
<path d="M78.3525 83.0531L85.2747 87.1447V79.9067L78.3525 83.0531Z" fill="#393939"/>
</svg>
