<svg xmlns="http://www.w3.org/2000/svg" data-theme="dark" viewBox="0 0 20 20" focusable="false" class="chakra-icon css-blpcuq"><g><path d="M10 18.8496C8.87389 18.8496 7.81729 18.6362 6.83021 18.2094C5.84299 17.7826 4.98375 17.2035 4.2525 16.4721C3.52111 15.7408 2.94201 14.8816 2.51521 13.8944C2.0884 12.9073 1.875 11.8507 1.875 10.7246C1.875 9.59432 2.10764 8.51126 2.57292 7.47543C3.03819 6.43959 3.67604 5.53626 4.48646 4.76543C5.29674 3.9946 6.25 3.41022 7.34625 3.0123C8.44236 2.61425 9.62556 2.48793 10.8958 2.63335C11.0668 2.65571 11.1998 2.72779 11.2948 2.8496C11.3899 2.9714 11.4444 3.13057 11.4583 3.3271C11.5021 4.28543 11.8453 5.08057 12.4879 5.71251C13.1306 6.34446 13.9401 6.69036 14.9167 6.75022C15.1389 6.76411 15.3103 6.83279 15.431 6.95626C15.5517 7.0796 15.6164 7.26091 15.625 7.50022C15.6474 8.11022 15.8378 8.62814 16.1962 9.05397C16.5547 9.47966 17.023 9.78973 17.601 9.98418C17.7634 10.0429 17.8913 10.1303 17.9848 10.2463C18.0783 10.3622 18.125 10.5014 18.125 10.6638C18.1207 11.779 17.9033 12.8346 17.4727 13.8304C17.0422 14.8261 16.4612 15.6961 15.73 16.4402C14.9986 17.1842 14.1404 17.7718 13.1554 18.2029C12.1704 18.634 11.1186 18.8496 10 18.8496ZM10 17.5996C11.7479 17.5996 13.2968 16.9829 14.6467 15.7494C15.9965 14.5159 16.7367 12.9483 16.8671 11.0467C16.1512 10.7465 15.5914 10.3299 15.1875 9.79668C14.7836 9.26362 14.5283 8.64397 14.4215 7.93772C13.3147 7.81161 12.378 7.3773 11.6115 6.6348C10.8448 5.8923 10.3979 4.9596 10.2708 3.83668C9.18639 3.78765 8.20403 3.96237 7.32375 4.36084C6.44333 4.75932 5.6925 5.29265 5.07125 5.96085C4.45 6.62918 3.97035 7.38321 3.63229 8.22293C3.2941 9.06265 3.125 9.89654 3.125 10.7246C3.125 12.6253 3.79569 14.2463 5.13708 15.5875C6.47833 16.9289 8.09931 17.5996 10 17.5996ZM8.75 8.97772C9.07583 8.97772 9.35229 8.86293 9.57937 8.63335C9.80632 8.40362 9.91979 8.12848 9.91979 7.80793C9.91979 7.4821 9.80632 7.20564 9.57937 6.97855C9.35229 6.75161 9.07583 6.63814 8.75 6.63814C8.42944 6.63814 8.15431 6.75161 7.92458 6.97855C7.695 7.20564 7.58021 7.4821 7.58021 7.80793C7.58021 8.12848 7.695 8.40362 7.92458 8.63335C8.15431 8.86293 8.42944 8.97772 8.75 8.97772ZM7.08333 13.1444C7.40917 13.1444 7.68563 13.0296 7.91271 12.8C8.13965 12.5703 8.25312 12.2952 8.25312 11.9746C8.25312 11.6488 8.13965 11.3723 7.91271 11.1452C7.68563 10.9183 7.40917 10.8048 7.08333 10.8048C6.76278 10.8048 6.48764 10.9183 6.25792 11.1452C6.02833 11.3723 5.91354 11.6488 5.91354 11.9746C5.91354 12.2952 6.02833 12.5703 6.25792 12.8C6.48764 13.0296 6.76278 13.1444 7.08333 13.1444ZM12.5 13.9777C12.7147 13.9777 12.894 13.9046 13.0377 13.7583C13.1813 13.612 13.2531 13.434 13.2531 13.2246C13.2531 13.0099 13.1813 12.8306 13.0377 12.6869C12.894 12.5433 12.7147 12.4715 12.5 12.4715C12.2906 12.4715 12.1126 12.5433 11.9662 12.6869C11.82 12.8306 11.7469 13.0099 11.7469 13.2246C11.7469 13.434 11.82 13.612 11.9662 13.7583C12.1126 13.9046 12.2906 13.9777 12.5 13.9777Z" fill="currentColor"/></g></svg>