<svg width="19" height="18" viewBox="0 0 19 18" fill="none" xmlns="http://www.w3.org/2000/svg">
<path fill-rule="evenodd" clip-rule="evenodd" d="M9.44452 14.8148C12.7173 14.8148 15.3704 12.1617 15.3704 8.88885C15.3704 5.61605 12.7173 2.96293 9.44452 2.96293C6.17172 2.96293 3.51859 5.61605 3.51859 8.88885C3.51859 12.1617 6.17172 14.8148 9.44452 14.8148ZM9.44452 16.2963C13.5355 16.2963 16.8519 12.9798 16.8519 8.88885C16.8519 4.79785 13.5355 1.48145 9.44452 1.48145C5.35352 1.48145 2.03711 4.79785 2.03711 8.88885C2.03711 12.9798 5.35352 16.2963 9.44452 16.2963Z" fill="#777E91"/>
<path d="M9.44441 7.4074C9.44441 6.99831 9.77604 6.66666 10.1851 6.66666H10.9259C11.335 6.66666 11.6666 6.33503 11.6666 5.92592C11.6666 5.51683 11.335 5.18518 10.9259 5.18518H10.1851C8.95782 5.18518 7.96293 6.18011 7.96293 7.4074V8.88888H7.22219C6.81309 8.88888 6.48145 9.22051 6.48145 9.62962C6.48145 10.0387 6.81308 10.3704 7.22219 10.3704H7.96293V14.8148C7.96293 15.2239 8.29456 15.5556 8.70367 15.5556C9.11278 15.5556 9.44441 15.2239 9.44441 14.8148V10.3704H10.9259C11.335 10.3704 11.6666 10.0387 11.6666 9.62962C11.6666 9.22051 11.335 8.88888 10.9259 8.88888H9.44441V7.4074Z" fill="#777E91"/>
</svg>
