<svg width="17" height="14" viewBox="0 0 17 14" fill="none" xmlns="http://www.w3.org/2000/svg">
<path fill-rule="evenodd" clip-rule="evenodd" d="M2.02303 8.37005C0.798053 8.37353 0.00730014 9.76901 0.761965 10.8263C1.84272 12.3403 3.80254 13.5554 7.0744 13.5554C12.1448 13.5554 16.2149 9.42331 15.6451 4.54138L16.4799 2.8719C17.0588 1.71411 16.0528 0.397024 14.7835 0.65089L13.6807 0.871446C13.3883 0.717179 13.0857 0.600764 12.8271 0.516424C12.3231 0.352061 11.7131 0.222046 11.1485 0.222046C10.1342 0.222046 9.25877 0.482276 8.56307 1.00422C7.87529 1.5203 7.48788 2.19853 7.27529 2.82134C7.17729 3.10842 7.11203 3.39637 7.07016 3.67273C6.67662 3.54888 6.27536 3.38224 5.88251 3.17875C4.99125 2.7171 4.27055 2.13184 3.86399 1.61872C3.1819 0.757824 1.73639 0.821653 1.22914 1.94072C0.514224 3.51795 0.710335 5.38757 1.35296 6.89827C1.56835 7.40456 1.84854 7.90508 2.19084 8.36893C2.13224 8.3696 2.07618 8.3699 2.02303 8.37005ZM7.07433 12.0739C4.21259 12.0739 2.73284 11.0374 1.96769 9.96553C1.93331 9.91738 1.96798 9.85168 2.02714 9.85153C2.80554 9.8493 4.40332 9.81249 5.4571 9.19575C5.51159 9.16382 5.4996 9.08345 5.43975 9.06338C2.98333 8.23745 1.58701 4.73952 2.5784 2.55234C2.60114 2.50219 2.66854 2.49558 2.70274 2.53874C3.83524 3.96811 6.31139 5.36812 8.46574 5.40642C8.51248 5.40723 8.54781 5.36479 8.5407 5.31859C8.45388 4.75577 8.1224 1.70353 11.1484 1.70353C11.871 1.70353 12.9461 2.05599 13.3421 2.41708C13.3604 2.43377 13.3852 2.44135 13.4095 2.43649L15.074 2.1036C15.1344 2.09151 15.1823 2.15423 15.1548 2.20936L14.1224 4.27404C14.1152 4.28837 14.113 4.30482 14.1157 4.32061C14.8388 8.38501 11.5099 12.0739 7.07433 12.0739Z" fill="#777E91"/>
</svg>
