<svg width="19" height="18" viewBox="0 0 19 18" fill="none" xmlns="http://www.w3.org/2000/svg">
<path fill-rule="evenodd" clip-rule="evenodd" d="M12.6296 2.9628H6.70372C5.06732 2.9628 3.74076 4.28937 3.74076 5.92577V11.8517C3.74076 13.4881 5.06732 14.8147 6.70372 14.8147H12.6296C14.266 14.8147 15.5926 13.4881 15.5926 11.8517V5.92577C15.5926 4.28937 14.266 2.9628 12.6296 2.9628ZM6.70372 1.48132C4.24912 1.48132 2.25928 3.47117 2.25928 5.92577V11.8517C2.25928 14.3063 4.24912 16.2961 6.70372 16.2961H12.6296C15.0842 16.2961 17.0741 14.3063 17.0741 11.8517V5.92577C17.0741 3.47117 15.0842 1.48132 12.6296 1.48132H6.70372Z" fill="#777E91"/>
<path d="M13.3706 5.92582C13.7797 5.92582 14.1114 5.59417 14.1114 5.18508C14.1114 4.77598 13.7797 4.44434 13.3706 4.44434C12.9615 4.44434 12.6299 4.77598 12.6299 5.18508C12.6299 5.59417 12.9615 5.92582 13.3706 5.92582Z" fill="#777E91"/>
<path fill-rule="evenodd" clip-rule="evenodd" d="M13.3708 8.88876C13.3708 10.9342 11.7126 12.5925 9.66708 12.5925C7.62159 12.5925 5.96338 10.9342 5.96338 8.88876C5.96338 6.84327 7.62159 5.18506 9.66708 5.18506C11.7126 5.18506 13.3708 6.84327 13.3708 8.88876ZM11.8893 8.88876C11.8893 10.1161 10.8944 11.111 9.66708 11.111C8.43975 11.111 7.44486 10.1161 7.44486 8.88876C7.44486 7.66143 8.43975 6.66654 9.66708 6.66654C10.8944 6.66654 11.8893 7.66143 11.8893 8.88876Z" fill="#777E91"/>
</svg>
