<svg width="40" height="41" viewBox="0 0 40 41" fill="none" xmlns="http://www.w3.org/2000/svg">
<path d="M36.6667 14.6668C36.6667 20.6502 31.8167 25.5002 25.8333 25.5002C25.55 25.5002 25.25 25.4835 24.9667 25.4668C24.55 20.1835 20.3166 15.9501 15.0333 15.5335C15.0166 15.2501 15 14.9502 15 14.6668C15 8.6835 19.85 3.8335 25.8333 3.8335C31.8167 3.8335 36.6667 8.6835 36.6667 14.6668Z" stroke="white" stroke-width="2.5" stroke-linecap="round" stroke-linejoin="round"/>
<path d="M25.0002 26.3333C25.0002 32.3167 20.1502 37.1667 14.1668 37.1667C8.1835 37.1667 3.3335 32.3167 3.3335 26.3333C3.3335 20.35 8.1835 15.5 14.1668 15.5C14.4502 15.5 14.7501 15.5166 15.0335 15.5333C20.3168 15.95 24.5502 20.1834 24.9668 25.4667C24.9835 25.75 25.0002 26.05 25.0002 26.3333Z" fill="white" stroke="white" stroke-width="2.5" stroke-linecap="round" stroke-linejoin="round"/>
<path d="M9.31682 3.8335H5.00016C4.0835 3.8335 3.3335 4.5835 3.3335 5.50016V9.81682C3.3335 11.3002 5.13348 12.0501 6.18348 11.0001L10.5001 6.68348C11.5335 5.63348 10.8002 3.8335 9.31682 3.8335Z" stroke="white" stroke-width="2.5" stroke-linecap="round" stroke-linejoin="round"/>
<path d="M30.6835 37.1669H35.0002C35.9168 37.1669 36.6668 36.4169 36.6668 35.5003V31.1836C36.6668 29.7003 34.8669 28.9503 33.8169 30.0003L29.5002 34.3169C28.4669 35.3669 29.2002 37.1669 30.6835 37.1669Z" stroke="white" stroke-width="2.5" stroke-linecap="round" stroke-linejoin="round"/>
</svg>
