<svg width="19" height="18" viewBox="0 0 19 18" fill="none" xmlns="http://www.w3.org/2000/svg">
<path fill-rule="evenodd" clip-rule="evenodd" d="M9.77801 14.8147C13.0508 14.8147 15.7039 12.1615 15.7039 8.88873C15.7039 5.61593 13.0508 2.9628 9.77801 2.9628C6.50521 2.9628 3.85209 5.61593 3.85209 8.88873C3.85209 12.1615 6.50521 14.8147 9.77801 14.8147ZM9.77801 16.2961C13.869 16.2961 17.1854 12.9797 17.1854 8.88873C17.1854 4.79773 13.869 1.48132 9.77801 1.48132C5.68701 1.48132 2.37061 4.79773 2.37061 8.88873C2.37061 12.9797 5.68701 16.2961 9.77801 16.2961Z" fill="#777E91"/>
<path d="M12.3515 15.8369C12.0885 13.9627 11.6502 12.2618 11.0334 10.6539C9.52357 11.3859 7.83483 12.6649 5.51278 14.9458C5.10652 14.6591 4.73038 14.3326 4.39004 13.972C6.82883 11.567 8.69149 10.1291 10.4566 9.28753C10.2302 8.79664 9.98601 8.31272 9.72394 7.83323C7.64581 8.4882 5.27629 8.83331 2.37061 8.88264C2.37101 8.3742 2.42266 7.87768 2.52066 7.39803C5.08506 7.34309 7.15951 7.04628 8.95498 6.51876C8.12158 5.1815 7.1448 3.86153 6.02224 2.50276C6.45995 2.24477 6.9265 2.03051 7.41589 1.86597C8.54868 3.25823 9.5412 4.62662 10.3911 6.02601C11.9879 5.39486 13.4033 4.54303 14.8161 3.45852C15.1793 3.79558 15.5085 4.16863 15.7982 4.57199C14.3288 5.70866 12.8302 6.62992 11.133 7.3244C11.3828 7.79086 11.6171 8.26249 11.8359 8.74116C13.5149 8.20923 15.1676 8.15427 17.1489 8.14864C17.1731 8.39205 17.1854 8.63901 17.1854 8.88879C17.1854 9.13909 17.173 9.38649 17.1488 9.63042C15.2345 9.63723 13.8148 9.69116 12.4128 10.1132C13.0148 11.6803 13.4601 13.3369 13.746 15.1449C13.31 15.422 12.8431 15.6548 12.3515 15.8369Z" fill="#777E91"/>
</svg>
