<svg width="40" height="41" viewBox="0 0 40 41" fill="none" xmlns="http://www.w3.org/2000/svg">
<path d="M19.9936 40.9507C31.0467 40.9507 40 32.0003 40 20.9507C40 9.9011 31.0467 0.950684 19.9936 0.950684C8.94042 0.950684 0 9.9011 0 20.9507C0 32.0003 8.9533 40.9507 19.9936 40.9507Z" fill="#008CE3"/>
<path d="M23.0466 12.1934H15.1883L14.5442 15.825L21.6295 15.8379C25.1206 15.8379 26.1512 17.1 26.1255 19.1992C26.1126 20.2809 25.6488 22.0968 25.4427 22.6892C24.9016 24.2603 23.8066 26.0633 19.6585 26.0504H12.7664L12.1094 29.695H19.9419C22.6987 29.695 23.8839 29.373 25.1206 28.7935C27.8775 27.5185 29.5264 24.8012 30.1834 21.2468C31.1754 15.9538 29.9516 12.1934 23.0466 12.1934Z" fill="white"/>
<path d="M11.8134 19.1221C9.75221 19.1221 9.45591 20.4614 9.26268 21.2727C9.00503 22.3288 8.92773 22.7666 8.92773 22.7666H16.9664C19.0276 22.7666 19.3239 21.4273 19.5171 20.616C19.7748 19.5599 19.852 19.1221 19.852 19.1221H11.8134Z" fill="white"/>
</svg>
