<svg width="64" height="22" viewBox="0 0 64 22" fill="none" xmlns="http://www.w3.org/2000/svg">
<g clip-path="url(#clip0_1_3532)">
<path d="M40.5286 16.8236H35.0278L40.917 0H29.3319L23.283 16.8236H17.6527L18.1285 15.4972L19.6029 11.3951L19.6062 11.39H7.96739L7.96403 11.3951H1.64445L0.222168 15.4972H6.53334L6.06933 16.8236C5.83397 17.4692 5.7146 18.0643 5.7146 18.604C5.7146 20.8686 7.31173 22 10.5043 22H16.2624C19.2397 22 21.5144 21.0518 23.0897 19.1538C23.4124 21.0518 25.0096 22 27.8777 22H44.2474C48.0233 22 50.7082 20.2751 52.3053 16.8236L52.8147 15.361L54.1496 11.5329L54.1983 11.39H42.4737L40.5303 16.8236H40.5286Z" fill="white"/>
<path d="M23.7014 0H11.9566L10.5898 3.90203L9.24993 7.73009L9.20117 7.86627H20.8736L23.7014 0Z" fill="white"/>
<path d="M56.8498 3.76586L58.1611 0H46.5458L43.7349 7.86123H46.803V7.86795H62.2313L63.6519 3.76586H56.8498Z" fill="white"/>
</g>
<defs>
<clipPath id="clip0_1_3532">
<rect width="63.4295" height="22" fill="white" transform="translate(0.222168)"/>
</clipPath>
</defs>
</svg>
