<svg width="40" height="41" viewBox="0 0 40 41" fill="none" xmlns="http://www.w3.org/2000/svg">
<path d="M39.4016 25.7888C36.7301 36.5032 25.877 43.0237 15.1601 40.3519C4.44772 37.6808 -2.07358 26.8281 0.599038 16.1146C3.26931 5.39906 14.1225 -1.12199 24.836 1.54915C35.5521 4.2203 42.073 15.0741 39.4013 25.789L39.4015 25.7888H39.4016Z" fill="#F7931A"/>
<path fill-rule="evenodd" clip-rule="evenodd" d="M28.8199 18.1012C29.218 15.4397 27.1915 14.009 24.4203 13.0546L25.3193 9.44925L23.1244 8.90239L22.2492 12.4128C21.6722 12.2689 21.0796 12.1333 20.4907 11.9989L21.3721 8.46532L19.1786 7.91846L18.2791 11.5226C17.8016 11.4139 17.3326 11.3065 16.8776 11.1933L16.8801 11.1819L13.8533 10.4261L13.2694 12.7702C13.2694 12.7702 14.8979 13.1434 14.8635 13.1664C15.7524 13.3882 15.9131 13.9765 15.8864 14.4428L14.8624 18.5501C14.9236 18.5657 15.003 18.5882 15.0906 18.6234L15.0269 18.6075L15.0268 18.6075C14.9726 18.5939 14.9164 18.5798 14.8586 18.566L13.4232 24.3197C13.3146 24.5897 13.0389 24.995 12.4175 24.8411C12.4395 24.8729 10.8222 24.443 10.8222 24.443L9.73242 26.9552L12.5887 27.6672C12.9015 27.7456 13.2106 27.8262 13.5166 27.9059L13.5168 27.906C13.7306 27.9617 13.9428 28.017 14.1536 28.0709L13.2454 31.7176L15.4377 32.2644L16.3372 28.6565C16.9362 28.8191 17.5174 28.969 18.0864 29.1104L17.19 32.7013L19.385 33.2482L20.2932 29.6084C24.036 30.3166 26.8502 30.0311 28.0348 26.6461C28.9893 23.9208 27.9873 22.3488 26.0182 21.3237C27.4524 20.993 28.5327 20.0499 28.8207 18.1015L28.82 18.101L28.8199 18.1012ZM23.805 25.1326C23.1827 27.6329 19.2684 26.5992 17.4776 26.1263C17.3165 26.0837 17.1725 26.0457 17.0497 26.0152L18.255 21.184C18.4047 21.2214 18.5876 21.2624 18.7948 21.3089C20.6472 21.7246 24.4426 22.5762 23.8051 25.1326H23.805ZM19.1663 19.0666C20.6594 19.465 23.9166 20.3342 24.4838 18.0616H24.484C25.0632 15.7374 21.8978 15.0367 20.3519 14.6944C20.1779 14.6559 20.0245 14.622 19.8992 14.5907L18.8065 18.9724C18.9096 18.9981 19.0307 19.0304 19.1663 19.0666Z" fill="white"/>
</svg>
