<svg width="40" height="41" viewBox="0 0 40 41" fill="none" xmlns="http://www.w3.org/2000/svg">
<path d="M39.4016 25.7888C36.7301 36.5032 25.877 43.0237 15.1601 40.3519C4.44772 37.6808 -2.07358 26.8281 0.599038 16.1146C3.26931 5.39906 14.1225 -1.12199 24.836 1.54915C35.5521 4.2203 42.073 15.0741 39.4013 25.789L39.4015 25.7888H39.4016Z" fill="#F3BA2F"/>
<path fill-rule="evenodd" clip-rule="evenodd" d="M20.0023 13.6439L14.8229 18.8227L14.823 18.8225L11.8094 15.8092L20.0023 7.61719L28.1979 15.8116L25.1842 18.825L20.0023 13.6439ZM9.68126 17.9367L6.66748 20.9506L9.68105 23.9634L12.6948 20.9499L9.68126 17.9367ZM14.8229 23.0786L20.0023 28.2572L25.1841 23.0762L28.1994 26.0879L28.1979 26.0895L20.0023 34.2839L11.8094 26.0919L11.8051 26.0876L14.8229 23.0786ZM30.3236 17.9384L27.3098 20.9518L30.3235 23.9651L33.3372 20.9516L30.3236 17.9384Z" fill="white"/>
<path d="M23.0586 20.9493H23.0599L20.002 17.8916L17.7418 20.1509L17.4822 20.4106L16.9466 20.9462L16.9424 20.9504L16.9466 20.9547L20.002 24.0102L23.0601 20.9525L23.0616 20.9508L23.0588 20.9493" fill="white"/>
</svg>
