<svg width="156" height="189" viewBox="0 0 156 189" fill="none" xmlns="http://www.w3.org/2000/svg">
<path opacity="0.05" d="M140.222 12.3076C127.599 -6.96425 106.461 -4.51191 83.285 5.22604L68.4772 -22.9369L51.3214 -13.8831L65.7324 13.5412C61.2176 15.9117 56.6633 18.434 52.117 20.9491L37.6163 -6.65737L20.4532 2.38839L35.2537 30.5433C31.5755 32.5746 27.9606 34.5787 24.3997 36.447L24.3508 36.3595L0.669394 48.8363L10.2961 67.1408C10.2961 67.1408 22.8509 60.2136 22.7618 60.5555C29.7174 56.8944 34.0934 59.7338 36.587 62.8697L53.4581 94.9463C53.9351 94.6952 54.5692 94.3912 55.3336 94.1021L53.5206 95.0653L77.1489 140.008C77.9848 142.351 78.5309 146.512 73.6729 149.087C74.0002 149.159 61.1999 155.664 61.1999 155.664L68.5478 177.927L90.8941 166.147C95.0512 163.965 99.1795 161.882 103.2 159.792L118.183 188.265L135.33 179.219L120.523 151.056C125.278 148.66 129.854 146.293 134.306 143.95L149.043 172.001L166.199 162.947L151.259 134.523C179.256 117.653 195.636 99.7476 183.916 71.3625C174.491 48.5067 159.108 44.1874 140.662 48.9003C147.962 38.592 149.491 26.3998 140.222 12.3076ZM148.217 85.8714C159.429 107.146 121.646 123.967 110.015 130.113L90.1878 92.3704C101.833 86.2407 136.557 63.6704 148.217 85.8714ZM112.245 36.8388C122.427 56.2067 90.7935 69.9851 81.1109 75.0905L63.122 40.879C72.8047 35.7735 101.626 16.6375 112.245 36.8388Z" fill="#727272"/>
</svg>
