<svg width="24" height="24" viewBox="0 0 24 24" fill="none" xmlns="http://www.w3.org/2000/svg">
<g clip-path="url(#clip0_67_6606)">
<path d="M17.25 0.0232647C17.157 0.0232647 8.25 0 8.25 0C6.66298 0 5.25001 1.45576 5.25001 3.00002L4.38301 3.02026C2.79675 3.02026 1.5 4.45574 1.5 6V21C1.5 22.5443 2.91301 24 4.50002 24H15.75C17.337 24 18.75 22.5443 18.75 21H19.5C21.087 21 22.5 19.5443 22.5 18V6.01801L17.25 0.0232647ZM15.75 22.5H4.50002C3.71252 22.5 3.00003 21.7643 3.00003 21V6C3.00003 4.88401 3.91802 4.50001 5.25001 4.50001V18C5.25001 19.5443 6.66298 21 8.25 21C8.25 21 16.3815 20.9918 17.2567 20.9918C17.2567 21.9023 16.6598 22.5 15.75 22.5ZM17.25 15.7582H10.5C10.086 15.7582 9.75002 15.423 9.75002 15.009C9.75002 14.595 10.086 14.2598 10.5 14.2598H17.25C17.664 14.2598 18 14.595 18 15.009C18 15.423 17.664 15.7582 17.25 15.7582ZM17.25 12.012H10.5C10.086 12.012 9.75002 11.6767 9.75002 11.2628C9.75002 10.8488 10.086 10.5135 10.5 10.5135H17.25C17.664 10.5135 18 10.8488 18 11.2628C18 11.676 17.664 12.012 17.25 12.012ZM18.75 6C17.9513 6 17.25 5.27927 17.25 4.50001V1.52175L21 6H18.75Z" fill="white"/>
</g>
<defs>
<clipPath id="clip0_67_6606">
<rect width="24" height="24" fill="white"/>
</clipPath>
</defs>
</svg>
