<svg width="40" height="41" viewBox="0 0 40 41" fill="none" xmlns="http://www.w3.org/2000/svg">
<circle cx="20.1668" cy="20.784" r="17.8333" fill="white"/>
<path fill-rule="evenodd" clip-rule="evenodd" d="M0 20.9507C0 9.90499 8.95427 0.950684 19.9999 0.950684H20.1161C25.405 0.966073 30.4712 3.08186 34.2001 6.83259C37.929 10.5833 40.0153 15.6618 39.9998 20.9507C39.9998 31.9964 31.0456 40.9507 19.9999 40.9507C8.95427 40.9507 0 31.9964 0 20.9507ZM18.2566 28.6504L20.3389 21.6286L23.5834 20.7085L24.2614 18.3841L21.0653 19.3526L24.4551 7.82717V7.64315C24.45 7.49413 24.386 7.35324 24.277 7.25151C24.168 7.14977 24.023 7.09555 23.874 7.10077H19.5641C19.2283 7.09042 18.9287 7.31014 18.8377 7.63346L14.8183 21.2896L11.6222 22.2582L10.8958 24.4858L14.0919 23.5172L11.2348 33.2509H28.2807C28.6176 33.2648 28.9192 33.0437 29.0071 32.7182L29.9757 29.3768V29.1928C29.9706 29.0438 29.9065 28.9029 29.7975 28.8011C29.6885 28.6994 29.5436 28.6452 29.3945 28.6504H18.2566Z" fill="#345D9D"/>
</svg>
