<svg width="27" height="27" viewBox="0 0 27 27" fill="none" xmlns="http://www.w3.org/2000/svg">
<path d="M26.1136 2.32002L26.1133 2.31977C26.0112 2.21776 25.9146 2.18088 25.793 2.18088C25.672 2.18088 25.5754 2.21752 25.4724 2.32021L25.4713 2.32135L23.2319 4.54393L22.7897 4.98281L22.3367 4.55512C21.1671 3.45094 19.8287 2.5956 18.3178 1.98809L18.3178 1.98807C16.8081 1.38091 15.2583 1.07867 13.6653 1.07867C10.6481 1.07867 8.03679 1.98785 5.80212 3.8029L5.80208 3.80293C3.59343 5.59658 2.12693 7.92591 1.40101 10.8163H4.64703L4.64775 10.8146C4.88986 10.2381 5.0891 9.77684 5.2448 9.43308C5.39024 9.11198 5.51545 8.85277 5.60906 8.70598C6.46964 7.30634 7.61683 6.20265 9.04369 5.40314L9.04373 5.40311C10.473 4.60242 12.0169 4.20118 13.665 4.20118C16.1364 4.20118 18.2963 5.04953 20.1147 6.7326L20.6057 7.18707L20.1325 7.66009L17.7555 10.0366C17.7554 10.0367 17.7553 10.0368 17.7552 10.0369C17.6531 10.1393 17.6163 10.2363 17.6163 10.3575C17.6163 10.4786 17.653 10.5753 17.7549 10.6776C17.8572 10.7796 17.9537 10.8163 18.0754 10.8163H25.793C25.9148 10.8163 26.0113 10.7795 26.113 10.6778L26.1136 2.32002ZM26.1136 2.32002C26.215 2.42129 26.2517 2.5172 26.2517 2.63977V10.3575C26.2517 10.4793 26.2149 10.5758 26.1131 10.6777L26.1136 2.32002ZM22.6825 16.5156L22.6833 16.5139H25.7926C25.0773 19.4049 23.6215 21.7348 21.4241 23.5281L21.7808 23.9652L21.4241 23.5281C19.2011 25.3424 16.6017 26.2513 13.5966 26.2513C12.0029 26.2513 10.4624 25.9518 8.97066 25.3506L8.97059 25.3505C7.47885 24.7495 6.14946 23.8924 4.97916 22.777L4.52429 22.3435L4.08 22.7879L1.85826 25.0099C1.85821 25.0099 1.85817 25.01 1.85813 25.01C1.75526 25.1126 1.65846 25.1493 1.53775 25.1493C1.41698 25.1493 1.32 25.1126 1.21702 25.0099C1.11546 24.9083 1.07867 24.8117 1.07867 24.6902V16.9725C1.07867 16.8506 1.11564 16.754 1.21713 16.6526L1.21763 16.6521C1.31967 16.55 1.41609 16.5132 1.53769 16.5132H9.25543C9.3767 16.5132 9.47307 16.5499 9.5753 16.6522L9.57575 16.6526C9.67729 16.7541 9.71426 16.8507 9.71426 16.9724C9.71426 17.094 9.67733 17.1907 9.57562 17.2924L9.57551 17.2925L7.21536 19.6525L6.74336 20.1244L7.2322 20.5789C8.10557 21.391 9.09769 22.0195 10.2048 22.4628L10.205 22.4628C11.3146 22.9066 12.4696 23.1287 13.6653 23.1287C15.3134 23.1287 16.8573 22.7279 18.2868 21.9269L18.2868 21.9269C19.7134 21.1274 20.8607 20.0232 21.7214 18.6239C21.8146 18.4776 21.9397 18.2188 22.0854 17.8972C22.2412 17.5535 22.4405 17.0922 22.6825 16.5156Z" fill="white" stroke="white" stroke-width="1.28723"/>
</svg>
