<svg width="25" height="25" viewBox="0 0 25 25" fill="none" xmlns="http://www.w3.org/2000/svg">
<path d="M3.60606 23.4322L1.76294 18.0501L3.47376 15.3817C4.23369 14.1992 5.31502 13.2579 6.59093 12.6681C7.86685 12.0783 9.28447 11.8646 10.6776 12.0518H14.0107C14.9352 12.0518 15.7406 12.567 16.1573 13.3252L19.8866 11.12C20.2356 10.9142 20.6231 10.7822 21.0252 10.7322C21.4273 10.6821 21.8353 10.715 22.2242 10.8289C22.7654 10.9877 23.2498 11.2983 23.6201 11.7238C23.9904 12.1494 24.2311 12.6721 24.3136 13.2301C24.3961 13.7881 24.3171 14.358 24.0859 14.8726C23.8547 15.3871 23.4809 15.8246 23.0089 16.1333L19.1539 18.6603C17.0167 20.0631 14.5157 20.8096 11.9592 20.8077H11.3887C9.50753 20.8077 7.63629 21.2766 5.97756 22.1638L3.60523 23.4331L3.60606 23.4322ZM3.58622 18.2708L4.54044 21.0566L5.19864 20.7044C7.1029 19.6858 9.22912 19.1529 11.3887 19.1531H11.9609C14.196 19.1531 16.3822 18.5007 18.251 17.2753L22.0331 14.7963C22.5714 14.4432 22.841 13.7527 22.5905 13.159C22.5164 12.9806 22.4032 12.8211 22.2592 12.6923C22.1152 12.5635 21.9442 12.4687 21.7586 12.4149C21.5875 12.3636 21.4076 12.3486 21.2304 12.3707C21.0532 12.3927 20.8825 12.4514 20.7292 12.543L16.3797 15.1155C16.2427 15.6394 15.936 16.1031 15.5076 16.4343C15.0792 16.7655 14.5531 16.9455 14.0116 16.9462H11.5714C11.3521 16.9462 11.1418 16.8591 10.9867 16.704C10.8317 16.5489 10.7445 16.3386 10.7445 16.1193C10.7445 15.9 10.8317 15.6897 10.9867 15.5346C11.1418 15.3795 11.3521 15.2924 11.5714 15.2924H14.0116C14.2156 15.2831 14.4082 15.1955 14.5493 15.0478C14.6904 14.9001 14.7691 14.7037 14.7691 14.4994C14.7691 14.2952 14.6904 14.0988 14.5493 13.9511C14.4082 13.8034 14.2156 13.7158 14.0116 13.7064L10.5039 13.6982C9.41623 13.5436 8.30704 13.7043 7.30791 14.1611C6.30879 14.6179 5.46167 15.3518 4.86706 16.2756L3.58704 18.2717L3.58622 18.2708Z" fill="white"/>
<path d="M1.68513 15.2827L1.68434 15.2829C1.25165 15.429 1.01927 15.8981 1.1653 16.3308L3.6591 23.7197C3.80514 24.1524 4.2743 24.3847 4.70699 24.2387L4.70778 24.2384C5.14047 24.0924 5.37285 23.6232 5.22681 23.1906L2.73301 15.8017C2.58698 15.369 2.11782 15.1366 1.68513 15.2827Z" fill="white"/>
<path d="M6.46358 14.217H4.80981V3.36501C4.81091 2.5423 5.13821 1.7536 5.71996 1.17186C6.3017 0.590117 7.0904 0.262813 7.91311 0.261719H17.4173C18.24 0.262813 19.0287 0.590117 19.6105 1.17186C20.1922 1.7536 20.5195 2.5423 20.5206 3.36501V12.665H18.8668V3.36501C18.8668 2.56541 18.2169 1.91548 17.4173 1.91548H7.91311C7.11351 1.91548 6.46358 2.56541 6.46358 3.36501V14.217Z" fill="white"/>
<path d="M12.6656 8.53041C11.749 8.52932 10.8586 8.22414 10.1341 7.6627C9.40952 7.10125 8.89172 6.31527 8.66183 5.42795C8.63087 5.3057 8.62823 5.17801 8.65409 5.05459C8.67996 4.93117 8.73365 4.81528 8.81109 4.71575C8.88852 4.61623 8.98766 4.53569 9.10093 4.48028C9.21421 4.42486 9.33863 4.39604 9.46474 4.396H9.46722C9.85833 4.396 10.1709 4.67714 10.2743 5.05502C10.5637 6.10434 11.5262 6.87665 12.6664 6.87665C13.8067 6.87665 14.7692 6.10351 15.0586 5.05502C15.1628 4.67796 15.4745 4.396 15.8656 4.396H15.8681C16.4064 4.396 16.805 4.90618 16.671 5.42795C16.4409 6.31513 15.923 7.10095 15.1985 7.66235C14.474 8.22375 13.5838 8.52904 12.6673 8.53041H12.6656Z" fill="white"/>
</svg>
