<svg width="27" height="27" viewBox="0 0 27 27" fill="none" xmlns="http://www.w3.org/2000/svg">
<path d="M25.7926 8.15274C25.792 7.94914 25.735 7.74969 25.628 7.5765C25.5209 7.4033 25.368 7.26312 25.1862 7.17151L14.1611 1.65895C14.0072 1.58141 13.8373 1.54102 13.665 1.54102C13.4927 1.54102 13.3227 1.58141 13.1689 1.65895L2.14375 7.17151C1.96316 7.26403 1.8116 7.40459 1.70577 7.57772C1.59994 7.75085 1.54395 7.94983 1.54395 8.15274C1.54395 8.35565 1.59994 8.55463 1.70577 8.72776C1.8116 8.90089 1.96316 9.04145 2.14375 9.13398L5.68281 10.909L2.14375 12.6841C1.96316 12.7766 1.8116 12.9171 1.70577 13.0903C1.59994 13.2634 1.54395 13.4624 1.54395 13.6653C1.54395 13.8682 1.59994 14.0672 1.70577 14.2403C1.8116 14.4134 1.96316 14.554 2.14375 14.6465L5.68281 16.4216L2.14375 18.1966C1.96316 18.2891 1.8116 18.4297 1.70577 18.6028C1.59994 18.776 1.54395 18.9749 1.54395 19.1778C1.54395 19.3808 1.59994 19.5797 1.70577 19.7529C1.8116 19.926 1.96316 20.0666 2.14375 20.1591L13.1689 25.6716C13.3227 25.7492 13.4927 25.7896 13.665 25.7896C13.8373 25.7896 14.0072 25.7492 14.1611 25.6716L25.1862 20.1591C25.3668 20.0666 25.5184 19.926 25.6242 19.7529C25.73 19.5797 25.786 19.3808 25.786 19.1778C25.786 18.9749 25.73 18.776 25.6242 18.6028C25.5184 18.4297 25.3668 18.2891 25.1862 18.1966L21.6472 16.4216L25.1862 14.6465C25.3668 14.554 25.5184 14.4134 25.6242 14.2403C25.73 14.0672 25.786 13.8682 25.786 13.6653C25.786 13.4624 25.73 13.2634 25.6242 13.0903C25.5184 12.9171 25.3668 12.7766 25.1862 12.6841L21.6472 10.909L25.1862 9.13398C25.368 9.04236 25.5209 8.90218 25.628 8.72899C25.735 8.55579 25.792 8.35634 25.7926 8.15274ZM22.2205 19.1778L13.665 23.4556L5.10951 19.1778L8.15244 17.6564L13.1689 20.1591C13.3227 20.2366 13.4927 20.277 13.665 20.277C13.8373 20.277 14.0072 20.2366 14.1611 20.1591L19.1775 17.6564L22.2205 19.1778ZM22.2205 13.6653L13.665 17.943L5.10951 13.6653L8.15244 12.1438L13.1689 14.6465C13.3227 14.7241 13.4927 14.7645 13.665 14.7645C13.8373 14.7645 14.0072 14.7241 14.1611 14.6465L19.1775 12.1438L22.2205 13.6653ZM13.665 12.4305L5.10951 8.15274L13.665 3.875L22.2205 8.15274L13.665 12.4305Z" fill="white"/>
</svg>
