<svg width="40" height="41" viewBox="0 0 40 41" fill="none" xmlns="http://www.w3.org/2000/svg">
<path d="M39.4016 25.7888C36.7301 36.5032 25.877 43.0237 15.1601 40.3519C4.44772 37.6808 -2.07358 26.8281 0.599038 16.1146C3.26931 5.39906 14.1225 -1.12199 24.836 1.54915C35.5521 4.2203 42.073 15.0741 39.4013 25.789L39.4015 25.7888H39.4016Z" fill="#23292F"/>
<path d="M29.8372 9.28418H33.8736L25.4735 17.6005C22.4314 20.6105 17.4994 20.6105 14.4552 17.6005L6.05176 9.28418H10.0915L16.4734 15.6016C18.4082 17.5082 21.5156 17.5082 23.4504 15.6016L29.8372 9.28418Z" fill="white"/>
<path d="M10.0396 32.4093H6.00049L14.4552 24.0417C17.4972 21.0317 22.4293 21.0317 25.4735 24.0417L33.9282 32.4093H29.8917L23.4553 26.0406C21.5205 24.1339 18.4131 24.1339 16.4783 26.0406L10.0396 32.4093Z" fill="white"/>
</svg>
