<svg width="261" height="250" viewBox="0 0 261 250" fill="none" xmlns="http://www.w3.org/2000/svg">
<path d="M126.092 39.7729L145.403 19.3184" stroke="#1B2537" stroke-width="3.40789" stroke-linecap="round"/>
<path d="M239.688 120.455L259 100" stroke="#2873FF" stroke-width="3.40789" stroke-linecap="round"/>
<path d="M193.114 239.773L212.425 219.318" stroke="#FACC15" stroke-width="3.40789" stroke-linecap="round"/>
<path d="M4.54395 110.227L23.8553 89.7729" stroke="#FACC15" stroke-width="3.40789" stroke-linecap="round"/>
<path d="M55.6624 220.455L74.9738 200" stroke="#2873FF" stroke-width="3.40789" stroke-linecap="round"/>
<ellipse cx="94.2851" cy="4.54545" rx="4.54386" ry="4.54545" fill="#2873FF"/>
<ellipse cx="73.8378" cy="46.5909" rx="4.54386" ry="4.54545" fill="#1B2537"/>
<ellipse cx="38.6227" cy="132.955" rx="4.54386" ry="4.54545" fill="#1B2537"/>
<ellipse cx="4.54386" cy="189.773" rx="4.54386" ry="4.54545" fill="#2873FF"/>
<ellipse cx="105.645" cy="245.455" rx="4.54386" ry="4.54545" fill="#1B2537"/>
<ellipse cx="176.075" cy="200" rx="5.67982" ry="5.68182" fill="#FACC15"/>
<ellipse cx="229.465" cy="171.591" rx="5.67982" ry="5.68182" fill="#1B2537"/>
<ellipse cx="207.881" cy="43.1818" rx="5.67982" ry="5.68182" fill="#2873FF"/>
<ellipse cx="201.066" cy="95.4545" rx="3.40789" ry="3.40909" fill="#1B2537"/>
<ellipse cx="14.7675" cy="47.7275" rx="3.40789" ry="3.40909" fill="#FACC15"/>
<ellipse cx="129.5" cy="126.137" rx="56.7982" ry="56.8182" fill="#006FFF"/>
<path fill-rule="evenodd" clip-rule="evenodd" d="M141.657 103.978C144.958 103.978 148.133 105.283 150.468 107.624C152.807 109.961 154.114 113.112 154.114 116.412V135.862C154.114 142.732 148.527 148.296 141.657 148.296H117.342C110.473 148.296 104.888 142.732 104.888 135.862V116.412C104.888 109.542 110.448 103.978 117.342 103.978H141.657ZM145.573 120.08L145.77 119.883C146.358 119.169 146.358 118.135 145.743 117.421C145.401 117.054 144.931 116.83 144.441 116.781C143.924 116.754 143.432 116.928 143.06 117.273L131.962 126.137C130.535 127.321 128.489 127.321 127.04 126.137L115.964 117.273C115.199 116.707 114.14 116.781 113.503 117.445C112.838 118.11 112.765 119.169 113.328 119.908L113.651 120.228L124.849 128.968C126.228 130.052 127.899 130.642 129.649 130.642C131.394 130.642 133.094 130.052 134.47 128.968L145.573 120.08Z" fill="white"/>
</svg>
