<svg width="25" height="24" viewBox="0 0 25 24" fill="none" xmlns="http://www.w3.org/2000/svg">
<path fill-rule="evenodd" clip-rule="evenodd" d="M17.4053 3C18.73 3 20.0043 3.53 20.9418 4.481C21.8802 5.43 22.4048 6.71 22.4048 8.05V15.95C22.4048 18.74 20.1624 21 17.4053 21L7.64643 21C4.88936 21 2.64795 18.74 2.64795 15.95L2.64795 8.05C2.64795 5.26 4.87948 3 7.64643 3L17.4053 3ZM18.977 9.54L19.056 9.46C19.2921 9.17 19.2921 8.75 19.0451 8.46C18.9078 8.311 18.7192 8.22 18.5226 8.2C18.3151 8.189 18.1176 8.26 17.9684 8.4L13.5142 12C12.9413 12.481 12.1204 12.481 11.5385 12L7.09324 8.4C6.78602 8.17 6.36125 8.2 6.1054 8.47C5.83868 8.74 5.80904 9.17 6.03526 9.47L6.16467 9.6L10.6593 13.15C11.2125 13.59 11.8833 13.83 12.5856 13.83C13.286 13.83 13.9686 13.59 14.5208 13.15L18.977 9.54Z" fill="#47484E"/>
</svg>
