<svg width="25" height="24" viewBox="0 0 25 24" fill="none" xmlns="http://www.w3.org/2000/svg">
<path fill-rule="evenodd" clip-rule="evenodd" d="M17.476 14.6013C17.8849 14.6013 18.2168 14.2653 18.2168 13.8513V11.9993C18.2168 11.5853 17.8849 11.2493 17.476 11.2493H11.8532C11.5331 10.1823 10.563 9.39827 9.40529 9.39827C7.98872 9.39827 6.83591 10.5653 6.83591 11.9993C6.83591 13.4343 7.98872 14.6013 9.40529 14.6013C10.563 14.6013 11.5331 13.8173 11.8532 12.7493H13.9395V13.8513C13.9395 14.2653 14.2714 14.6013 14.6804 14.6013C15.0893 14.6013 15.4212 14.2653 15.4212 13.8513V12.7493H16.7351V13.8513C16.7351 14.2653 17.067 14.6013 17.476 14.6013ZM8.24457 1.99927L16.8082 1.99927C20.155 1.99927 22.4043 4.37727 22.4043 7.91627V16.0833C22.4043 19.6223 20.155 21.9993 16.8072 21.9993H8.24457C4.89678 21.9993 2.64746 19.6223 2.64746 16.0833L2.64746 7.91627C2.64746 4.37727 4.89678 1.99927 8.24457 1.99927ZM8.31678 12.0002C8.31678 11.3922 8.80577 10.8982 9.40539 10.8982C10.005 10.8982 10.494 11.3922 10.494 12.0002C10.494 12.6072 10.005 13.1012 9.40539 13.1012C8.80577 13.1012 8.31678 12.6072 8.31678 12.0002Z" fill="#47484E"/>
</svg>
