<?xml version="1.0" encoding="utf-8"?>
<!-- Generator: Adobe Illustrator 25.0.1, SVG Export Plug-In . SVG Version: 6.00 Build 0)  -->
<svg version="1.0" id="katman_1" xmlns="http://www.w3.org/2000/svg" xmlns:xlink="http://www.w3.org/1999/xlink" x="0px" y="0px"
	 viewBox="0 0 340.6 222.6" style="enable-background:new 0 0 340.6 222.6;" xml:space="preserve">
<style type="text/css">
	.st0{fill:#010202;}
	.st1{fill:#D8D8D8;}
	.st2{fill:#A9A9A9;}
	.st3{fill:#FFFFFF;}
	.st4{fill:url(#SVGID_1_);}
	.st5{fill:url(#SVGID_2_);}
	.st6{fill:url(#SVGID_3_);}
	.st7{fill:url(#SVGID_4_);}
	.st8{fill:url(#SVGID_5_);}
	.st9{fill:url(#SVGID_6_);}
	.st10{fill:url(#SVGID_7_);}
	.st11{fill:url(#SVGID_8_);}
	.st12{fill:url(#SVGID_9_);}
	.st13{fill:url(#SVGID_10_);}
	.st14{fill:url(#SVGID_11_);}
	.st15{fill:url(#SVGID_12_);}
	.st16{fill:url(#SVGID_13_);}
	.st17{fill:url(#SVGID_14_);}
	.st18{fill:url(#SVGID_15_);}
	.st19{fill:url(#SVGID_16_);}
	.st20{fill:#F39211;}
	.st21{fill:#2EB196;}
	.st22{fill:#F8BF00;}
	.st23{fill:#6FB752;}
	.st24{fill:#EA5197;}
	.st25{fill:#1EBCEF;}
	.st26{fill:#CE1417;}
	.st27{fill:#3F6BB2;}
	.st28{fill:#9F7FB8;}
</style>
<g>
	<path class="st0" d="M151.6,117.2v6.8c-3,1.7-6,2.6-8.7,2.6c-3.9,0-7.3-1.5-10.1-4.3c-2.9-2.9-4.3-6.3-4.3-10.1
		c0-4.3,1.5-7.9,4.3-10.8c2.9-2.9,6.5-4.3,10.9-4.3c2.6,0,5.3,0.7,8,2v6.6c-2.9-1.8-5.7-2.8-8.5-2.8c-2.4,0-4.6,0.9-6.4,2.6
		c-1.8,1.7-2.7,3.7-2.7,6c0,2.6,0.9,4.8,2.6,6.5s3.8,2.6,6.3,2.6C145.5,120.6,148.4,119.5,151.6,117.2L151.6,117.2z M153.7,111.6
		c0-3.8,1.5-7.3,4.6-10.2c3-3,6.5-4.5,10.4-4.5c4,0,7.6,1.5,10.6,4.4c3,2.9,4.5,6.4,4.5,10.3c0,4-1.5,7.4-4.4,10.4
		c-2.9,3-6.3,4.5-10.2,4.5c-4.1,0-7.7-1.5-10.8-4.5C155.2,119.1,153.7,115.7,153.7,111.6z M178,111.6c0-2.4-0.9-4.5-2.7-6.2
		c-1.8-1.8-4-2.6-6.5-2.6c-2.6,0-4.8,0.9-6.6,2.7c-1.8,1.8-2.8,3.9-2.8,6.4c0,2.4,1,4.4,2.8,6.2c1.8,1.8,4,2.6,6.5,2.6
		c2.4,0,4.6-0.9,6.4-2.7C177.1,116.2,178,114,178,111.6L178,111.6z M186.8,88.5c0-1.2,0.4-2.3,1.3-3.2s2-1.3,3.2-1.3
		s2.3,0.4,3.2,1.3c0.9,0.9,1.3,1.9,1.3,3.2c0,1.2-0.4,2.3-1.3,3.2c-0.9,0.9-1.9,1.3-3.2,1.3s-2.4-0.4-3.2-1.3
		C187.2,90.9,186.8,89.8,186.8,88.5z M188.4,97.7h5.9v28h-5.9V97.7z M199.9,125.7v-28h5.9v4.6c1.7-1.9,3.2-3.2,4.6-4.1
		c1.4-0.9,2.9-1.3,4.6-1.3c2.5,0,4.6,0.8,6.5,2.5c1.8,1.7,2.6,3.7,2.6,6v20.3h-5.9v-18.5c0-1.5-0.5-2.8-1.5-3.8
		c-1-1-2.2-1.5-3.7-1.5c-2,0-3.6,0.8-5.1,2.5c-1.4,1.7-2.1,3.7-2.1,6v15.3H199.9L199.9,125.7z M227.6,111.6c0-3.8,1.5-7.3,4.6-10.2
		c3-3,6.5-4.5,10.4-4.5c4,0,7.6,1.5,10.6,4.4c3,2.9,4.5,6.4,4.5,10.3c0,4-1.5,7.4-4.4,10.4c-2.9,3-6.3,4.5-10.2,4.5
		c-4.1,0-7.7-1.5-10.8-4.5C229.2,119.1,227.6,115.7,227.6,111.6L227.6,111.6z M252,111.6c0-2.4-0.9-4.5-2.7-6.2
		c-1.8-1.8-4-2.6-6.5-2.6c-2.6,0-4.8,0.9-6.6,2.7c-1.8,1.8-2.8,3.9-2.8,6.4c0,2.4,1,4.4,2.8,6.2c1.8,1.8,4,2.6,6.5,2.6
		c2.4,0,4.6-0.9,6.4-2.7C251,116.2,252,114,252,111.6z M261.3,125.7v-28h5.9v4.3c1.4-1.8,2.7-3,3.9-3.8c1.2-0.8,2.7-1.2,4.3-1.2
		c2.1,0,3.7,0.4,5,1.4c1.2,1,2.2,2.4,3.1,4.4c1.5-2.1,2.9-3.5,4.3-4.4c1.4-1,2.9-1.4,4.8-1.4c2.2,0,4.1,0.8,5.7,2.5
		c1.6,1.7,2.4,3.6,2.4,6v20.4h-5.9v-19c0-3.1-1.5-4.7-4.6-4.7c-1.8,0-3.2,0.8-4.4,2.4c-1.2,1.6-1.8,3.6-1.8,5.9v15.4h-5.9v-18.1
		c0-3.7-1.5-5.5-4.5-5.5c-1.8,0-3.3,0.7-4.5,2.3c-1.2,1.5-1.8,3.4-1.8,5.5v15.8H261.3L261.3,125.7z M304.9,88.5
		c0-1.2,0.4-2.3,1.3-3.2c0.9-0.9,2-1.3,3.2-1.3c1.2,0,2.3,0.4,3.2,1.3c0.9,0.9,1.3,1.9,1.3,3.2c0,1.2-0.4,2.3-1.3,3.2
		c-0.9,0.9-1.9,1.3-3.2,1.3s-2.4-0.4-3.2-1.3C305.4,90.9,304.9,89.8,304.9,88.5z M306.6,97.7h5.9v28h-5.9V97.7z"/>
	<path class="st1" d="M68.8,69.1c-23.3,0-42.2,18.9-42.2,42.2s18.9,42.2,42.2,42.2s42.2-18.9,42.2-42.2C110.9,88,92,69.1,68.8,69.1z
		 M68.8,149.5c-21.1,0-38.2-17.1-38.2-38.2S47.7,73,68.8,73S107,90.1,107,111.2C107,132.4,89.9,149.5,68.8,149.5z"/>
	<path class="st2" d="M68.8,72.4c10.7,0,20.4,4.3,27.5,11.4c7.1,7.1,11.4,16.8,11.4,27.5s-4.3,20.4-11.4,27.5
		c-7.1,7.1-16.8,11.5-27.5,11.5s-20.4-4.3-27.5-11.4S29.9,122,29.9,111.3s4.3-20.4,11.4-27.5S58,72.4,68.8,72.4z"/>
	<path class="st3" d="M95.3,84.8c-6.8-6.8-16.1-11-26.5-11s-19.7,4.2-26.5,11c-6.8,6.8-11,16.2-11,26.6s4.2,19.7,11,26.5
		c6.8,6.8,16.2,11,26.5,11s19.7-4.2,26.5-11c6.8-6.8,11-16.2,11-26.5S102.1,91.5,95.3,84.8z"/>
	
		<linearGradient id="SVGID_1_" gradientUnits="userSpaceOnUse" x1="-527.6674" y1="842.5237" x2="-520.2236" y2="855.4161" gradientTransform="matrix(1 0 0 1 579.04 -722.3845)">
		<stop  offset="0" style="stop-color:#F39211"/>
		<stop  offset="1" style="stop-color:#1EBCEF"/>
	</linearGradient>
	<path class="st4" d="M50.5,120l1.2-0.7l8,13.9l-1.2,0.7L50.5,120z"/>
	
		<linearGradient id="SVGID_2_" gradientUnits="userSpaceOnUse" x1="-531.0496" y1="830.485" x2="-531.0496" y2="816.114" gradientTransform="matrix(1 0 0 1 579.04 -722.3845)">
		<stop  offset="0" style="stop-color:#F39211"/>
		<stop  offset="1" style="stop-color:#CD2125"/>
	</linearGradient>
	<path class="st5" d="M47.3,93.8h1.4v14.4h-1.4V93.8z"/>
	
		<linearGradient id="SVGID_3_" gradientUnits="userSpaceOnUse" x1="-526.211" y1="831.8372" x2="-517.465" y2="823.0904" gradientTransform="matrix(1 0 0 1 579.04 -722.3845)">
		<stop  offset="0" style="stop-color:#F39211"/>
		<stop  offset="1" style="stop-color:#A9A9A9"/>
	</linearGradient>
	<path class="st6" d="M52.9,110.4l-1-1l9.7-9.6l1,1L52.9,110.4z"/>
	
		<linearGradient id="SVGID_4_" gradientUnits="userSpaceOnUse" x1="-524.8397" y1="836.6758" x2="-506.4341" y2="836.6758" gradientTransform="matrix(1 0 0 1 579.04 -722.3845)">
		<stop  offset="0" style="stop-color:#F39211"/>
		<stop  offset="1" style="stop-color:#3F6BB2"/>
	</linearGradient>
	<path class="st7" d="M54.2,113.6h18.4v1.4H54.2V113.6z"/>
	
		<linearGradient id="SVGID_5_" gradientUnits="userSpaceOnUse" x1="-525.1705" y1="840.049" x2="-504.9034" y2="851.7501" gradientTransform="matrix(1 0 0 1 579.04 -722.3845)">
		<stop  offset="0" style="stop-color:#F39211"/>
		<stop  offset="1" style="stop-color:#9F7FB8"/>
	</linearGradient>
	<path class="st8" d="M53,118l0.7-1.2L75,129l-0.7,1.2L53,118z"/>
	
		<linearGradient id="SVGID_6_" gradientUnits="userSpaceOnUse" x1="-514.391" y1="857.5994" x2="-504.9681" y2="854.0983" gradientTransform="matrix(1 0 0 1 579.04 -722.3845)">
		<stop  offset="0" style="stop-color:#1EBCEF"/>
		<stop  offset="1" style="stop-color:#9F7FB8"/>
	</linearGradient>
	<path class="st9" d="M64.5,136l-0.5-1.3l10.3-3.7l0.4,1.3L64.5,136z"/>
	
		<linearGradient id="SVGID_7_" gradientUnits="userSpaceOnUse" x1="-489.4057" y1="850.6916" x2="-499.9978" y2="852.7148" gradientTransform="matrix(1 0 0 1 579.04 -722.3845)">
		<stop  offset="0" style="stop-color:#EA5197"/>
		<stop  offset="1" style="stop-color:#9F7FB8"/>
	</linearGradient>
	<path class="st10" d="M89.8,127.6L90,129l-11.1,2.1l-0.2-1.4L89.8,127.6z"/>
	
		<linearGradient id="SVGID_8_" gradientUnits="userSpaceOnUse" x1="-515.8974" y1="808.0165" x2="-528.4738" y2="812.8566" gradientTransform="matrix(1 0 0 1 579.04 -722.3845)">
		<stop  offset="0" style="stop-color:#6FB752"/>
		<stop  offset="1" style="stop-color:#CE1417"/>
	</linearGradient>
	<path class="st11" d="M63.3,84.8l0.5,1.3l-13.4,5.2L49.9,90L63.3,84.8z"/>
	
		<linearGradient id="SVGID_9_" gradientUnits="userSpaceOnUse" x1="-514.1432" y1="816.4011" x2="-513.5626" y2="809.4019" gradientTransform="matrix(1 0 0 1 579.04 -722.3845)">
		<stop  offset="0" style="stop-color:#A9A9A9"/>
		<stop  offset="0.184" style="stop-color:#A2AEA1"/>
		<stop  offset="0.484" style="stop-color:#8EBA89"/>
		<stop  offset="0.861" style="stop-color:#73BA62"/>
		<stop  offset="1" style="stop-color:#6FB752"/>
	</linearGradient>
	<path class="st12" d="M65.6,94.2L64.2,94l0.6-7.2l1.4,0.1L65.6,94.2z"/>
	
		<linearGradient id="SVGID_10_" gradientUnits="userSpaceOnUse" x1="-490.5839" y1="817.1567" x2="-510.8253" y2="808.1799" gradientTransform="matrix(1 0 0 1 579.04 -722.3845)">
		<stop  offset="0" style="stop-color:#F8BF00"/>
		<stop  offset="1" style="stop-color:#6FB752"/>
	</linearGradient>
	<path class="st13" d="M89.2,94.3l-0.5,1.2l-21.2-9.3l0.5-1.3L89.2,94.3z"/>
	
		<linearGradient id="SVGID_11_" gradientUnits="userSpaceOnUse" x1="-490.459" y1="819.0021" x2="-510.8474" y2="819.9553" gradientTransform="matrix(1 0 0 1 579.04 -722.3845)">
		<stop  offset="0" style="stop-color:#F8BF00"/>
		<stop  offset="0.6" style="stop-color:#B6AD91"/>
		<stop  offset="1" style="stop-color:#A9A9A9"/>
	</linearGradient>
	<path class="st14" d="M88.6,95.9l0.1,1.5l-20.5,1l-0.1-1.5L88.6,95.9z"/>
	
		<linearGradient id="SVGID_12_" gradientUnits="userSpaceOnUse" x1="-503.9545" y1="839.0488" x2="-502.689" y2="850.9315" gradientTransform="matrix(1 0 0 1 579.04 -722.3845)">
		<stop  offset="0" style="stop-color:#3F6BB2"/>
		<stop  offset="0.99" style="stop-color:#9F7FB8"/>
	</linearGradient>
	<path class="st15" d="M74.3,116.6l1.5-0.1l1.2,12.1l-1.4,0.1L74.3,116.6z"/>
	
		<linearGradient id="SVGID_13_" gradientUnits="userSpaceOnUse" x1="-512.2976" y1="823.6575" x2="-505.7041" y2="834.2665" gradientTransform="matrix(1 0 0 1 579.04 -722.3845)">
		<stop  offset="0" style="stop-color:#A9A9A9"/>
		<stop  offset="1" style="stop-color:#3F6BB2"/>
	</linearGradient>
	<path class="st16" d="M65.8,101.2l1.2-0.8l7.2,11.6l-1.2,0.8L65.8,101.2z"/>
	
		<linearGradient id="SVGID_14_" gradientUnits="userSpaceOnUse" x1="-487.4236" y1="822.5542" x2="-488.8383" y2="831.9051" gradientTransform="matrix(1 0 0 1 579.04 -722.3845)">
		<stop  offset="0" style="stop-color:#F8BF00"/>
		<stop  offset="1" style="stop-color:#2EB196"/>
	</linearGradient>
	<path class="st17" d="M90.9,99.9l1.4,0.2l-1.5,9.8l-1.4-0.2L90.9,99.9z"/>
	
		<linearGradient id="SVGID_15_" gradientUnits="userSpaceOnUse" x1="-493.1081" y1="835.9104" x2="-501.8042" y2="836.5189" gradientTransform="matrix(1 0 0 1 579.04 -722.3845)">
		<stop  offset="0" style="stop-color:#2EB196"/>
		<stop  offset="0.99" style="stop-color:#3F6BB2"/>
	</linearGradient>
	<path class="st18" d="M85.9,112.8l0.1,1.5l-8.9,0.6l-0.1-1.4L85.9,112.8z"/>
	
		<linearGradient id="SVGID_16_" gradientUnits="userSpaceOnUse" x1="-488.802" y1="839.415" x2="-487.3858" y2="847.7614" gradientTransform="matrix(1 0 0 1 579.04 -722.3845)">
		<stop  offset="0" style="stop-color:#2EB196"/>
		<stop  offset="1" style="stop-color:#EA5197"/>
	</linearGradient>
	<path class="st19" d="M89.5,116.9l1.4-0.2l1.5,8.8l-1.4,0.2L89.5,116.9z"/>
	<path class="st20" d="M48.6,107.9c3.5,0.4,6.2,3.5,5.8,7.1c-0.4,3.5-3.5,6.2-7.1,5.8c-3.5-0.4-6.2-3.5-5.8-7.1
		C41.9,110.1,45.1,107.5,48.6,107.9z"/>
	<path class="st21" d="M90,109.4c2.1,0.2,3.7,2.1,3.5,4.2c-0.2,2.1-2.1,3.7-4.2,3.5c-2.1-0.2-3.7-2.1-3.5-4.2S87.9,109.3,90,109.4z"
		/>
	<path class="st22" d="M92.6,92.6c2.1,0.2,3.7,2.1,3.5,4.2c-0.2,2.1-2.1,3.7-4.2,3.5c-2.1-0.2-3.7-2.1-3.5-4.2
		C88.5,94,90.4,92.4,92.6,92.6z"/>
	<path class="st23" d="M65.9,82.1c1.4,0.1,2.5,1.4,2.4,2.8c-0.1,1.4-1.4,2.5-2.8,2.4c-1.4-0.1-2.5-1.4-2.4-2.8
		C63.2,83,64.5,82,65.9,82.1z"/>
	<path class="st24" d="M92.3,125.3c1.4,0.1,2.5,1.4,2.4,2.8s-1.4,2.5-2.8,2.4c-1.4-0.1-2.5-1.4-2.4-2.8
		C89.6,126.2,90.9,125.1,92.3,125.3z"/>
	<path class="st25" d="M57.1,137.3c-0.4-2.1,1.1-4.1,3.2-4.5c2.1-0.4,4.1,1.1,4.5,3.2c0.4,2.1-1.1,4.1-3.2,4.5
		C59.4,140.8,57.4,139.4,57.1,137.3z"/>
	<path class="st26" d="M50.5,92.4c-0.5,1.3-2,2-3.3,1.5c-1.4-0.5-2.1-2-1.5-3.3s2-2,3.3-1.5C50.2,89.6,50.9,91,50.5,92.4z"/>
	<path class="st2" d="M66.2,101.2c-1.9,0.9-4.3,0-5.1-1.9c-0.9-1.9,0-4.3,1.9-5.1c1.9-0.9,4.3,0,5.1,1.9
		C69,98.1,68.1,100.4,66.2,101.2z"/>
	<path class="st27" d="M74,116.7c-1.3-0.5-2-2-1.5-3.3c0.5-1.3,2-2,3.3-1.5c1.3,0.5,2,2,1.5,3.3C76.8,116.5,75.3,117.2,74,116.7z"/>
	<path class="st28" d="M74.6,132.4c-0.9-1.1-0.7-2.7,0.4-3.6c1.1-0.9,2.7-0.7,3.6,0.4c0.9,1.1,0.7,2.7-0.4,3.6
		C77.1,133.7,75.5,133.5,74.6,132.4z"/>
</g>
</svg>
