<svg width="27" height="27" viewBox="0 0 27 27" fill="none" xmlns="http://www.w3.org/2000/svg">
<path fill-rule="evenodd" clip-rule="evenodd" d="M16.004 12.8197H19.0556C19.5183 12.8197 19.8818 12.4372 19.8818 11.9759C19.8818 11.5034 19.5183 11.1321 19.0556 11.1321H16.004C15.5413 11.1321 15.1778 11.5034 15.1778 11.9759C15.1778 12.4372 15.5413 12.8197 16.004 12.8197ZM22.68 6.97024C23.352 6.97024 23.7927 7.20652 24.2333 7.72407C24.674 8.24163 24.7511 8.98421 24.652 9.65816L23.6054 17.039C23.4071 18.4577 22.2173 19.503 20.8182 19.503H8.79919C7.33399 19.503 6.12217 18.3565 6.00099 16.8713L4.98747 4.60636L3.32398 4.31383C2.88332 4.23507 2.57486 3.79627 2.65197 3.34622C2.72909 2.88605 3.15873 2.58114 3.61041 2.64977L6.23785 3.05369C6.61241 3.12232 6.88782 3.43623 6.92087 3.81877L7.13019 6.33905C7.16324 6.70021 7.44967 6.97024 7.80219 6.97024H22.68ZM8.6227 21.2812C7.69732 21.2812 6.94819 22.0463 6.94819 22.9914C6.94819 23.9253 7.69732 24.6904 8.6227 24.6904C9.53708 24.6904 10.2862 23.9253 10.2862 22.9914C10.2862 22.0463 9.53708 21.2812 8.6227 21.2812ZM21.0163 21.2812C20.0909 21.2812 19.3418 22.0463 19.3418 22.9914C19.3418 23.9253 20.0909 24.6904 21.0163 24.6904C21.9307 24.6904 22.6798 23.9253 22.6798 22.9914C22.6798 22.0463 21.9307 21.2812 21.0163 21.2812Z" fill="white"/>
</svg>
