<svg width="23" height="23" viewBox="0 0 23 23" fill="none" xmlns="http://www.w3.org/2000/svg">
<path opacity="0.4" d="M16.1586 0.640137H19.8917C21.4377 0.640137 22.6904 1.90345 22.6904 3.46252V7.22711C22.6904 8.78619 21.4377 10.0495 19.8917 10.0495H16.1586C14.6126 10.0495 13.3599 8.78619 13.3599 7.22711V3.46252C13.3599 1.90345 14.6126 0.640137 16.1586 0.640137Z" fill="white"/>
<path fill-rule="evenodd" clip-rule="evenodd" d="M3.43889 0.640137H7.17195C8.71797 0.640137 9.9707 1.90345 9.9707 3.46252V7.22711C9.9707 8.78619 8.71797 10.0495 7.17195 10.0495H3.43889C1.89287 10.0495 0.640137 8.78619 0.640137 7.22711V3.46252C0.640137 1.90345 1.89287 0.640137 3.43889 0.640137ZM3.43892 13.281H7.17199C8.718 13.281 9.97074 14.5443 9.97074 16.1033V19.8679C9.97074 21.426 8.718 22.6903 7.17199 22.6903H3.43892C1.8929 22.6903 0.640171 21.426 0.640171 19.8679V16.1033C0.640171 14.5443 1.8929 13.281 3.43892 13.281ZM19.8918 13.281H16.1587C14.6127 13.281 13.36 14.5443 13.36 16.1033V19.8679C13.36 21.426 14.6127 22.6903 16.1587 22.6903H19.8918C21.4378 22.6903 22.6905 21.426 22.6905 19.8679V16.1033C22.6905 14.5443 21.4378 13.281 19.8918 13.281Z" fill="white"/>
</svg>
