<svg width="27" height="27" viewBox="0 0 27 27" fill="none" xmlns="http://www.w3.org/2000/svg">
<path d="M9.08222 4.57767C11.3189 3.2531 12.4372 2.59082 13.6653 2.59082C14.8933 2.59082 16.0116 3.2531 18.2483 4.57767L19.0048 5.02567C21.2415 6.35023 22.3598 7.01252 22.9739 8.10337C23.5879 9.19423 23.5879 10.5188 23.5879 13.1679V14.0639C23.5879 16.7131 23.5879 18.0376 22.9739 19.1285C22.3598 20.2193 21.2415 20.8816 19.0048 22.2062L18.2483 22.6542C16.0116 23.9788 14.8933 24.641 13.6653 24.641C12.4372 24.641 11.3189 23.9788 9.08222 22.6542L8.32573 22.2062C6.08904 20.8816 4.9707 20.2193 4.35669 19.1285C3.74268 18.0376 3.74268 16.7131 3.74268 14.0639V13.1679C3.74268 10.5188 3.74268 9.19423 4.35669 8.10337C4.9707 7.01252 6.08904 6.35023 8.32573 5.02567L9.08222 4.57767Z" stroke="white" stroke-width="1.65377"/>
<circle cx="13.6654" cy="13.6161" r="3.30753" stroke="white" stroke-width="1.65377"/>
</svg>
