<svg width="96" height="96" viewBox="0 0 96 96" fill="none" xmlns="http://www.w3.org/2000/svg">
<g clip-path="url(#clip0_115_2635)">
<path d="M48 96C74.5097 96 96 74.5097 96 48C96 21.4903 74.5097 0 48 0C21.4903 0 0 21.4903 0 48C0 74.5097 21.4903 96 48 96Z" fill="#F3BA2F"/>
<path fill-rule="evenodd" clip-rule="evenodd" d="M48.3355 33.7223L37.9782 44.0784L37.9784 44.078L31.9523 38.0523L48.3355 21.6709L64.724 38.0572L58.6977 44.0829L48.3355 33.7223ZM27.6963 42.3065L21.6697 48.3332L27.6958 54.3579L33.7224 48.3319L27.6963 42.3065ZM37.9781 52.5889L48.3354 62.9444L58.6974 52.584L64.7269 58.6065L64.7239 58.6097L48.3354 74.9958L31.9522 58.6144L31.9436 58.6059L37.9781 52.5889ZM68.9738 42.3101L62.9472 48.336L68.9735 54.3615L74.9999 48.3356L68.9738 42.3101Z" fill="white"/>
</g>
<defs>
<clipPath id="clip0_115_2635">
<rect width="96" height="96" fill="white"/>
</clipPath>
</defs>
</svg>
