<svg width="20" height="20" viewBox="0 0 20 20" fill="none" xmlns="http://www.w3.org/2000/svg">
<circle cx="10" cy="10" r="10" fill="#ECEFF6"/>
<path d="M5.33994 10L5.34732 12.7078L7.64811 14.0617V15.6469L4.00082 13.5078V9.2082L5.33994 10ZM5.33994 7.29225V8.87014L4 8.0775V6.49961L5.33994 5.70697L6.68644 6.49961L5.33994 7.29225ZM8.60895 6.49961L9.94889 5.70697L11.2954 6.49961L9.94889 7.29225L8.60895 6.49961Z" fill="#F0B90B"/>
<path d="M6.30811 12.1465V10.5613L7.64804 11.3539V12.9318L6.30811 12.1465ZM8.60889 14.6295L9.94883 15.4221L11.2953 14.6295V16.2074L9.94883 17L8.60889 16.2074V14.6295ZM13.217 6.49961L14.557 5.70697L15.9035 6.49961V8.0775L14.557 8.87014V7.29225L13.217 6.49961ZM14.557 12.7078L14.5643 10L15.9043 9.20738V13.507L12.257 15.6461V14.0609L14.557 12.7078Z" fill="#F0B90B"/>
<path d="M13.5962 12.1466L12.2562 12.9318V11.3539L13.5962 10.5613V12.1466Z" fill="#F0B90B"/>
<path d="M13.5961 7.85347L13.6035 9.43875L11.2961 10.7926V13.507L9.95621 14.2922L8.61627 13.507V10.7926L6.30893 9.43875V7.85347L7.65461 7.06084L9.94801 8.42129L12.2554 7.06084L13.6019 7.85347H13.5961ZM6.30811 5.14652L9.94883 3L13.5961 5.14652L12.2562 5.93916L9.94883 4.57871L7.64804 5.93916L6.30811 5.14652Z" fill="#F0B90B"/>
</svg>
