<svg width="98" height="13" viewBox="0 0 98 13" fill="none" xmlns="http://www.w3.org/2000/svg">
<path d="M5.392 12.692C3.392 12.692 1.552 12.068 0.144 10.836L1.872 8.772C3.008 9.668 4.224 10.116 5.504 10.116C6.352 10.116 6.8 9.844 6.8 9.348V9.316C6.8 8.836 6.432 8.612 4.896 8.228C2.528 7.684 0.672 7.028 0.672 4.724V4.692C0.672 2.596 2.32 1.108 5.008 1.108C6.928 1.108 8.4 1.62 9.616 2.596L8.064 4.788C7.04 4.036 5.936 3.684 4.928 3.684C4.176 3.684 3.808 3.972 3.808 4.404V4.436C3.808 4.932 4.192 5.188 5.76 5.524C8.32 6.084 9.92 6.916 9.92 9.012V9.044C9.92 11.332 8.112 12.692 5.392 12.692ZM11.2535 12.5V3.844H14.2935V5.028C14.8535 4.308 15.6535 3.652 16.8695 3.652C18.0215 3.652 18.9015 4.164 19.3655 5.06C20.1175 4.18 20.9815 3.652 22.2615 3.652C24.1175 3.652 25.2215 4.788 25.2215 6.82V12.5H22.1815V7.796C22.1815 6.836 21.7175 6.34 20.9975 6.34C20.2775 6.34 19.7495 6.836 19.7495 7.796V12.5H16.7255V7.796C16.7255 6.836 16.2455 6.34 15.5255 6.34C14.8055 6.34 14.2935 6.836 14.2935 7.796V12.5H11.2535ZM29.2648 12.692C27.6168 12.692 26.3688 11.732 26.3688 10.02V9.988C26.3688 8.18 27.7288 7.268 29.7608 7.268C30.5768 7.268 31.3448 7.412 31.8408 7.604V7.46C31.8408 6.548 31.2808 6.036 30.1128 6.036C29.2008 6.036 28.4968 6.212 27.7128 6.516L27.0888 4.388C28.0648 3.988 29.1048 3.716 30.5928 3.716C32.1448 3.716 33.2008 4.084 33.8888 4.772C34.5448 5.412 34.8168 6.308 34.8168 7.524V12.5H31.8248V11.588C31.2008 12.244 30.4168 12.692 29.2648 12.692ZM30.3528 10.788C31.2488 10.788 31.8728 10.244 31.8728 9.364V8.964C31.5528 8.836 31.1208 8.74 30.6727 8.74C29.7768 8.74 29.2808 9.156 29.2808 9.812V9.844C29.2808 10.436 29.7288 10.788 30.3528 10.788ZM36.3629 12.5V3.844H39.4029V5.588C39.8989 4.42 40.6829 3.636 42.1389 3.7V6.9H41.8829C40.2829 6.9 39.4029 7.796 39.4029 9.796V12.5H36.3629ZM46.6466 12.676C44.8066 12.676 43.7506 11.876 43.7506 9.812V6.276H42.7266V3.844H43.7506V1.652H46.7746V3.844H48.7906V6.276H46.7746V9.22C46.7746 9.844 47.0466 10.084 47.6066 10.084C48.0066 10.084 48.3906 9.972 48.7586 9.796V12.164C48.1986 12.468 47.4946 12.676 46.6466 12.676ZM50.2733 12.5V1.3H54.6093C58.5933 1.3 60.9133 3.588 60.9133 6.836V6.868C60.9133 10.116 58.5613 12.5 54.5453 12.5H50.2733ZM54.6413 4.036H53.3773V9.748H54.6413C56.5133 9.748 57.7453 8.724 57.7453 6.916V6.884C57.7453 5.076 56.5133 4.036 54.6413 4.036ZM66.6513 12.708C63.9313 12.708 62.0113 10.884 62.0113 8.212V8.18C62.0113 5.668 63.8193 3.652 66.3793 3.652C69.3553 3.652 70.7313 5.844 70.7313 8.388C70.7313 8.58 70.7313 8.804 70.7153 9.012H64.9233C65.1633 9.972 65.8353 10.436 66.7953 10.436C67.5473 10.436 68.0913 10.18 68.7153 9.556L70.3953 10.948C69.5633 12.02 68.3793 12.708 66.6513 12.708ZM64.8753 7.46H67.8993C67.7873 6.5 67.2113 5.892 66.3793 5.892C65.5633 5.892 65.0513 6.5 64.8753 7.46ZM72.2264 12.5V1.3H81.1864V4.02H75.3304V5.924H80.6264V8.5H75.3304V12.5H72.2264ZM82.457 3.06V0.82H85.609V3.06H82.457ZM82.521 12.5V3.844H85.545V12.5H82.521ZM91.7975 6.228V1.3H93.2375L94.4215 3.204L95.5895 1.3H97.0295V6.228H95.6855V3.332L94.4375 5.3H94.3735L93.1255 3.332V6.228H91.7975ZM88.1655 6.228V2.5H86.7095V1.3H91.0135V2.5H89.5415V6.228H88.1655Z" fill="#F9F9F9"/>
</svg>
