<svg width="26" height="17" viewBox="0 0 26 17" fill="none" xmlns="http://www.w3.org/2000/svg">
    <path
        d="M5.31313 3.62567C9.54631 -0.54189 16.4088 -0.54189 20.642 3.62567L21.1515 4.12787C21.2017 4.17687 21.2416 4.2355 21.2688 4.30031C21.2961 4.36511 21.3101 4.43476 21.3101 4.50513C21.3101 4.5755 21.2961 4.64515 21.2688 4.70995C21.2416 4.77476 21.2017 4.83339 21.1515 4.88239L19.4082 6.59858C19.3569 6.64871 19.2883 6.67676 19.2168 6.67676C19.1453 6.67676 19.0766 6.64871 19.0253 6.59858L18.3243 5.90775C15.3713 3.00013 10.5838 3.00013 7.6308 5.90775L6.88014 6.64776C6.82882 6.69813 6.75997 6.72632 6.68827 6.72632C6.61658 6.72632 6.54772 6.69813 6.4964 6.64776L4.75394 4.93075C4.70374 4.88176 4.66384 4.82312 4.63658 4.75832C4.60933 4.69351 4.59529 4.62386 4.59529 4.5535C4.59529 4.48313 4.60933 4.41348 4.63658 4.34867C4.66384 4.28387 4.70374 4.22523 4.75394 4.17624L5.31313 3.62567ZM24.2463 7.17495L25.7964 8.70252C25.8466 8.75151 25.8865 8.81015 25.9138 8.87495C25.9411 8.93976 25.9551 9.00941 25.9551 9.07977C25.9551 9.15014 25.9411 9.21979 25.9138 9.2846C25.8865 9.3494 25.8466 9.40804 25.7964 9.45703L18.8026 16.3436C18.6999 16.4437 18.5626 16.4996 18.4196 16.4996C18.2767 16.4996 18.1394 16.4437 18.0367 16.3436L13.0737 11.4562C13.048 11.4312 13.0137 11.4172 12.978 11.4172C12.9422 11.4172 12.9079 11.4312 12.8822 11.4562L7.91921 16.3436C7.8165 16.4439 7.679 16.5 7.53587 16.5C7.39274 16.5 7.25523 16.4439 7.15253 16.3436L0.158656 9.45703C0.108458 9.40804 0.0685496 9.3494 0.0412963 9.2846C0.014043 9.21979 0 9.15014 0 9.07977C0 9.00941 0.014043 8.93976 0.0412963 8.87495C0.0685496 8.81015 0.108458 8.75151 0.158656 8.70252L1.70964 7.17495C1.81235 7.07464 1.94985 7.01853 2.09299 7.01853C2.23612 7.01853 2.37362 7.07464 2.47633 7.17495L7.44013 12.0632C7.46583 12.0881 7.50015 12.1021 7.53587 12.1021C7.57159 12.1021 7.60591 12.0881 7.6316 12.0632L12.5946 7.17495C12.6973 7.07464 12.8348 7.01853 12.978 7.01853C13.1211 7.01853 13.2586 7.07464 13.3613 7.17495L18.3251 12.0632C18.3508 12.0884 18.3853 12.1025 18.4212 12.1025C18.4571 12.1025 18.4916 12.0884 18.5174 12.0632L23.4804 7.17495C23.583 7.07488 23.7204 7.01892 23.8633 7.01892C24.0063 7.01892 24.1436 7.07488 24.2463 7.17495Z"
        fill="url(#paint0_linear_644_11725)" />
    <defs>
        <linearGradient id="paint0_linear_644_11725" x1="0" y1="16.5005" x2="25.9551" y2="16.5005"
            gradientUnits="userSpaceOnUse">
            <stop stop-color="#A845D8" />
            <stop offset="1" stop-color="#B8068F" />
        </linearGradient>
    </defs>
</svg>
    