<svg width="13" height="14" viewBox="0 0 13 14" fill="none" xmlns="http://www.w3.org/2000/svg">
<path d="M12.9987 2.53166C12.9987 2.98865 12.6357 3.41009 12.0238 3.75029C11.285 4.15904 10.1832 4.44847 8.91886 4.53479C8.82492 4.48909 8.73098 4.44593 8.63197 4.40785C7.63168 3.98894 6.30134 3.75029 4.87452 3.75029C4.6638 3.75029 4.45816 3.75537 4.25251 3.76553L4.22459 3.75029C3.61273 3.41009 3.24968 2.98865 3.24968 2.53166C3.24968 1.40951 5.43306 0.50061 8.12421 0.50061C10.8154 0.50061 12.9987 1.40951 12.9987 2.53166ZM4.07987 4.59064C4.33883 4.57287 4.60541 4.56271 4.87452 4.56271C6.45367 4.56271 7.85509 4.87499 8.74622 5.3599C9.37584 5.70264 9.74905 6.12916 9.74905 6.59377C9.74905 6.69532 9.73128 6.79433 9.69573 6.89081C9.57895 7.22593 9.26413 7.53313 8.80715 7.79209C8.80461 7.79462 8.79953 7.79462 8.79699 7.79716C8.78938 7.80224 8.78176 7.80478 8.77414 7.80986C7.88556 8.30239 6.4689 8.62228 4.87452 8.62228C3.36139 8.62228 2.0082 8.33539 1.112 7.88348C1.06376 7.86063 1.01806 7.83525 0.972366 7.80986C0.36305 7.4722 0 7.05075 0 6.59377C0 5.71026 1.35573 4.95623 3.24968 4.6795C3.51626 4.64142 3.79299 4.61095 4.07987 4.59064ZM10.5615 6.59377C10.5615 6.03777 10.2924 5.58078 9.94961 5.23804C10.6681 5.12633 11.3257 4.94861 11.8842 4.71758C12.298 4.54494 12.6839 4.33168 12.9987 4.07018V4.96892C12.9987 5.45892 12.5798 5.91082 11.8867 6.26118C11.5161 6.44905 11.0642 6.609 10.5564 6.73086C10.5589 6.68516 10.5615 6.642 10.5615 6.5963V6.59377ZM9.74905 9.03103C9.74905 9.48801 9.386 9.90946 8.77414 10.2497C8.72845 10.275 8.68275 10.2979 8.63451 10.3233C7.74085 10.7752 6.38766 11.0621 4.87452 11.0621C3.28015 11.0621 1.86349 10.7422 0.974905 10.2497C0.363051 9.90946 0 9.48801 0 9.03103V8.13229C0.317352 8.39378 0.700713 8.60705 1.11454 8.77969C2.11737 9.19859 3.44771 9.43724 4.87452 9.43724C6.30134 9.43724 7.63168 9.19859 8.63451 8.77969C8.83254 8.69844 9.02295 8.60451 9.2032 8.50295C9.35807 8.41663 9.50278 8.32016 9.63988 8.21861C9.67796 8.19068 9.7135 8.16021 9.74905 8.13229V8.21861V8.36332V9.03103ZM10.5615 9.03103V8.21861V7.56105C11.0438 7.45442 11.4881 7.31987 11.8842 7.15484C12.298 6.9822 12.6839 6.76894 12.9987 6.50745V7.40619C12.9987 7.67276 12.8718 7.93934 12.6204 8.19068C12.2066 8.60451 11.478 8.94471 10.5564 9.16558C10.5589 9.12242 10.5615 9.07673 10.5615 9.03103ZM4.87452 11.8745C6.30134 11.8745 7.63168 11.6359 8.63451 11.2169C9.04834 11.0443 9.43423 10.831 9.74905 10.5695V11.4683C9.74905 12.5904 7.56567 13.4993 4.87452 13.4993C2.18338 13.4993 0 12.5904 0 11.4683V10.5695C0.317352 10.831 0.700713 11.0443 1.11454 11.2169C2.11737 11.6359 3.44771 11.8745 4.87452 11.8745Z" fill="#F9F9F9"/>
</svg>
