<svg width="13" height="12" viewBox="0 0 13 12" fill="none" xmlns="http://www.w3.org/2000/svg">
<path d="M0.722152 0.944946C0.322712 0.944946 0 1.26766 0 1.6671C0 2.06654 0.322712 2.38925 0.722152 2.38925H1.62484V3.83355H0V6.72216C1.19606 6.72216 2.16646 7.69255 2.16646 8.88862V10.3329C2.16646 10.7324 2.48917 11.0551 2.88861 11.0551H3.61076C4.0102 11.0551 4.33291 10.7324 4.33291 10.3329V8.88862C4.33291 7.69255 5.3033 6.72216 6.49937 6.72216C7.69543 6.72216 8.66582 7.69255 8.66582 8.88862V10.3329C8.66582 10.7324 8.98853 11.0551 9.38797 11.0551H10.1101C10.5096 11.0551 10.8323 10.7324 10.8323 10.3329V8.88862C10.8323 7.69255 11.8027 6.72216 12.9987 6.72216V3.83355H11.3739V2.38925H12.2766C12.676 2.38925 12.9987 2.06654 12.9987 1.6671C12.9987 1.26766 12.676 0.944946 12.2766 0.944946H0.722152ZM10.2907 2.38925V3.83355H8.48528V2.38925H10.2907ZM7.40205 2.38925V3.83355H5.59668V2.38925H7.40205ZM4.51345 2.38925V3.83355H2.70807V2.38925H4.51345Z" fill="#F9F9F9"/>
</svg>
