<svg width="20" height="20" viewBox="0 0 20 20" fill="none" xmlns="http://www.w3.org/2000/svg">
<g clip-path="url(#clip0_2931_8255)">
<path fill-rule="evenodd" clip-rule="evenodd" d="M9.96091 0C11.9387 0 13.8721 0.58649 15.5166 1.6853C17.1611 2.78412 18.4428 4.3459 19.1997 6.17317C19.9566 8.00043 20.1546 10.0111 19.7688 11.9509C19.3829 13.8907 18.4305 15.6725 17.032 17.0711C15.6334 18.4696 13.8516 19.422 11.9118 19.8079C9.972 20.1937 7.96133 19.9957 6.13407 19.2388C4.30681 18.4819 2.74502 17.2002 1.64621 15.5557C0.547397 13.9112 -0.039093 11.9778 -0.039093 10C-0.039093 7.34783 1.01448 4.8043 2.88984 2.92893C4.7652 1.05357 7.30874 0 9.96091 0V0Z" fill="white"/>
<path fill-rule="evenodd" clip-rule="evenodd" d="M9.96092 2.14728L12.5918 6.07819L15.2227 10.01L9.96092 12.6609L4.6991 10L7.33001 6.06819L9.96092 2.14728ZM9.96092 13.72L4.99092 11.0682L9.96092 17.8527L14.9309 11.0682L9.96092 13.72Z" fill="#343434"/>
<path fill-rule="evenodd" clip-rule="evenodd" d="M9.96091 2.14728L12.5918 6.06819L15.2227 10L9.96091 8.01364V2.14728Z" fill="#343434"/>
<path fill-rule="evenodd" clip-rule="evenodd" d="M9.96091 13.72L14.9409 11.0682L9.96091 17.8627V13.72Z" fill="#313131"/>
<path fill-rule="evenodd" clip-rule="evenodd" d="M9.96091 8.01361L15.2227 9.99997L9.96091 12.6509V8.01361Z" fill="#151515"/>
<path fill-rule="evenodd" clip-rule="evenodd" d="M9.96091 2.14728L7.33001 6.06819L4.6991 10L9.96091 8.01364V2.14728Z" fill="#8C8C8C"/>
<path fill-rule="evenodd" clip-rule="evenodd" d="M9.96091 13.72L4.99091 11.0682L9.96091 17.8627V13.72Z" fill="#8A8A8A"/>
<path fill-rule="evenodd" clip-rule="evenodd" d="M9.96091 8.01361L4.6991 9.99997L9.96091 12.6509V8.01361Z" fill="#353535"/>
</g>
<defs>
<clipPath id="clip0_2931_8255">
<rect width="20" height="20" fill="white"/>
</clipPath>
</defs>
</svg>
