<svg width="12" height="14" viewBox="0 0 12 14" fill="none" xmlns="http://www.w3.org/2000/svg">
<path d="M11.6573 4.32536C11.9746 4.00801 11.9746 3.49263 11.6573 3.17528L9.22001 0.738014C8.90266 0.420662 8.38728 0.420662 8.06993 0.738014C7.75258 1.05537 7.75258 1.57074 8.06993 1.8881L9.121 2.93917H1.33445C0.885084 2.93917 0.522034 3.30222 0.522034 3.75159C0.522034 4.20096 0.885084 4.56401 1.33445 4.56401H9.121L8.06993 5.61508C7.75258 5.93243 7.75258 6.44781 8.06993 6.76516C8.38728 7.08251 8.90266 7.08251 9.22001 6.76516L11.6573 4.3279V4.32536ZM3.19541 13.262C3.51276 13.5793 4.02814 13.5793 4.34549 13.262C4.66284 12.9446 4.66284 12.4293 4.34549 12.1119L3.29696 11.0634H11.0835C11.5329 11.0634 11.8959 10.7003 11.8959 10.251C11.8959 9.80158 11.5329 9.43853 11.0835 9.43853H3.29696L4.34803 8.38746C4.66538 8.07011 4.66538 7.55473 4.34803 7.23738C4.03068 6.92003 3.5153 6.92003 3.19794 7.23738L0.760682 9.67464C0.44333 9.99199 0.44333 10.5074 0.760682 10.8247L3.19794 13.262H3.19541Z" fill="#F9F9F9"/>
</svg>
