<svg width="79" height="79" viewBox="0 0 79 79" fill="none" xmlns="http://www.w3.org/2000/svg">
<path d="M61.2805 39.6739C61.2805 27.8086 51.6618 18.1899 39.7965 18.1899C27.9312 18.1899 18.3125 27.8086 18.3125 39.6739C18.3125 51.5392 27.9312 61.1579 39.7965 61.1579C51.6618 61.1579 61.2805 51.5392 61.2805 39.6739Z" fill="#006FFF"/>
<path d="M30.4595 41.3779H46.7324V44.9941H39.5V50.4184L30.4595 41.3779ZM39.5 34.1455V28.7212L48.5405 37.7617H32.2676V34.1455H39.5Z" fill="white"/>
<path d="M70.127 39.6738C70.127 22.9228 56.5476 9.34348 39.7966 9.34348C23.0457 9.34348 9.46631 22.9228 9.46631 39.6738C9.46631 56.4248 23.0457 70.0041 39.7966 70.0041C56.5476 70.0041 70.127 56.4248 70.127 39.6738Z" stroke="#161D26" stroke-width="17.6927"/>
</svg>
