<svg width="171" height="170" viewBox="0 0 171 170" fill="none" xmlns="http://www.w3.org/2000/svg">
<path d="M68.6013 0.000488281H61.814V6.78819H68.6013V0.000488281Z" fill="white"/>
<path d="M61.8142 6.78955H55.0269V13.5773H61.8142V6.78955Z" fill="white"/>
<path d="M108.856 6.78955H102.069V13.5773H108.856V6.78955Z" fill="white"/>
<path d="M115.392 6.78955H108.604V13.5773H115.392V6.78955Z" fill="white"/>
<path d="M68.6013 6.78955H61.814V13.5773H68.6013V6.78955Z" fill="white"/>
<path d="M82.1765 6.78955H75.3892V13.5773H82.1765V6.78955Z" fill="white"/>
<path d="M88.9636 6.78955H82.1763V13.5773H88.9636V6.78955Z" fill="white"/>
<path d="M68.6013 13.5771H61.814V20.3649H68.6013V13.5771Z" fill="white"/>
<path d="M75.3874 13.5771H68.6001V20.3649H75.3874V13.5771Z" fill="white"/>
<path d="M82.1765 13.5771H75.3892V20.3649H82.1765V13.5771Z" fill="white"/>
<path d="M102.537 13.5771H95.75V20.3649H102.537V13.5771Z" fill="white"/>
<path d="M61.8142 20.3643H55.0269V27.152H61.8142V20.3643Z" fill="white"/>
<path d="M108.856 20.3643H102.069V27.152H108.856V20.3643Z" fill="white"/>
<path d="M68.6013 20.3643H61.814V27.152H68.6013V20.3643Z" fill="white"/>
<path d="M82.1765 20.3643H75.3892V27.152H82.1765V20.3643Z" fill="white"/>
<path d="M95.7497 20.3643H88.9624V27.152H95.7497V20.3643Z" fill="white"/>
<path d="M102.537 20.3643H95.75V27.152H102.537V20.3643Z" fill="white"/>
<path d="M75.3874 27.1523H68.6001V33.94H75.3874V27.1523Z" fill="white"/>
<path d="M88.9636 27.1523H82.1763V33.94H88.9636V27.1523Z" fill="white"/>
<path d="M116.407 27.1523H109.62V33.94H116.407V27.1523Z" fill="white"/>
<path d="M102.537 27.1523H95.75V33.94H102.537V27.1523Z" fill="white"/>
<path d="M61.8142 33.9414H55.0269V40.7291H61.8142V33.9414Z" fill="white"/>
<path d="M108.856 33.9414H102.069V40.7291H108.856V33.9414Z" fill="white"/>
<path d="M75.3874 33.9414H68.6001V40.7291H75.3874V33.9414Z" fill="white"/>
<path d="M95.7497 33.9414H88.9624V40.7291H95.7497V33.9414Z" fill="white"/>
<path d="M61.8142 40.729H55.0269V47.5167H61.8142V40.729Z" fill="white"/>
<path d="M108.856 40.729H102.069V47.5167H108.856V40.729Z" fill="white"/>
<path d="M75.3874 40.729H68.6001V47.5167H75.3874V40.729Z" fill="white"/>
<path d="M88.9636 40.729H82.1763V47.5167H88.9636V40.729Z" fill="white"/>
<path d="M102.537 40.729H95.75V47.5167H102.537V40.729Z" fill="white"/>
<path d="M88.9636 47.5166H82.1763V54.3043H88.9636V47.5166Z" fill="white"/>
<path d="M116.407 47.5166H109.62V54.3043H116.407V47.5166Z" fill="white"/>
<path d="M102.537 47.5166H95.75V54.3043H102.537V47.5166Z" fill="white"/>
<path d="M7.51437 54.3037H0.727051V61.0914H7.51437V54.3037Z" fill="white"/>
<path d="M14.3005 54.3037H7.51318V61.0914H14.3005V54.3037Z" fill="white"/>
<path d="M21.0866 54.3037H14.2993V61.0914H21.0866V54.3037Z" fill="white"/>
<path d="M27.8757 54.3037H21.0884V61.0914H27.8757V54.3037Z" fill="white"/>
<path d="M34.6628 54.3037H27.8755V61.0914H34.6628V54.3037Z" fill="white"/>
<path d="M48.239 54.3037H41.4517V61.0914H48.239V54.3037Z" fill="white"/>
<path d="M55.0241 54.3037H48.2368V61.0914H55.0241V54.3037Z" fill="white"/>
<path d="M61.8142 54.3037H55.0269V61.0914H61.8142V54.3037Z" fill="white"/>
<path d="M68.6013 54.3037H61.814V61.0914H68.6013V54.3037Z" fill="white"/>
<path d="M75.3874 54.3037H68.6001V61.0914H75.3874V54.3037Z" fill="white"/>
<path d="M88.9636 54.3037H82.1763V61.0914H88.9636V54.3037Z" fill="white"/>
<path d="M116.407 54.3037H109.62V61.0914H116.407V54.3037Z" fill="white"/>
<path d="M95.7497 54.3037H88.9624V61.0914H95.7497V54.3037Z" fill="white"/>
<path d="M102.537 54.3037H95.75V61.0914H102.537V54.3037Z" fill="white"/>
<path d="M14.3005 61.0923H7.51318V67.88H14.3005V61.0923Z" fill="white"/>
<path d="M41.4528 61.0923H34.6655V67.88H41.4528V61.0923Z" fill="white"/>
<path d="M68.6013 61.0923H61.814V67.88H68.6013V61.0923Z" fill="white"/>
<path d="M21.0866 67.8799H14.2993V74.6676H21.0866V67.8799Z" fill="white"/>
<path d="M27.8757 67.8799H21.0884V74.6676H27.8757V67.8799Z" fill="white"/>
<path d="M41.4528 67.8799H34.6655V74.6676H41.4528V67.8799Z" fill="white"/>
<path d="M48.239 67.8799H41.4517V74.6676H48.239V67.8799Z" fill="white"/>
<path d="M55.0241 67.8799H48.2368V74.6676H55.0241V67.8799Z" fill="white"/>
<path d="M61.8142 67.8799H55.0269V74.6676H61.8142V67.8799Z" fill="white"/>
<path d="M68.6013 67.8799H61.814V74.6676H68.6013V67.8799Z" fill="white"/>
<path d="M82.1765 67.8799H75.3892V74.6676H82.1765V67.8799Z" fill="white"/>
<path d="M88.9636 67.8799H82.1763V74.6676H88.9636V67.8799Z" fill="white"/>
<path d="M95.7497 67.8799H88.9624V74.6676H95.7497V67.8799Z" fill="white"/>
<path d="M102.537 67.8799H95.75V74.6676H102.537V67.8799Z" fill="white"/>
<path d="M109.327 67.8799H102.54V74.6676H109.327V67.8799Z" fill="white"/>
<path d="M116.113 67.8799H109.325V74.6676H116.113V67.8799Z" fill="white"/>
<path d="M122.902 67.8799H116.115V74.6676H122.902V67.8799Z" fill="white"/>
<path d="M129.689 67.8799H122.901V74.6676H129.689V67.8799Z" fill="white"/>
<path d="M143.265 67.8799H136.478V74.6676H143.265V67.8799Z" fill="white"/>
<path d="M150.051 67.8799H143.264V74.6676H150.051V67.8799Z" fill="white"/>
<path d="M163.627 67.8799H156.84V74.6676H163.627V67.8799Z" fill="white"/>
<path d="M170.413 67.8799H163.626V74.6676H170.413V67.8799Z" fill="white"/>
<path d="M21.0866 74.6694H14.2993V81.4571H21.0866V74.6694Z" fill="white"/>
<path d="M27.8757 74.6694H21.0884V81.4571H27.8757V74.6694Z" fill="white"/>
<path d="M61.8142 74.6694H55.0269V81.4571H61.8142V74.6694Z" fill="white"/>
<path d="M68.6013 74.6694H61.814V81.4571H68.6013V74.6694Z" fill="white"/>
<path d="M75.3874 74.6694H68.6001V81.4571H75.3874V74.6694Z" fill="white"/>
<path d="M82.1765 74.6694H75.3892V81.4571H82.1765V74.6694Z" fill="white"/>
<path d="M109.327 74.6694H102.54V81.4571H109.327V74.6694Z" fill="white"/>
<path d="M116.113 74.6694H109.325V81.4571H116.113V74.6694Z" fill="white"/>
<path d="M122.902 74.6694H116.115V81.4571H122.902V74.6694Z" fill="white"/>
<path d="M129.689 74.6694H122.901V81.4571H129.689V74.6694Z" fill="white"/>
<path d="M136.478 74.6694H129.691V81.4571H136.478V74.6694Z" fill="white"/>
<path d="M143.265 74.6694H136.478V81.4571H143.265V74.6694Z" fill="white"/>
<path d="M170.413 74.6694H163.626V81.4571H170.413V74.6694Z" fill="white"/>
<path d="M41.4528 81.4565H34.6655V88.2442H41.4528V81.4565Z" fill="white"/>
<path d="M48.239 81.4565H41.4517V88.2442H48.239V81.4565Z" fill="white"/>
<path d="M68.6013 81.4565H61.814V88.2442H68.6013V81.4565Z" fill="white"/>
<path d="M82.1765 81.4565H75.3892V88.2442H82.1765V81.4565Z" fill="white"/>
<path d="M102.537 81.4565H95.75V88.2442H102.537V81.4565Z" fill="white"/>
<path d="M109.327 81.4565H102.54V88.2442H109.327V81.4565Z" fill="white"/>
<path d="M122.902 81.4565H116.115V88.2442H122.902V81.4565Z" fill="white"/>
<path d="M129.689 81.4565H122.901V88.2442H129.689V81.4565Z" fill="white"/>
<path d="M143.265 81.4565H136.478V88.2442H143.265V81.4565Z" fill="white"/>
<path d="M156.84 81.4565H150.052V88.2442H156.84V81.4565Z" fill="white"/>
<path d="M163.627 81.4565H156.84V88.2442H163.627V81.4565Z" fill="white"/>
<path d="M170.413 81.4565H163.626V88.2442H170.413V81.4565Z" fill="white"/>
<path d="M7.51437 88.2441H0.727051V95.0318H7.51437V88.2441Z" fill="white"/>
<path d="M14.3005 88.2441H7.51318V95.0318H14.3005V88.2441Z" fill="white"/>
<path d="M21.0866 88.2441H14.2993V95.0318H21.0866V88.2441Z" fill="white"/>
<path d="M34.6628 88.2441H27.8755V95.0318H34.6628V88.2441Z" fill="white"/>
<path d="M61.8142 88.2441H55.0269V95.0318H61.8142V88.2441Z" fill="white"/>
<path d="M68.6013 88.2441H61.814V95.0318H68.6013V88.2441Z" fill="white"/>
<path d="M75.3874 88.2441H68.6001V95.0318H75.3874V88.2441Z" fill="white"/>
<path d="M88.9636 88.2441H82.1763V95.0318H88.9636V88.2441Z" fill="white"/>
<path d="M116.113 88.2441H109.325V95.0318H116.113V88.2441Z" fill="white"/>
<path d="M150.051 88.2441H143.264V95.0318H150.051V88.2441Z" fill="white"/>
<path d="M163.627 88.2441H156.84V95.0318H163.627V88.2441Z" fill="white"/>
<path d="M7.51437 95.0322H0.727051V101.82H7.51437V95.0322Z" fill="white"/>
<path d="M21.0866 95.0322H14.2993V101.82H21.0866V95.0322Z" fill="white"/>
<path d="M27.8757 95.0322H21.0884V101.82H27.8757V95.0322Z" fill="white"/>
<path d="M41.4528 95.0322H34.6655V101.82H41.4528V95.0322Z" fill="white"/>
<path d="M48.239 95.0322H41.4517V101.82H48.239V95.0322Z" fill="white"/>
<path d="M109.327 95.0322H102.54V101.82H109.327V95.0322Z" fill="white"/>
<path d="M116.113 95.0322H109.325V101.82H116.113V95.0322Z" fill="white"/>
<path d="M129.689 101.566H122.901V108.354H129.689V101.566Z" fill="white"/>
<path d="M150.051 95.0322H143.264V101.82H150.051V95.0322Z" fill="white"/>
<path d="M163.627 95.0322H156.84V101.82H163.627V95.0322Z" fill="white"/>
<path d="M170.413 95.0322H163.626V101.82H170.413V95.0322Z" fill="white"/>
<path d="M7.51437 101.821H0.727051V108.609H7.51437V101.821Z" fill="white"/>
<path d="M61.8142 101.821H55.0269V108.609H61.8142V101.821Z" fill="white"/>
<path d="M88.9636 101.821H82.1763V108.609H88.9636V101.821Z" fill="white"/>
<path d="M102.537 101.821H95.75V108.609H102.537V101.821Z" fill="white"/>
<path d="M109.327 101.821H102.54V108.609H109.327V101.821Z" fill="white"/>
<path d="M116.113 101.821H109.325V108.609H116.113V101.821Z" fill="white"/>
<path d="M122.902 101.821H116.115V108.609H122.902V101.821Z" fill="white"/>
<path d="M129.689 108.355H122.901V115.143H129.689V108.355Z" fill="white"/>
<path d="M136.478 101.821H129.691V108.609H136.478V101.821Z" fill="white"/>
<path d="M143.265 101.821H136.478V108.609H143.265V101.821Z" fill="white"/>
<path d="M150.051 101.821H143.264V108.609H150.051V101.821Z" fill="white"/>
<path d="M170.413 101.821H163.626V108.609H170.413V101.821Z" fill="white"/>
<path d="M7.51437 108.608H0.727051V115.396H7.51437V108.608Z" fill="white"/>
<path d="M27.8757 108.608H21.0884V115.396H27.8757V108.608Z" fill="white"/>
<path d="M34.6628 108.608H27.8755V115.396H34.6628V108.608Z" fill="white"/>
<path d="M41.4528 108.608H34.6655V115.396H41.4528V108.608Z" fill="white"/>
<path d="M48.239 108.608H41.4517V115.396H48.239V108.608Z" fill="white"/>
<path d="M68.6013 108.608H61.814V115.396H68.6013V108.608Z" fill="white"/>
<path d="M75.3874 108.608H68.6001V115.396H75.3874V108.608Z" fill="white"/>
<path d="M88.9636 108.608H82.1763V115.396H88.9636V108.608Z" fill="white"/>
<path d="M95.7497 108.608H88.9624V115.396H95.7497V108.608Z" fill="white"/>
<path d="M102.537 108.608H95.75V115.396H102.537V108.608Z" fill="white"/>
<path d="M116.113 108.608H109.325V115.396H116.113V108.608Z" fill="white"/>
<path d="M122.902 108.608H116.115V115.396H122.902V108.608Z" fill="white"/>
<path d="M129.689 115.143H122.901V121.93H129.689V115.143Z" fill="white"/>
<path d="M129.689 61.563H122.901V68.3507H129.689V61.563Z" fill="white"/>
<path d="M136.478 108.608H129.691V115.396H136.478V108.608Z" fill="white"/>
<path d="M136.478 55.0278H129.691V61.8155H136.478V55.0278Z" fill="white"/>
<path d="M143.265 108.608H136.478V115.396H143.265V108.608Z" fill="white"/>
<path d="M143.265 55.0278H136.478V61.8155H143.265V55.0278Z" fill="white"/>
<path d="M156.84 108.608H150.052V115.396H156.84V108.608Z" fill="white"/>
<path d="M156.84 55.0278H150.052V61.8155H156.84V55.0278Z" fill="white"/>
<path d="M61.8142 115.396H55.0269V122.184H61.8142V115.396Z" fill="white"/>
<path d="M75.3874 115.396H68.6001V122.184H75.3874V115.396Z" fill="white"/>
<path d="M102.537 115.396H95.75V122.184H102.537V115.396Z" fill="white"/>
<path d="M109.327 115.396H102.54V122.184H109.327V115.396Z" fill="white"/>
<path d="M116.113 115.396H109.325V122.184H116.113V115.396Z" fill="white"/>
<path d="M61.8142 122.184H55.0269V128.971H61.8142V122.184Z" fill="white"/>
<path d="M68.6013 122.184H61.814V128.971H68.6013V122.184Z" fill="white"/>
<path d="M75.3874 122.184H68.6001V128.971H75.3874V122.184Z" fill="white"/>
<path d="M82.1765 122.184H75.3892V128.971H82.1765V122.184Z" fill="white"/>
<path d="M88.9636 122.184H82.1763V128.971H88.9636V122.184Z" fill="white"/>
<path d="M82.1765 128.971H75.3892V135.759H82.1765V128.971Z" fill="white"/>
<path d="M116.113 128.971H109.325V135.759H116.113V128.971Z" fill="white"/>
<path d="M61.8142 135.761H55.0269V142.548H61.8142V135.761Z" fill="white"/>
<path d="M75.3874 135.761H68.6001V142.548H75.3874V135.761Z" fill="white"/>
<path d="M82.1765 135.761H75.3892V142.548H82.1765V135.761Z" fill="white"/>
<path d="M109.327 135.761H102.54V142.548H109.327V135.761Z" fill="white"/>
<path d="M61.8142 142.548H55.0269V149.336H61.8142V142.548Z" fill="white"/>
<path d="M75.3874 142.548H68.6001V149.336H75.3874V142.548Z" fill="white"/>
<path d="M88.9636 142.548H82.1763V149.336H88.9636V142.548Z" fill="white"/>
<path d="M95.7497 142.548H88.9624V149.336H95.7497V142.548Z" fill="white"/>
<path d="M109.327 142.548H102.54V149.336H109.327V142.548Z" fill="white"/>
<path d="M61.8142 149.335H55.0269V156.123H61.8142V149.335Z" fill="white"/>
<path d="M68.6013 149.335H61.814V156.123H68.6013V149.335Z" fill="white"/>
<path d="M95.7497 149.335H88.9624V156.123H95.7497V149.335Z" fill="white"/>
<path d="M102.537 149.335H95.75V156.123H102.537V149.335Z" fill="white"/>
<path d="M116.113 149.335H109.325V156.123H116.113V149.335Z" fill="white"/>
<path d="M61.8142 156.124H55.0269V162.911H61.8142V156.124Z" fill="white"/>
<path d="M88.9636 156.124H82.1763V162.911H88.9636V156.124Z" fill="white"/>
<path d="M95.7497 156.124H88.9624V162.911H95.7497V156.124Z" fill="white"/>
<path d="M109.327 156.124H102.54V162.911H109.327V156.124Z" fill="white"/>
<path d="M116.113 156.124H109.325V162.911H116.113V156.124Z" fill="white"/>
<path d="M61.8142 162.911H55.0269V169.699H61.8142V162.911Z" fill="white"/>
<path d="M88.9636 162.911H82.1763V169.699H88.9636V162.911Z" fill="white"/>
<path d="M102.537 162.911H95.75V169.699H102.537V162.911Z" fill="white"/>
<path d="M109.327 162.911H102.54V169.699H109.327V162.911Z" fill="white"/>
<path d="M31.5614 121.536H16.6029C13.1465 121.528 9.77922 122.632 6.99851 124.685C4.2178 126.738 2.17114 129.631 1.16089 132.937C0.955087 133.622 0.796596 134.321 0.686539 135.028C0.562547 135.831 0.500511 136.641 0.500979 137.454V152.77C0.530004 157.015 2.24151 161.075 5.26009 164.06C8.27867 167.045 12.3578 168.711 16.6029 168.692H31.5614C35.8066 168.711 39.886 167.045 42.9046 164.06C45.9232 161.075 47.6346 157.014 47.6633 152.768V137.454C47.6332 133.209 45.9212 129.15 42.9027 126.166C39.8842 123.182 35.8056 121.517 31.5614 121.536ZM40.5885 152.77C40.5619 155.14 39.5963 157.403 37.9034 159.061C36.2106 160.72 33.9288 161.64 31.5588 161.618H16.6042C14.2344 161.64 11.9528 160.72 10.26 159.062C8.56717 157.403 7.60137 155.141 7.57447 152.771V137.454C7.57301 135.979 7.94862 134.528 8.66562 133.239C9.33972 132.031 10.2838 130.996 11.4242 130.214C12.9473 129.166 14.7532 128.608 16.6016 128.612H31.5614C33.9302 128.59 36.211 129.509 37.9033 131.167C39.5956 132.824 40.5612 135.086 40.5885 137.455V152.77Z" fill="white"/>
<path d="M31.5614 1.30827H16.6029C13.1465 1.30033 9.77922 2.40442 6.99851 4.45742C4.2178 6.51042 2.17114 9.40345 1.16089 12.7091C0.955087 13.3944 0.796596 14.093 0.686539 14.8C0.562547 15.6026 0.500511 16.4135 0.500979 17.2255V32.5416C0.530004 36.7868 2.24151 40.8472 5.26009 43.8322C8.27867 46.8171 12.3578 48.4829 16.6029 48.4641H31.5614C35.8066 48.4829 39.886 46.8169 42.9046 43.8317C45.9232 40.8465 47.6346 36.7858 47.6633 32.5403V17.2255C47.6332 12.9811 45.9212 8.92185 42.9027 5.93796C39.8842 2.95407 35.8056 1.28913 31.5614 1.30827ZM40.5885 32.5416C40.5619 34.9117 39.5963 37.1745 37.9034 38.8334C36.2106 40.4923 33.9288 41.4118 31.5588 41.3902H16.6042C14.2344 41.4118 11.9528 40.4925 10.26 38.8338C8.56717 37.1752 7.60137 34.9128 7.57447 32.5429V17.2255C7.57301 15.7506 7.94862 14.2998 8.66562 13.011C9.33972 11.8034 10.2838 10.768 11.4242 9.98565C12.9473 8.93837 14.7532 8.37954 16.6016 8.38347H31.5614C33.9302 8.36186 36.211 9.28076 37.9033 10.9386C39.5956 12.5965 40.5612 14.8579 40.5885 17.2268V32.5416Z" fill="white"/>
<path d="M154.397 122.844H139.438C135.982 122.836 132.615 123.94 129.834 125.993C127.053 128.046 125.007 130.939 123.996 134.245C123.791 134.93 123.632 135.629 123.522 136.336C123.398 137.138 123.336 137.949 123.336 138.761V154.077C123.365 158.322 125.077 162.383 128.096 165.368C131.114 168.353 135.193 170.019 139.438 170H154.397C158.642 170.019 162.721 168.353 165.74 165.367C168.759 162.382 170.47 158.321 170.499 154.076V138.761C170.469 134.517 168.757 130.457 165.738 127.474C162.72 124.49 158.641 122.825 154.397 122.844ZM163.424 154.077C163.397 156.447 162.432 158.71 160.739 160.369C159.046 162.028 156.764 162.947 154.394 162.926H139.44C137.07 162.947 134.788 162.028 133.095 160.369C131.403 158.711 130.437 156.448 130.41 154.079V138.761C130.408 137.286 130.784 135.835 131.501 134.547C132.175 133.339 133.119 132.304 134.26 131.521C135.783 130.474 137.589 129.915 139.437 129.919H154.397C156.766 129.898 159.046 130.816 160.739 132.474C162.431 134.132 163.397 136.394 163.424 138.762V154.077Z" fill="white"/>
<path d="M154.397 0.000163166H139.438C135.982 -0.00777113 132.615 1.09632 129.834 3.14932C127.053 5.20232 125.007 8.09534 123.996 11.401C123.791 12.0863 123.632 12.7849 123.522 13.4919C123.398 14.2945 123.336 15.1054 123.336 15.9174V31.2335C123.365 35.4787 125.077 39.5391 128.096 42.5241C131.114 45.509 135.193 47.1748 139.438 47.156H154.397C158.642 47.1748 162.721 45.5088 165.74 42.5236C168.759 39.5384 170.47 35.4777 170.499 31.2322V15.9174C170.469 11.673 168.757 7.61374 165.738 4.62985C162.72 1.64596 158.641 -0.0189739 154.397 0.000163166ZM163.424 31.2335C163.397 33.6036 162.432 35.8664 160.739 37.5253C159.046 39.1842 156.764 40.1037 154.394 40.0821H139.44C137.07 40.1037 134.788 39.1844 133.095 37.5257C131.403 35.8671 130.437 33.6047 130.41 31.2348V15.9174C130.408 14.4425 130.784 12.9917 131.501 11.7029C132.175 10.4953 133.119 9.45991 134.26 8.67755C135.783 7.63026 137.589 7.07144 139.437 7.07537H154.397C156.766 7.05376 159.046 7.97266 160.739 9.6305C162.431 11.2884 163.397 13.5498 163.424 15.9187V31.2335Z" fill="white"/>
<path d="M19.5065 155.223C18.0551 155.235 16.6581 154.671 15.6212 153.656C14.5843 152.64 13.9919 151.255 13.9736 149.804V140.425C13.9737 139.522 14.2035 138.635 14.6414 137.846C15.0533 137.105 15.6318 136.471 16.331 135.992C17.2651 135.349 18.3727 135.006 19.5065 135.009H28.6682C30.1189 134.996 31.5157 135.558 32.5521 136.574C33.5886 137.589 34.1802 138.974 34.1971 140.425V149.804C34.1788 151.254 33.5869 152.639 32.5509 153.654C31.5148 154.67 30.1189 155.234 28.6682 155.223H19.5065Z" fill="white"/>
<path d="M19.5065 34.9941C18.0551 35.006 16.6581 34.4425 15.6212 33.4268C14.5843 32.4111 13.9919 31.0261 13.9736 29.5747V20.1955C13.9737 19.2933 14.2035 18.406 14.6414 17.6172C15.0533 16.8765 15.6318 16.2416 16.331 15.7628C17.2651 15.1202 18.3727 14.7774 19.5065 14.78H28.6682C30.1189 14.7668 31.5157 15.3295 32.5521 16.3447C33.5886 17.3599 34.1802 18.7448 34.1971 20.1955V29.5747C34.1788 31.0254 33.5869 32.4099 32.5509 33.4254C31.5148 34.441 30.1189 35.005 28.6682 34.9941H19.5065Z" fill="white"/>
<path d="M142.339 156.529C140.888 156.541 139.491 155.978 138.454 154.962C137.417 153.946 136.825 152.561 136.807 151.11V141.731C136.807 140.828 137.037 139.941 137.474 139.152C137.886 138.412 138.465 137.777 139.164 137.298C140.098 136.655 141.206 136.313 142.339 136.315H151.501C152.952 136.302 154.349 136.865 155.385 137.88C156.422 138.895 157.013 140.28 157.03 141.731V151.11C157.012 152.561 156.42 153.945 155.384 154.961C154.348 155.976 152.952 156.54 151.501 156.529H142.339Z" fill="white"/>
<path d="M142.339 33.686C140.888 33.6979 139.491 33.1343 138.454 32.1187C137.417 31.103 136.825 29.718 136.807 28.2666V18.8874C136.807 17.9852 137.037 17.0979 137.474 16.309C137.886 15.5684 138.465 14.9335 139.164 14.4546C140.098 13.8121 141.206 13.4693 142.339 13.4719H151.501C152.952 13.4587 154.349 14.0214 155.385 15.0366C156.422 16.0518 157.013 17.4366 157.03 18.8874V28.2666C157.012 29.7173 156.42 31.1018 155.384 32.1173C154.348 33.1328 152.952 33.6969 151.501 33.686H142.339Z" fill="white"/>
<path d="M92.155 62.356H80.1504C72.0471 62.356 65.478 68.9254 65.478 77.0291V89.0345C65.478 97.1382 72.0471 103.708 80.1504 103.708H92.155C100.258 103.708 106.827 97.1382 106.827 89.0345V77.0291C106.827 68.9254 100.258 62.356 92.155 62.356Z" fill="#F7931A"/>
<path d="M91.2217 62.7686H81.0871C72.6913 62.7686 65.8853 69.5747 65.8853 77.9704V88.105C65.8853 96.5007 72.6913 103.307 81.0871 103.307H91.2217C99.6174 103.307 106.423 96.5007 106.423 88.105V77.9704C106.423 69.5747 99.6174 62.7686 91.2217 62.7686Z" stroke="#161D26" stroke-width="6.53843"/>
<circle cx="85.8276" cy="82.9795" r="19.02" fill="#EDF0F4"/>
<path d="M85.7758 71.5679L85.6245 72.0818V86.994L85.7758 87.145L92.6978 83.0534L85.7758 71.5679Z" fill="#343434"/>
<path d="M85.7756 71.5679L78.8535 83.0534L85.7756 87.145V79.907V71.5679Z" fill="#8C8C8C"/>
<path d="M85.7757 88.4547L85.6904 88.5587V93.8707L85.7757 94.1196L92.7019 84.3652L85.7757 88.4547Z" fill="#3C3C3B"/>
<path d="M85.7756 94.1196V88.4547L78.8535 84.3652L85.7756 94.1196Z" fill="#8C8C8C"/>
<path d="M85.7754 87.1447L92.6973 83.0531L85.7754 79.9067V87.1447Z" fill="#141414"/>
<path d="M78.8535 83.0531L85.7756 87.1447V79.9067L78.8535 83.0531Z" fill="#393939"/>
</svg>
