<svg width="187" height="164" viewBox="0 0 187 164" fill="none" xmlns="http://www.w3.org/2000/svg">
<ellipse cx="99.0084" cy="59.2225" rx="59.2018" ry="59.2225" fill="#006FFF"/>
<path fill-rule="evenodd" clip-rule="evenodd" d="M120.045 41.4504C121.043 41.4504 121.874 42.279 121.874 43.3334V44.3083C121.874 45.337 121.043 46.1913 120.045 46.1913H77.5276C76.5271 46.1913 75.6963 45.337 75.6963 44.3083V43.3334C75.6963 42.279 76.5271 41.4504 77.5276 41.4504H85.0076C86.5271 41.4504 87.8494 40.3704 88.1913 38.8466L88.583 37.097C89.1918 34.7137 91.1952 33.1309 93.4881 33.1309H104.082C106.35 33.1309 108.376 34.7137 108.962 36.9713L109.381 38.844C109.721 40.3704 111.043 41.4504 112.565 41.4504H120.045ZM116.245 77.0868C117.026 69.8088 118.393 52.518 118.393 52.3436C118.443 51.8151 118.271 51.3149 117.929 50.9121C117.562 50.535 117.098 50.3118 116.587 50.3118H81.0029C80.4889 50.3118 79.9999 50.535 79.6606 50.9121C79.3163 51.3149 79.1466 51.8151 79.1716 52.3436C79.1762 52.3756 79.2252 52.9847 79.3072 54.003C79.6716 58.5264 80.6865 71.1251 81.3422 77.0868C81.8063 81.4787 84.688 84.2391 88.8622 84.3391C92.0832 84.4135 95.4016 84.4392 98.7948 84.4392C101.991 84.4392 105.237 84.4135 108.558 84.3391C112.877 84.2647 115.756 81.5531 116.245 77.0868Z" fill="white"/>
<path d="M165.478 118.859L184.789 98.4043" stroke="#2873FF" stroke-width="3.40789" stroke-linecap="round"/>
<path d="M95.2104 161.859L114.522 141.404" stroke="#FACC15" stroke-width="3.40789" stroke-linecap="round"/>
<path d="M2.21045 118.859L21.5219 98.4043" stroke="#2873FF" stroke-width="3.40789" stroke-linecap="round"/>
<ellipse cx="48.8903" cy="129.086" rx="5.67982" ry="5.68182" fill="#FACC15"/>
</svg>
