<svg width="40" height="40" viewBox="0 0 40 40" fill="none" xmlns="http://www.w3.org/2000/svg">
<path fill-rule="evenodd" clip-rule="evenodd" d="M29.615 13.9697H36.6668C36.6668 8.30766 33.2742 5 27.5261 5H12.4742C6.72609 5 3.3335 8.30766 3.3335 13.8974V26.1026C3.3335 31.6923 6.72609 35 12.4742 35H27.5261C33.2742 35 36.6668 31.6923 36.6668 26.1026V25.5826H29.615C26.3422 25.5826 23.6891 22.9959 23.6891 19.805C23.6891 16.6141 26.3422 14.0274 29.615 14.0274V13.9697ZM29.615 16.454H35.4224C36.1097 16.454 36.6668 16.9972 36.6668 17.6673V21.8849C36.6588 22.5518 36.1063 23.0904 35.4224 23.0982H29.7483C28.0915 23.12 26.6426 22.014 26.2668 20.4405C26.0786 19.4638 26.3428 18.4559 26.9886 17.687C27.6344 16.9181 28.5957 16.4668 29.615 16.454ZM29.8668 20.8883H30.415C31.1186 20.8883 31.6891 20.3322 31.6891 19.6461C31.6891 18.9601 31.1186 18.4039 30.415 18.4039H29.8668C29.5303 18.4001 29.2062 18.5277 28.9668 18.7584C28.7274 18.9891 28.5927 19.3035 28.5928 19.6317C28.5927 20.3201 29.1608 20.8804 29.8668 20.8883ZM11.2298 13.9697H20.6372C21.3409 13.9697 21.9113 13.4135 21.9113 12.7275C21.9113 12.0415 21.3409 11.4853 20.6372 11.4853H11.2298C10.5319 11.4853 9.96383 12.0327 9.95572 12.713C9.95567 13.4015 10.5238 13.9618 11.2298 13.9697Z" fill="white"/>
</svg>
