<?xml version="1.0" encoding="utf-8"?>
<!-- Generator: Adobe Illustrator 28.5.0, SVG Export Plug-In . SVG Version: 6.00 Build 0)  -->
<svg version="1.0" id="katman_1" xmlns="http://www.w3.org/2000/svg" xmlns:xlink="http://www.w3.org/1999/xlink" x="0px" y="0px"
	 viewBox="0 0 841.89 595.28" style="enable-background:new 0 0 841.89 595.28;" xml:space="preserve">
<style type="text/css">
	.st0{fill:#5227FF;}
</style>
<g>
	<path class="st0" d="M195.86,241.37h-61.99v40.11H94.05l0,34.99c0,26.83,21.59,48.59,48.22,48.59h53.53l0.05-40.12h-53.58
		c-4.64,0-8.41-3.79-8.41-8.47l0-34.99h61.94L195.86,241.37z"/>
	<path class="st0" d="M304.36,361.41c-35.81,0-58.22-23.71-58.22-61.45c0-37.26,23.71-61.77,59.35-61.77
		c29.84,0,51.29,17.1,55,43.87h-27.58c-3.55-11.94-13.71-18.71-28.06-18.71c-19.35,0-31.13,13.71-31.13,36.45
		c0,22.42,11.94,36.45,31.13,36.45c14.68,0,25.48-7.26,28.71-19.03h27.1C356.45,343.83,334.2,361.41,304.36,361.41z M370.7,318.99
		c0-25.48,18.71-42.58,44.51-42.58c25.65,0,44.35,17.1,44.35,42.58c0,25.48-18.71,42.42-44.35,42.42
		C389.41,361.41,370.7,344.48,370.7,318.99z M395.7,318.83c0,12.26,7.9,20.32,19.52,20.32c11.45,0,19.35-8.06,19.35-20.32
		c0-12.1-7.9-20.16-19.35-20.16C403.61,298.67,395.7,306.74,395.7,318.83z M486.23,266.25c-7.9,0-14.19-6.29-14.19-14.19
		s6.29-14.03,14.19-14.03c7.74,0,14.03,6.13,14.03,14.03S493.97,266.25,486.23,266.25z M473.97,359.48v-80.64h24.84v80.64H473.97z
		 M542.28,359.48h-24.84v-80.64h23.39l1.61,8.39c5-6.94,14.19-10.97,24.68-10.97c19.19,0,30.32,12.26,30.32,33.39v49.84H572.6
		v-43.87c0-10.16-5.64-16.77-14.19-16.77c-9.84,0-16.13,6.45-16.13,16.45V359.48z M636.09,359.48l-35.8-119.35h27.26l15.65,51.77
		c2.09,7.1,4.03,14.19,5.96,25.97c1.93-11.77,3.87-18.55,5.97-25.97l14.68-51.77h29.19l14.03,51.77c1.93,7.26,3.87,14.52,5.97,25.97
		c2.42-12.1,4.19-18.71,6.29-25.65l15.97-52.1h26.61l-36.45,119.35h-25.48l-21.77-78.39l-22.42,78.39H636.09z"/>
</g>
</svg>
