<svg width="18" height="18" viewBox="0 0 18 18" fill="none" xmlns="http://www.w3.org/2000/svg">
<g clip-path="url(#clip0_1_3568)">
<path d="M12.5928 2.96289C12.1837 2.96289 11.8521 3.29454 11.8521 3.70363C11.8521 4.11273 12.1837 4.44437 12.5928 4.44437H15.5558C15.9649 4.44437 16.2965 4.11273 16.2965 3.70363C16.2965 3.29454 15.9649 2.96289 15.5558 2.96289H12.5928Z" fill="#777E91"/>
<path fill-rule="evenodd" clip-rule="evenodd" d="M10.3701 9.62949C10.3701 7.584 12.0283 5.92578 14.0738 5.92578C16.1193 5.92578 17.7775 7.584 17.7775 9.62949V10.3702C17.7775 10.7793 17.4459 11.111 17.0368 11.111H11.8516C11.8516 12.3383 12.8465 13.3332 14.0738 13.3332C14.5905 13.3332 15.0659 13.1569 15.4433 12.8612C15.6404 12.7067 15.8733 12.5924 16.1238 12.5924C16.7586 12.5924 17.1647 13.2481 16.7206 13.7017C16.0483 14.3884 15.1109 14.8147 14.0738 14.8147C12.0283 14.8147 10.3701 13.1564 10.3701 11.111V9.62949ZM14.0738 7.40726C12.8465 7.40726 11.8516 8.40215 11.8516 9.62949H16.296C16.296 8.40215 15.3012 7.40726 14.0738 7.40726Z" fill="#777E91"/>
<path fill-rule="evenodd" clip-rule="evenodd" d="M1.48148 4.44437V7.40733H5.18519C6.00339 7.40733 6.66667 6.74405 6.66667 5.92585C6.66667 5.10765 6.00339 4.44437 5.18519 4.44437H1.48148ZM7.2591 8.042C7.80778 7.50422 8.14815 6.75479 8.14815 5.92585C8.14815 4.28945 6.82159 2.96289 5.18519 2.96289H1.18519C0.530625 2.96289 0 3.49352 0 4.14808V13.5449C0 14.2462 0.568528 14.8147 1.26984 14.8147H5.18519C7.23068 14.8147 8.88889 13.1565 8.88889 11.111C8.88889 9.83393 8.24252 8.70785 7.2591 8.042ZM1.48148 8.88882V13.3333H5.18519C6.41248 13.3333 7.40741 12.3384 7.40741 11.111C7.40741 9.88371 6.41248 8.88882 5.18519 8.88882H1.48148Z" fill="#777E91"/>
</g>
<defs>
<clipPath id="clip0_1_3568">
<rect width="17.7778" height="17.7778" fill="white"/>
</clipPath>
</defs>
</svg>
